{"glyphs":{"0":{"ha":875,"x_min":74,"x_max":851,"o":"m 339 -121 q 141 -17 208 -121 q 74 242 74 86 q 140 583 74 404 q 321 881 206 761 q 576 1000 436 1000 q 722 958 660 1000 q 817 838 783 915 q 851 658 851 761 q 783 288 851 469 q 597 -7 715 107 q 339 -121 479 -121 m 358 -74 q 548 49 458 -74 q 692 352 638 172 q 746 688 746 532 q 706 888 746 814 q 578 963 665 963 q 373 835 461 963 q 238 530 285 708 q 190 213 190 351 q 235 4 190 82 q 358 -74 281 -74 z "},"1":{"ha":507,"x_min":-64,"x_max":440,"o":"m 42 -121 q -15 -106 15 -121 q -64 -64 -46 -90 q -19 -67 -36 -67 q 131 -51 42 -67 q 201 177 168 35 q 275 540 233 319 q 331 811 306 710 q 171 719 201 719 q 144 728 153 719 q 136 760 136 736 q 271 854 182 783 q 428 1000 360 925 q 440 957 440 989 q 424 871 440 932 q 408 801 414 829 q 319 335 375 571 q 197 -42 264 100 q 253 -37 226 -37 q 345 -54 311 -37 q 388 -115 379 -71 q 278 -108 325 -108 q 150 -115 217 -108 q 42 -121 78 -121 z "},"2":{"ha":776,"x_min":-26,"x_max":694,"o":"m 553 -121 q 440 -99 506 -121 q 286 -40 374 -78 q 258 -28 274 -35 q 226 -15 243 -22 q 68 -75 133 -75 q 0 -54 26 -75 q -26 0 -26 -33 q 78 67 -26 67 q 224 47 126 67 q 398 249 311 125 q 540 510 485 372 q 596 765 596 649 q 556 914 596 865 q 449 963 515 963 q 309 883 360 963 q 258 682 258 804 q 262 634 258 654 q 275 588 265 614 l 268 588 q 194 628 218 600 q 171 711 171 656 q 209 853 171 786 q 316 960 247 919 q 471 1000 385 1000 q 588 967 538 1000 q 666 876 639 933 q 693 747 693 818 q 628 474 693 618 q 482 233 574 353 q 290 32 390 114 l 329 24 q 589 -19 515 -19 q 638 -12 615 -19 q 694 15 661 -4 q 642 -88 676 -56 q 553 -121 608 -121 m 67 -37 q 171 6 107 -37 q 65 31 100 31 q 28 20 40 31 q 17 -3 17 10 q 32 -28 17 -18 q 67 -37 47 -37 z "},"3":{"ha":708,"x_min":8,"x_max":650,"o":"m 236 -121 q 105 -91 156 -121 q 31 -16 54 -61 q 8 76 8 29 q 39 181 8 135 q 121 226 69 226 q 146 225 139 226 q 114 171 126 208 q 101 96 101 133 q 142 -25 101 26 q 249 -76 183 -76 q 356 -37 304 -76 q 441 74 408 3 q 474 233 474 144 q 437 396 474 325 q 319 488 400 467 q 436 574 385 517 q 516 700 488 632 q 544 828 544 768 q 508 930 544 897 q 419 963 472 963 q 309 922 357 963 q 261 813 261 881 q 283 719 261 765 q 259 692 276 704 q 228 681 242 681 q 190 715 204 681 q 176 790 176 750 q 214 902 176 854 q 312 975 251 950 q 436 1000 372 1000 q 588 953 526 1000 q 650 821 650 907 q 617 692 650 760 q 528 572 585 624 q 407 501 472 519 q 565 397 515 474 q 615 233 615 319 q 565 64 615 146 q 428 -69 515 -18 q 236 -121 340 -121 z "},"4":{"ha":664,"x_min":-11,"x_max":631,"o":"m 413 -121 q 306 -56 306 -111 q 315 10 307 -44 q 344 181 324 65 q 375 328 346 192 l 260 329 q -11 307 96 329 q 14 365 -11 344 q 222 575 74 435 q 457 808 368 713 q 600 1000 546 904 q 610 988 606 997 q 615 964 615 979 q 589 888 615 932 q 489 400 550 724 l 547 400 q 631 408 600 400 q 569 349 606 372 q 506 326 532 326 l 475 326 q 460 243 464 271 q 429 44 446 169 q 413 -121 413 -82 m 111 400 q 251 407 161 407 q 392 404 308 407 q 479 757 447 650 q 326 613 444 722 q 149 440 199 493 q 128 418 138 428 q 111 400 119 408 z "},"5":{"ha":671,"x_min":-4,"x_max":663,"o":"m 231 -121 q 94 -91 146 -121 q 19 -17 42 -61 q -4 75 -4 28 q 26 181 -4 135 q 108 226 57 226 q 133 225 126 226 q 101 171 114 208 q 89 90 89 133 q 124 -28 89 19 q 231 -76 158 -76 q 353 -29 300 -76 q 435 92 407 18 q 464 242 464 165 q 418 397 464 336 q 278 458 372 458 q 150 443 226 458 q 260 867 165 543 l 294 990 q 442 972 367 972 q 541 979 493 972 q 657 1000 589 986 q 663 963 663 979 q 613 883 663 907 q 492 858 563 858 q 390 869 446 858 q 340 876 358 876 q 322 872 328 876 q 308 849 317 867 q 266 723 289 804 q 214 525 243 642 l 203 483 q 324 497 268 497 q 528 425 458 497 q 599 235 599 353 q 551 55 599 136 q 420 -74 504 -26 q 231 -121 336 -121 z "},"6":{"ha":779,"x_min":68,"x_max":733,"o":"m 351 -121 q 136 -26 204 -121 q 68 222 68 68 q 137 569 68 386 q 328 876 206 753 q 603 1000 451 1000 q 698 980 663 1000 q 733 919 733 960 q 669 853 733 872 q 671 871 669 863 q 672 892 672 879 q 656 947 672 926 q 596 968 639 968 q 438 889 513 968 q 309 687 364 810 q 222 429 254 564 q 330 496 268 472 q 457 519 392 519 q 640 451 568 519 q 711 250 711 383 q 665 61 711 146 q 538 -72 619 -24 q 351 -121 456 -121 m 358 -76 q 479 -27 426 -76 q 561 100 532 22 q 590 258 590 178 q 541 418 590 364 q 417 472 492 472 q 245 394 299 472 q 192 194 192 315 q 228 8 192 92 q 358 -76 265 -76 z "},"7":{"ha":560,"x_min":82,"x_max":681,"o":"m 132 -121 q 99 -104 113 -121 q 85 -58 85 -87 q 135 119 85 -3 q 271 415 185 240 q 170 410 226 414 q 82 401 114 406 q 137 474 83 457 q 278 492 190 492 l 311 492 q 461 749 363 589 l 540 882 q 439 878 497 882 q 383 875 415 876 q 317 874 351 874 q 175 939 175 874 q 193 997 175 964 l 236 989 q 338 974 294 979 q 447 969 381 969 q 681 997 599 969 q 606 893 638 928 q 383 488 493 728 l 429 485 q 521 481 478 481 q 565 485 549 481 q 456 414 517 414 q 350 415 396 414 l 329 367 q 253 167 281 250 q 226 15 226 85 q 243 -37 226 -25 q 190 -100 224 -79 q 132 -121 157 -121 z "},"8":{"ha":732,"x_min":40,"x_max":651,"o":"m 283 -121 q 142 -85 196 -121 q 64 1 88 -50 q 40 107 40 53 q 74 228 40 172 q 158 326 108 283 q 292 431 207 369 l 340 467 q 225 617 265 549 q 185 769 185 685 q 222 899 185 847 q 318 974 260 950 q 442 999 376 999 q 594 947 538 999 q 651 799 651 894 q 599 633 651 706 q 453 485 547 560 q 545 378 511 421 q 603 283 579 336 q 628 169 628 229 q 578 17 628 83 q 450 -85 529 -49 q 283 -121 371 -121 m 417 526 q 531 653 490 588 q 571 800 571 719 q 534 919 571 878 q 443 961 497 961 q 374 943 408 961 q 316 886 339 925 q 293 788 293 847 q 325 656 293 717 q 417 526 357 594 m 297 -67 q 399 -37 349 -67 q 482 44 450 -8 q 514 164 514 97 q 478 294 514 235 q 376 426 443 353 q 242 322 292 365 q 159 226 193 279 q 125 111 125 172 q 149 18 125 58 q 213 -44 174 -22 q 297 -67 253 -67 z "},"9":{"ha":786,"x_min":119,"x_max":763,"o":"m 254 -121 q 157 -100 193 -121 q 121 -37 121 -79 q 182 26 121 7 l 181 -8 q 198 -67 181 -44 q 260 -89 215 -89 q 415 -10 343 -89 q 537 192 486 69 q 614 450 588 315 q 510 383 571 407 q 383 360 449 360 q 194 431 269 360 q 119 642 119 503 q 163 824 119 743 q 286 953 207 906 q 467 1000 365 1000 q 691 899 619 1000 q 763 636 763 799 q 699 295 763 472 q 519 -1 635 118 q 254 -121 403 -121 m 422 407 q 582 472 529 407 q 635 651 635 538 q 596 867 635 778 q 461 956 557 956 q 345 908 396 956 q 267 787 294 861 q 240 633 240 713 q 292 464 240 521 q 422 407 344 407 z "},"\u0000":{"ha":0,"x_min":0,"x_max":0,"o":""},"\r":{"ha":361,"x_min":0,"x_max":0,"o":""}," ":{"ha":361,"x_min":0,"x_max":0,"o":""},"A":{"ha":822,"x_min":-24,"x_max":796,"o":"m 24 -121 q -24 -49 -24 -94 q 34 121 -24 6 q 188 386 92 236 q 38 393 103 393 l -11 393 q 133 465 15 465 q 233 456 171 465 q 451 759 340 617 q 625 961 561 901 q 692 1000 665 1000 q 765 956 721 1000 q 685 776 738 933 q 590 431 632 618 q 549 131 549 244 q 560 47 549 75 q 600 19 572 19 q 782 225 676 19 l 796 211 q 688 28 753 97 q 556 -42 624 -42 q 474 8 500 -42 q 447 144 447 57 q 471 351 447 233 q 265 379 382 365 q 24 -121 129 129 m 481 400 q 556 671 510 531 q 647 913 601 811 q 494 749 585 874 q 301 443 403 624 q 418 415 357 432 l 481 400 z "},"Á":{"ha":822,"x_min":-24,"x_max":899,"o":"m 24 -121 q -24 -49 -24 -94 q 34 121 -24 6 q 188 386 92 236 q 38 393 103 393 l -11 393 q 133 465 15 465 q 233 456 171 465 q 451 759 340 617 q 625 961 561 901 q 692 1000 665 1000 q 765 956 721 1000 q 685 776 738 933 q 590 431 632 618 q 549 131 549 244 q 560 47 549 75 q 600 19 572 19 q 782 225 676 19 l 796 211 q 688 28 753 97 q 556 -42 624 -42 q 474 8 500 -42 q 447 144 447 57 q 471 351 447 233 q 265 379 382 365 q 24 -121 129 129 m 481 400 q 556 671 510 531 q 647 913 601 811 q 494 749 585 874 q 301 443 403 624 q 418 415 357 432 l 481 400 m 743 1039 q 728 1055 733 1043 q 724 1075 724 1067 q 749 1134 724 1092 q 809 1210 775 1176 q 868 1243 843 1243 q 899 1200 894 1243 q 743 1039 796 1111 z "},"Ă":{"ha":822,"x_min":-24,"x_max":935,"o":"m 24 -121 q -24 -49 -24 -94 q 34 121 -24 6 q 188 386 92 236 q 38 393 103 393 l -11 393 q 133 465 15 465 q 233 456 171 465 q 451 759 340 617 q 625 961 561 901 q 692 1000 665 1000 q 765 956 721 1000 q 685 776 738 933 q 590 431 632 618 q 549 131 549 244 q 560 47 549 75 q 600 19 572 19 q 782 225 676 19 l 796 211 q 688 28 753 97 q 556 -42 624 -42 q 474 8 500 -42 q 447 144 447 57 q 471 351 447 233 q 265 379 382 365 q 24 -121 129 129 m 481 400 q 556 671 510 531 q 647 913 601 811 q 494 749 585 874 q 301 443 403 624 q 418 415 357 432 l 481 400 m 785 1053 q 703 1073 736 1053 q 656 1123 671 1093 q 642 1181 642 1153 q 675 1249 642 1226 q 707 1159 679 1196 q 788 1122 735 1122 q 921 1206 874 1122 q 935 1164 935 1192 q 890 1085 935 1118 q 785 1053 844 1053 z "},"Ắ":{"ha":822,"x_min":-24,"x_max":935,"o":"m 24 -121 q -24 -49 -24 -94 q 34 121 -24 6 q 188 386 92 236 q 38 393 103 393 l -11 393 q 133 465 15 465 q 233 456 171 465 q 451 759 340 617 q 625 961 561 901 q 692 1000 665 1000 q 765 956 721 1000 q 685 776 738 933 q 590 431 632 618 q 549 131 549 244 q 560 47 549 75 q 600 19 572 19 q 782 225 676 19 l 796 211 q 688 28 753 97 q 556 -42 624 -42 q 474 8 500 -42 q 447 144 447 57 q 471 351 447 233 q 265 379 382 365 q 24 -121 129 129 m 481 400 q 556 671 510 531 q 647 913 601 811 q 494 749 585 874 q 301 443 403 624 q 418 415 357 432 l 481 400 m 800 1200 q 779 1217 786 1206 q 772 1240 772 1228 q 794 1292 772 1258 q 845 1351 815 1325 q 897 1376 875 1376 q 928 1333 924 1376 q 800 1200 843 1257 m 785 1053 q 703 1073 736 1053 q 656 1123 671 1093 q 642 1181 642 1153 q 675 1249 642 1226 q 707 1159 679 1196 q 788 1122 735 1122 q 921 1206 874 1122 q 935 1164 935 1192 q 890 1085 935 1118 q 785 1053 844 1053 z "},"Ặ":{"ha":822,"x_min":-24,"x_max":935,"o":"m 24 -121 q -24 -49 -24 -94 q 34 121 -24 6 q 188 386 92 236 q 38 393 103 393 l -11 393 q 133 465 15 465 q 233 456 171 465 q 451 759 340 617 q 625 961 561 901 q 692 1000 665 1000 q 765 956 721 1000 q 685 776 738 933 q 590 431 632 618 q 549 131 549 244 q 560 47 549 75 q 600 19 572 19 q 782 225 676 19 l 796 211 q 688 28 753 97 q 556 -42 624 -42 q 474 8 500 -42 q 447 144 447 57 q 471 351 447 233 q 265 379 382 365 q 24 -121 129 129 m 481 400 q 556 671 510 531 q 647 913 601 811 q 494 749 585 874 q 301 443 403 624 q 418 415 357 432 l 481 400 m 785 1053 q 703 1073 736 1053 q 656 1123 671 1093 q 642 1181 642 1153 q 675 1249 642 1226 q 707 1159 679 1196 q 788 1122 735 1122 q 921 1206 874 1122 q 935 1164 935 1192 q 890 1085 935 1118 q 785 1053 844 1053 m 242 -261 q 201 -249 217 -261 q 186 -215 186 -237 q 215 -167 186 -186 q 276 -147 244 -147 q 325 -193 325 -147 q 299 -240 325 -219 q 242 -261 272 -261 z "},"Ằ":{"ha":822,"x_min":-24,"x_max":935,"o":"m 24 -121 q -24 -49 -24 -94 q 34 121 -24 6 q 188 386 92 236 q 38 393 103 393 l -11 393 q 133 465 15 465 q 233 456 171 465 q 451 759 340 617 q 625 961 561 901 q 692 1000 665 1000 q 765 956 721 1000 q 685 776 738 933 q 590 431 632 618 q 549 131 549 244 q 560 47 549 75 q 600 19 572 19 q 782 225 676 19 l 796 211 q 688 28 753 97 q 556 -42 624 -42 q 474 8 500 -42 q 447 144 447 57 q 471 351 447 233 q 265 379 382 365 q 24 -121 129 129 m 481 400 q 556 671 510 531 q 647 913 601 811 q 494 749 585 874 q 301 443 403 624 q 418 415 357 432 l 481 400 m 815 1196 q 688 1329 772 1253 q 718 1372 692 1372 q 770 1347 740 1372 q 822 1288 800 1321 q 843 1236 843 1254 q 836 1213 843 1224 q 815 1196 829 1201 m 785 1053 q 703 1073 736 1053 q 656 1123 671 1093 q 642 1181 642 1153 q 675 1249 642 1226 q 707 1159 679 1196 q 788 1122 735 1122 q 921 1206 874 1122 q 935 1164 935 1192 q 890 1085 935 1118 q 785 1053 844 1053 z "},"Ẳ":{"ha":822,"x_min":-24,"x_max":935,"o":"m 24 -121 q -24 -49 -24 -94 q 34 121 -24 6 q 188 386 92 236 q 38 393 103 393 l -11 393 q 133 465 15 465 q 233 456 171 465 q 451 759 340 617 q 625 961 561 901 q 692 1000 665 1000 q 765 956 721 1000 q 685 776 738 933 q 590 431 632 618 q 549 131 549 244 q 560 47 549 75 q 600 19 572 19 q 782 225 676 19 l 796 211 q 688 28 753 97 q 556 -42 624 -42 q 474 8 500 -42 q 447 144 447 57 q 471 351 447 233 q 265 379 382 365 q 24 -121 129 129 m 481 400 q 556 671 510 531 q 647 913 601 811 q 494 749 585 874 q 301 443 403 624 q 418 415 357 432 l 481 400 m 785 1053 q 703 1073 736 1053 q 656 1123 671 1093 q 642 1181 642 1153 q 675 1249 642 1226 q 707 1159 679 1196 q 788 1122 735 1122 q 921 1206 874 1122 q 935 1164 935 1192 q 890 1085 935 1118 q 785 1053 844 1053 m 810 1183 q 763 1199 781 1183 q 831 1217 804 1201 q 858 1265 858 1233 q 826 1311 858 1297 q 729 1325 794 1325 q 747 1370 729 1351 q 796 1389 765 1389 q 874 1358 843 1389 q 904 1282 904 1328 q 878 1211 904 1239 q 810 1183 851 1183 z "},"Ẵ":{"ha":822,"x_min":-24,"x_max":1043,"o":"m 24 -121 q -24 -49 -24 -94 q 34 121 -24 6 q 188 386 92 236 q 38 393 103 393 l -11 393 q 133 465 15 465 q 233 456 171 465 q 451 759 340 617 q 625 961 561 901 q 692 1000 665 1000 q 765 956 721 1000 q 685 776 738 933 q 590 431 632 618 q 549 131 549 244 q 560 47 549 75 q 600 19 572 19 q 782 225 676 19 l 796 211 q 688 28 753 97 q 556 -42 624 -42 q 474 8 500 -42 q 447 144 447 57 q 471 351 447 233 q 265 379 382 365 q 24 -121 129 129 m 481 400 q 556 671 510 531 q 647 913 601 811 q 494 749 585 874 q 301 443 403 624 q 418 415 357 432 l 481 400 m 785 1053 q 703 1073 736 1053 q 656 1123 671 1093 q 642 1181 642 1153 q 675 1249 642 1226 q 707 1159 679 1196 q 788 1122 735 1122 q 921 1206 874 1122 q 935 1164 935 1192 q 890 1085 935 1118 q 785 1053 844 1053 m 929 1236 q 878 1244 904 1236 q 814 1267 853 1251 q 744 1292 774 1283 q 686 1300 715 1300 q 611 1279 643 1300 q 732 1349 661 1349 q 783 1341 757 1349 q 846 1318 810 1333 q 931 1290 900 1299 q 996 1282 961 1282 q 1043 1293 1018 1282 q 929 1236 997 1236 z "},"Â":{"ha":822,"x_min":-24,"x_max":894,"o":"m 24 -121 q -24 -49 -24 -94 q 34 121 -24 6 q 188 386 92 236 q 38 393 103 393 l -11 393 q 133 465 15 465 q 233 456 171 465 q 451 759 340 617 q 625 961 561 901 q 692 1000 665 1000 q 765 956 721 1000 q 685 776 738 933 q 590 431 632 618 q 549 131 549 244 q 560 47 549 75 q 600 19 572 19 q 782 225 676 19 l 796 211 q 688 28 753 97 q 556 -42 624 -42 q 474 8 500 -42 q 447 144 447 57 q 471 351 447 233 q 265 379 382 365 q 24 -121 129 129 m 481 400 q 556 671 510 531 q 647 913 601 811 q 494 749 585 874 q 301 443 403 624 q 418 415 357 432 l 481 400 m 871 1033 q 829 1097 853 1069 q 768 1161 806 1125 q 688 1126 721 1144 q 625 1082 654 1108 q 611 1108 611 1090 q 642 1162 611 1133 q 711 1210 672 1190 q 769 1231 750 1231 q 822 1204 792 1231 q 873 1142 851 1178 q 894 1076 894 1106 q 871 1033 894 1046 z "},"Ấ":{"ha":822,"x_min":-24,"x_max":1046,"o":"m 24 -121 q -24 -49 -24 -94 q 34 121 -24 6 q 188 386 92 236 q 38 393 103 393 l -11 393 q 133 465 15 465 q 233 456 171 465 q 451 759 340 617 q 625 961 561 901 q 692 1000 665 1000 q 765 956 721 1000 q 685 776 738 933 q 590 431 632 618 q 549 131 549 244 q 560 47 549 75 q 600 19 572 19 q 782 225 676 19 l 796 211 q 688 28 753 97 q 556 -42 624 -42 q 474 8 500 -42 q 447 144 447 57 q 471 351 447 233 q 265 379 382 365 q 24 -121 129 129 m 481 400 q 556 671 510 531 q 647 913 601 811 q 494 749 585 874 q 301 443 403 624 q 418 415 357 432 l 481 400 m 918 1165 q 897 1182 904 1171 q 890 1206 890 1193 q 912 1257 890 1224 q 963 1316 933 1290 q 1015 1342 993 1342 q 1046 1299 1042 1342 q 918 1165 961 1222 m 871 1033 q 829 1097 853 1069 q 768 1161 806 1125 q 688 1126 721 1144 q 625 1082 654 1108 q 611 1108 611 1090 q 642 1162 611 1133 q 711 1210 672 1190 q 769 1231 750 1231 q 822 1204 792 1231 q 873 1142 851 1178 q 894 1076 894 1106 q 871 1033 894 1046 z "},"Ậ":{"ha":822,"x_min":-24,"x_max":894,"o":"m 24 -121 q -24 -49 -24 -94 q 34 121 -24 6 q 188 386 92 236 q 38 393 103 393 l -11 393 q 133 465 15 465 q 233 456 171 465 q 451 759 340 617 q 625 961 561 901 q 692 1000 665 1000 q 765 956 721 1000 q 685 776 738 933 q 590 431 632 618 q 549 131 549 244 q 560 47 549 75 q 600 19 572 19 q 782 225 676 19 l 796 211 q 688 28 753 97 q 556 -42 624 -42 q 474 8 500 -42 q 447 144 447 57 q 471 351 447 233 q 265 379 382 365 q 24 -121 129 129 m 481 400 q 556 671 510 531 q 647 913 601 811 q 494 749 585 874 q 301 443 403 624 q 418 415 357 432 l 481 400 m 871 1033 q 829 1097 853 1069 q 768 1161 806 1125 q 688 1126 721 1144 q 625 1082 654 1108 q 611 1108 611 1090 q 642 1162 611 1133 q 711 1210 672 1190 q 769 1231 750 1231 q 822 1204 792 1231 q 873 1142 851 1178 q 894 1076 894 1106 q 871 1033 894 1046 m 242 -261 q 201 -249 217 -261 q 186 -215 186 -237 q 215 -167 186 -186 q 276 -147 244 -147 q 325 -193 325 -147 q 299 -240 325 -219 q 242 -261 272 -261 z "},"Ầ":{"ha":822,"x_min":-24,"x_max":971,"o":"m 24 -121 q -24 -49 -24 -94 q 34 121 -24 6 q 188 386 92 236 q 38 393 103 393 l -11 393 q 133 465 15 465 q 233 456 171 465 q 451 759 340 617 q 625 961 561 901 q 692 1000 665 1000 q 765 956 721 1000 q 685 776 738 933 q 590 431 632 618 q 549 131 549 244 q 560 47 549 75 q 600 19 572 19 q 782 225 676 19 l 796 211 q 688 28 753 97 q 556 -42 624 -42 q 474 8 500 -42 q 447 144 447 57 q 471 351 447 233 q 265 379 382 365 q 24 -121 129 129 m 481 400 q 556 671 510 531 q 647 913 601 811 q 494 749 585 874 q 301 443 403 624 q 418 415 357 432 l 481 400 m 942 1163 q 832 1310 908 1222 q 867 1349 838 1349 q 912 1322 888 1349 q 953 1260 936 1296 q 971 1204 971 1225 q 942 1163 971 1174 m 871 1033 q 829 1097 853 1069 q 768 1161 806 1125 q 688 1126 721 1144 q 625 1082 654 1108 q 611 1108 611 1090 q 642 1162 611 1133 q 711 1210 672 1190 q 769 1231 750 1231 q 822 1204 792 1231 q 873 1142 851 1178 q 894 1076 894 1106 q 871 1033 894 1046 z "},"Ẩ":{"ha":822,"x_min":-24,"x_max":1038,"o":"m 24 -121 q -24 -49 -24 -94 q 34 121 -24 6 q 188 386 92 236 q 38 393 103 393 l -11 393 q 133 465 15 465 q 233 456 171 465 q 451 759 340 617 q 625 961 561 901 q 692 1000 665 1000 q 765 956 721 1000 q 685 776 738 933 q 590 431 632 618 q 549 131 549 244 q 560 47 549 75 q 600 19 572 19 q 782 225 676 19 l 796 211 q 688 28 753 97 q 556 -42 624 -42 q 474 8 500 -42 q 447 144 447 57 q 471 351 447 233 q 265 379 382 365 q 24 -121 129 129 m 481 400 q 556 671 510 531 q 647 913 601 811 q 494 749 585 874 q 301 443 403 624 q 418 415 357 432 l 481 400 m 956 1151 q 913 1167 928 1151 q 968 1185 944 1169 q 992 1228 992 1200 q 863 1290 992 1290 q 881 1335 863 1317 q 929 1354 899 1354 q 1007 1321 976 1354 q 1038 1238 1038 1288 q 1015 1175 1038 1199 q 956 1151 992 1151 m 871 1033 q 829 1097 853 1069 q 768 1161 806 1125 q 688 1126 721 1144 q 625 1082 654 1108 q 611 1108 611 1090 q 642 1162 611 1133 q 711 1210 672 1190 q 769 1231 750 1231 q 822 1204 792 1231 q 873 1142 851 1178 q 894 1076 894 1106 q 871 1033 894 1046 z "},"Ẫ":{"ha":822,"x_min":-24,"x_max":1043,"o":"m 24 -121 q -24 -49 -24 -94 q 34 121 -24 6 q 188 386 92 236 q 38 393 103 393 l -11 393 q 133 465 15 465 q 233 456 171 465 q 451 759 340 617 q 625 961 561 901 q 692 1000 665 1000 q 765 956 721 1000 q 685 776 738 933 q 590 431 632 618 q 549 131 549 244 q 560 47 549 75 q 600 19 572 19 q 782 225 676 19 l 796 211 q 688 28 753 97 q 556 -42 624 -42 q 474 8 500 -42 q 447 144 447 57 q 471 351 447 233 q 265 379 382 365 q 24 -121 129 129 m 481 400 q 556 671 510 531 q 647 913 601 811 q 494 749 585 874 q 301 443 403 624 q 418 415 357 432 l 481 400 m 785 1053 q 703 1073 736 1053 q 656 1123 671 1093 q 642 1181 642 1153 q 675 1249 642 1226 q 707 1159 679 1196 q 788 1122 735 1122 q 921 1206 874 1122 q 935 1164 935 1192 q 890 1085 935 1118 q 785 1053 844 1053 m 929 1236 q 878 1244 904 1236 q 814 1267 853 1251 q 744 1292 774 1283 q 686 1300 715 1300 q 611 1279 643 1300 q 732 1349 661 1349 q 783 1341 757 1349 q 846 1318 810 1333 q 931 1290 900 1299 q 996 1282 961 1282 q 1043 1293 1018 1282 q 929 1236 997 1236 z "},"Ȁ":{"ha":822,"x_min":-24,"x_max":829,"o":"m 24 -121 q -24 -49 -24 -94 q 34 121 -24 6 q 188 386 92 236 q 38 393 103 393 l -11 393 q 133 465 15 465 q 233 456 171 465 q 451 759 340 617 q 625 961 561 901 q 692 1000 665 1000 q 765 956 721 1000 q 685 776 738 933 q 590 431 632 618 q 549 131 549 244 q 560 47 549 75 q 600 19 572 19 q 782 225 676 19 l 796 211 q 688 28 753 97 q 556 -42 624 -42 q 474 8 500 -42 q 447 144 447 57 q 471 351 447 233 q 265 379 382 365 q 24 -121 129 129 m 481 400 q 556 671 510 531 q 647 913 601 811 q 494 749 585 874 q 301 443 403 624 q 418 415 357 432 l 481 400 m 801 1044 q 701 1201 757 1129 q 738 1236 715 1236 q 781 1208 760 1236 q 816 1144 803 1181 q 829 1086 829 1108 q 801 1044 829 1050 m 710 1038 q 576 1210 647 1125 q 617 1233 597 1233 q 664 1202 639 1233 q 707 1131 689 1171 q 725 1069 725 1090 q 710 1038 725 1049 z "},"Ä":{"ha":822,"x_min":-24,"x_max":928,"o":"m 24 -121 q -24 -49 -24 -94 q 34 121 -24 6 q 188 386 92 236 q 38 393 103 393 l -11 393 q 133 465 15 465 q 233 456 171 465 q 451 759 340 617 q 625 961 561 901 q 692 1000 665 1000 q 765 956 721 1000 q 685 776 738 933 q 590 431 632 618 q 549 131 549 244 q 560 47 549 75 q 600 19 572 19 q 782 225 676 19 l 796 211 q 688 28 753 97 q 556 -42 624 -42 q 474 8 500 -42 q 447 144 447 57 q 471 351 447 233 q 265 379 382 365 q 24 -121 129 129 m 481 400 q 556 671 510 531 q 647 913 601 811 q 494 749 585 874 q 301 443 403 624 q 418 415 357 432 l 481 400 m 646 1075 q 609 1085 624 1075 q 594 1117 594 1096 q 624 1162 594 1142 q 686 1182 654 1182 q 728 1143 728 1182 q 702 1097 728 1119 q 646 1075 676 1075 m 846 1046 q 809 1056 824 1046 q 794 1088 794 1067 q 824 1133 794 1113 q 886 1153 854 1153 q 928 1114 928 1153 q 902 1068 928 1090 q 846 1046 876 1046 z "},"Ạ":{"ha":822,"x_min":-24,"x_max":796,"o":"m 24 -121 q -24 -49 -24 -94 q 34 121 -24 6 q 188 386 92 236 q 38 393 103 393 l -11 393 q 133 465 15 465 q 233 456 171 465 q 451 759 340 617 q 625 961 561 901 q 692 1000 665 1000 q 765 956 721 1000 q 685 776 738 933 q 590 431 632 618 q 549 131 549 244 q 560 47 549 75 q 600 19 572 19 q 782 225 676 19 l 796 211 q 688 28 753 97 q 556 -42 624 -42 q 474 8 500 -42 q 447 144 447 57 q 471 351 447 233 q 265 379 382 365 q 24 -121 129 129 m 481 400 q 556 671 510 531 q 647 913 601 811 q 494 749 585 874 q 301 443 403 624 q 418 415 357 432 l 481 400 m 242 -261 q 201 -249 217 -261 q 186 -215 186 -237 q 215 -167 186 -186 q 276 -147 244 -147 q 325 -193 325 -147 q 299 -240 325 -219 q 242 -261 272 -261 z "},"À":{"ha":822,"x_min":-24,"x_max":796,"o":"m 24 -121 q -24 -49 -24 -94 q 34 121 -24 6 q 188 386 92 236 q 38 393 103 393 l -11 393 q 133 465 15 465 q 233 456 171 465 q 451 759 340 617 q 625 961 561 901 q 692 1000 665 1000 q 765 956 721 1000 q 685 776 738 933 q 590 431 632 618 q 549 131 549 244 q 560 47 549 75 q 600 19 572 19 q 782 225 676 19 l 796 211 q 688 28 753 97 q 556 -42 624 -42 q 474 8 500 -42 q 447 144 447 57 q 471 351 447 233 q 265 379 382 365 q 24 -121 129 129 m 481 400 q 556 671 510 531 q 647 913 601 811 q 494 749 585 874 q 301 443 403 624 q 418 415 357 432 l 481 400 m 740 1039 q 585 1200 688 1111 q 615 1243 589 1243 q 674 1210 640 1243 q 734 1134 708 1176 q 760 1075 760 1092 q 755 1055 760 1067 q 740 1039 750 1043 z "},"Ả":{"ha":822,"x_min":-24,"x_max":876,"o":"m 24 -121 q -24 -49 -24 -94 q 34 121 -24 6 q 188 386 92 236 q 38 393 103 393 l -11 393 q 133 465 15 465 q 233 456 171 465 q 451 759 340 617 q 625 961 561 901 q 692 1000 665 1000 q 765 956 721 1000 q 685 776 738 933 q 590 431 632 618 q 549 131 549 244 q 560 47 549 75 q 600 19 572 19 q 782 225 676 19 l 796 211 q 688 28 753 97 q 556 -42 624 -42 q 474 8 500 -42 q 447 144 447 57 q 471 351 447 233 q 265 379 382 365 q 24 -121 129 129 m 481 400 q 556 671 510 531 q 647 913 601 811 q 494 749 585 874 q 301 443 403 624 q 418 415 357 432 l 481 400 m 782 1042 q 735 1057 753 1042 q 803 1076 776 1060 q 831 1124 831 1092 q 799 1169 831 1156 q 701 1183 767 1183 q 719 1228 701 1210 q 768 1247 738 1247 q 846 1217 815 1247 q 876 1140 876 1186 q 850 1069 876 1097 q 782 1042 824 1042 z "},"Ȃ":{"ha":822,"x_min":-24,"x_max":917,"o":"m 24 -121 q -24 -49 -24 -94 q 34 121 -24 6 q 188 386 92 236 q 38 393 103 393 l -11 393 q 133 465 15 465 q 233 456 171 465 q 451 759 340 617 q 625 961 561 901 q 692 1000 665 1000 q 765 956 721 1000 q 685 776 738 933 q 590 431 632 618 q 549 131 549 244 q 560 47 549 75 q 600 19 572 19 q 782 225 676 19 l 796 211 q 688 28 753 97 q 556 -42 624 -42 q 474 8 500 -42 q 447 144 447 57 q 471 351 447 233 q 265 379 382 365 q 24 -121 129 129 m 481 400 q 556 671 510 531 q 647 913 601 811 q 494 749 585 874 q 301 443 403 624 q 418 415 357 432 l 481 400 m 883 1011 q 849 1101 879 1065 q 760 1138 819 1138 q 638 1054 682 1138 q 624 1096 624 1069 q 667 1175 624 1143 q 772 1207 710 1207 q 852 1188 819 1207 q 901 1140 885 1168 q 917 1086 917 1113 q 883 1011 917 1036 z "},"Ā":{"ha":822,"x_min":-24,"x_max":946,"o":"m 24 -121 q -24 -49 -24 -94 q 34 121 -24 6 q 188 386 92 236 q 38 393 103 393 l -11 393 q 133 465 15 465 q 233 456 171 465 q 451 759 340 617 q 625 961 561 901 q 692 1000 665 1000 q 765 956 721 1000 q 685 776 738 933 q 590 431 632 618 q 549 131 549 244 q 560 47 549 75 q 600 19 572 19 q 782 225 676 19 l 796 211 q 688 28 753 97 q 556 -42 624 -42 q 474 8 500 -42 q 447 144 447 57 q 471 351 447 233 q 265 379 382 365 q 24 -121 129 129 m 481 400 q 556 671 510 531 q 647 913 601 811 q 494 749 585 874 q 301 443 403 624 q 418 415 357 432 l 481 400 m 893 1050 q 803 1060 861 1050 q 688 1082 744 1069 q 547 1107 578 1104 q 611 1143 561 1143 q 946 1078 725 1143 q 893 1050 926 1050 z "},"Ą":{"ha":822,"x_min":-24,"x_max":796,"o":"m 589 -96 q 607 -140 589 -122 q 657 -157 625 -157 q 726 -133 694 -157 q 700 -194 725 -172 q 635 -217 675 -217 q 565 -190 592 -217 q 539 -122 539 -164 q 578 -39 539 -71 q 556 -42 564 -42 q 474 8 500 -42 q 447 144 447 57 q 471 351 447 233 q 265 379 382 365 q 24 -121 129 129 q -24 -49 -24 -94 q 34 121 -24 6 q 188 386 92 236 q 38 393 103 393 l -11 393 q 133 465 15 465 q 233 456 171 465 q 451 759 340 617 q 625 961 561 901 q 692 1000 665 1000 q 765 956 721 1000 q 685 776 738 933 q 590 431 632 618 q 549 131 549 244 q 560 47 549 75 q 600 19 572 19 q 782 225 676 19 l 796 211 q 724 72 767 132 q 635 -17 682 13 q 589 -96 589 -51 m 481 400 q 556 671 510 531 q 647 913 601 811 q 494 749 585 874 q 301 443 403 624 q 418 415 357 432 l 481 400 z "},"Å":{"ha":822,"x_min":-24,"x_max":917,"o":"m 24 -121 q -24 -49 -24 -94 q 34 121 -24 6 q 188 386 92 236 q 38 393 103 393 l -11 393 q 133 465 15 465 q 233 456 171 465 q 451 759 340 617 q 625 961 561 901 q 692 1000 665 1000 q 765 956 721 1000 q 685 776 738 933 q 590 431 632 618 q 549 131 549 244 q 560 47 549 75 q 600 19 572 19 q 782 225 676 19 l 796 211 q 688 28 753 97 q 556 -42 624 -42 q 474 8 500 -42 q 447 144 447 57 q 471 351 447 233 q 265 379 382 365 q 24 -121 129 129 m 481 400 q 556 671 510 531 q 647 913 601 811 q 494 749 585 874 q 301 443 403 624 q 418 415 357 432 l 481 400 m 742 1047 q 666 1068 690 1047 q 642 1122 642 1089 q 665 1192 642 1156 q 727 1253 688 1229 q 811 1278 767 1278 q 891 1257 865 1278 q 917 1203 917 1236 q 892 1133 917 1169 q 827 1072 868 1096 q 742 1047 786 1047 m 754 1075 q 806 1094 781 1075 q 849 1142 832 1114 q 865 1194 865 1171 q 849 1231 865 1215 q 804 1246 833 1246 q 753 1228 778 1246 q 712 1183 728 1210 q 696 1132 696 1157 q 711 1093 696 1111 q 754 1075 726 1075 z "},"Ǻ":{"ha":822,"x_min":-24,"x_max":1024,"o":"m 24 -121 q -24 -49 -24 -94 q 34 121 -24 6 q 188 386 92 236 q 38 393 103 393 l -11 393 q 133 465 15 465 q 233 456 171 465 q 451 759 340 617 q 625 961 561 901 q 692 1000 665 1000 q 765 956 721 1000 q 685 776 738 933 q 590 431 632 618 q 549 131 549 244 q 560 47 549 75 q 600 19 572 19 q 782 225 676 19 l 796 211 q 688 28 753 97 q 556 -42 624 -42 q 474 8 500 -42 q 447 144 447 57 q 471 351 447 233 q 265 379 382 365 q 24 -121 129 129 m 481 400 q 556 671 510 531 q 647 913 601 811 q 494 749 585 874 q 301 443 403 624 q 418 415 357 432 l 481 400 m 742 1047 q 666 1068 690 1047 q 642 1122 642 1089 q 665 1192 642 1156 q 727 1253 688 1229 q 811 1278 767 1278 q 891 1257 865 1278 q 917 1203 917 1236 q 892 1133 917 1169 q 827 1072 868 1096 q 742 1047 786 1047 m 754 1075 q 806 1094 781 1075 q 849 1142 832 1114 q 865 1194 865 1171 q 849 1231 865 1215 q 804 1246 833 1246 q 753 1228 778 1246 q 712 1183 728 1210 q 696 1132 696 1157 q 711 1093 696 1111 q 754 1075 726 1075 m 868 1317 q 853 1333 858 1321 q 849 1353 849 1344 q 874 1412 849 1369 q 934 1488 900 1454 q 993 1521 968 1521 q 1024 1478 1019 1521 q 868 1317 921 1389 z "},"Ã":{"ha":822,"x_min":-24,"x_max":976,"o":"m 24 -121 q -24 -49 -24 -94 q 34 121 -24 6 q 188 386 92 236 q 38 393 103 393 l -11 393 q 133 465 15 465 q 233 456 171 465 q 451 759 340 617 q 625 961 561 901 q 692 1000 665 1000 q 765 956 721 1000 q 685 776 738 933 q 590 431 632 618 q 549 131 549 244 q 560 47 549 75 q 600 19 572 19 q 782 225 676 19 l 796 211 q 688 28 753 97 q 556 -42 624 -42 q 474 8 500 -42 q 447 144 447 57 q 471 351 447 233 q 265 379 382 365 q 24 -121 129 129 m 481 400 q 556 671 510 531 q 647 913 601 811 q 494 749 585 874 q 301 443 403 624 q 418 415 357 432 l 481 400 m 863 1057 q 812 1065 838 1057 q 747 1088 786 1072 q 678 1113 707 1104 q 619 1121 649 1121 q 544 1100 576 1121 q 665 1169 594 1169 q 717 1162 690 1169 q 779 1139 743 1154 q 864 1111 833 1119 q 929 1103 894 1103 q 976 1114 951 1103 q 863 1057 931 1057 z "},"Æ":{"ha":1038,"x_min":-24,"x_max":1121,"o":"m 24 -121 q -24 -49 -24 -94 q 34 121 -24 6 q 188 386 92 236 q 38 393 103 393 l -11 393 q 133 465 15 465 q 233 456 171 465 q 515 840 383 681 q 692 1000 647 1000 q 919 990 792 1000 q 1121 968 1046 979 q 1047 928 1110 939 q 885 918 983 918 q 742 921 828 918 q 686 780 718 874 q 625 576 654 686 q 865 551 726 574 l 914 544 q 840 505 903 515 q 678 494 776 494 q 604 496 624 494 q 549 131 549 260 q 553 74 549 97 q 750 53 622 64 q 833 45 764 51 q 931 32 901 39 q 856 -8 919 3 q 694 -18 793 -18 q 488 -12 540 -18 q 457 49 467 8 q 447 144 447 90 q 471 351 447 233 q 265 379 382 365 q 24 -121 129 129 m 481 400 q 556 671 510 531 q 647 913 601 811 q 494 749 585 874 q 301 443 403 624 q 418 415 357 432 l 481 400 z "},"Ǽ":{"ha":1038,"x_min":-24,"x_max":1121,"o":"m 24 -121 q -24 -49 -24 -94 q 34 121 -24 6 q 188 386 92 236 q 38 393 103 393 l -11 393 q 133 465 15 465 q 233 456 171 465 q 515 840 383 681 q 692 1000 647 1000 q 919 990 792 1000 q 1121 968 1046 979 q 1047 928 1110 939 q 885 918 983 918 q 742 921 828 918 q 686 780 718 874 q 625 576 654 686 q 865 551 726 574 l 914 544 q 840 505 903 515 q 678 494 776 494 q 604 496 624 494 q 549 131 549 260 q 553 74 549 97 q 750 53 622 64 q 833 45 764 51 q 931 32 901 39 q 856 -8 919 3 q 694 -18 793 -18 q 488 -12 540 -18 q 457 49 467 8 q 447 144 447 90 q 471 351 447 233 q 265 379 382 365 q 24 -121 129 129 m 481 400 q 556 671 510 531 q 647 913 601 811 q 494 749 585 874 q 301 443 403 624 q 418 415 357 432 l 481 400 m 801 1039 q 787 1055 792 1043 q 782 1075 782 1067 q 808 1134 782 1092 q 867 1210 833 1176 q 926 1243 901 1243 q 957 1200 953 1243 q 801 1039 854 1111 z "},"B":{"ha":844,"x_min":26,"x_max":783,"o":"m 181 -121 q 65 -94 103 -121 q 26 -10 26 -68 q 33 -6 26 -6 q 67 -12 39 -6 q 164 -19 94 -19 q 445 27 318 -19 q 644 150 572 74 q 717 310 717 226 q 617 448 717 411 q 367 485 517 485 l 263 483 q 203 271 242 413 q 138 36 174 163 q 79 56 103 36 q 56 103 56 75 q 64 147 56 121 q 75 182 72 174 q 205 567 118 326 q 369 961 292 808 q 208 900 288 947 q 178 886 183 886 q 150 900 167 886 q 133 924 133 914 q 295 981 225 961 q 463 1000 365 1000 q 687 953 590 1000 q 783 779 783 907 q 691 593 783 656 q 465 508 599 531 q 782 285 782 489 q 681 67 782 160 q 437 -73 579 -25 q 181 -121 294 -121 m 271 515 q 575 586 450 521 q 700 790 700 651 q 465 971 700 971 q 439 969 447 971 q 271 515 357 810 z "},"C":{"ha":742,"x_min":31,"x_max":735,"o":"m 304 -121 q 149 -74 211 -121 q 59 51 88 -26 q 31 218 31 128 q 118 578 31 396 q 339 880 206 761 q 601 999 472 999 q 695 969 661 999 q 729 879 729 940 q 704 754 729 825 q 642 633 679 683 q 568 583 604 583 q 525 615 540 583 q 625 757 576 674 q 674 894 674 840 q 657 940 674 924 q 606 957 640 957 q 400 833 510 957 q 216 528 290 708 q 142 194 142 347 q 190 3 142 81 q 338 -74 239 -74 q 482 -33 408 -74 q 617 76 556 8 q 715 225 678 144 l 735 211 q 548 -28 660 64 q 304 -121 436 -121 z "},"Ć":{"ha":742,"x_min":31,"x_max":831,"o":"m 304 -121 q 149 -74 211 -121 q 59 51 88 -26 q 31 218 31 128 q 118 578 31 396 q 339 880 206 761 q 601 999 472 999 q 695 969 661 999 q 729 879 729 940 q 704 754 729 825 q 642 633 679 683 q 568 583 604 583 q 525 615 540 583 q 625 757 576 674 q 674 894 674 840 q 657 940 674 924 q 606 957 640 957 q 400 833 510 957 q 216 528 290 708 q 142 194 142 347 q 190 3 142 81 q 338 -74 239 -74 q 482 -33 408 -74 q 617 76 556 8 q 715 225 678 144 l 735 211 q 548 -28 660 64 q 304 -121 436 -121 m 675 1038 q 660 1053 665 1042 q 656 1074 656 1065 q 681 1133 656 1090 q 741 1208 707 1175 q 800 1242 775 1242 q 831 1199 826 1242 q 675 1038 728 1110 z "},"Č":{"ha":742,"x_min":31,"x_max":829,"o":"m 304 -121 q 149 -74 211 -121 q 59 51 88 -26 q 31 218 31 128 q 118 578 31 396 q 339 880 206 761 q 601 999 472 999 q 695 969 661 999 q 729 879 729 940 q 704 754 729 825 q 642 633 679 683 q 568 583 604 583 q 525 615 540 583 q 625 757 576 674 q 674 894 674 840 q 657 940 674 924 q 606 957 640 957 q 400 833 510 957 q 216 528 290 708 q 142 194 142 347 q 190 3 142 81 q 338 -74 239 -74 q 482 -33 408 -74 q 617 76 556 8 q 715 225 678 144 l 735 211 q 548 -28 660 64 q 304 -121 436 -121 m 671 1046 q 619 1072 649 1046 q 567 1135 589 1099 q 546 1200 546 1171 q 569 1243 546 1232 q 611 1179 588 1207 q 672 1115 635 1151 q 753 1150 719 1132 q 815 1194 786 1168 q 829 1168 829 1186 q 799 1115 829 1143 q 729 1066 768 1086 q 671 1046 690 1046 z "},"Ç":{"ha":742,"x_min":31,"x_max":735,"o":"m 600 -79 q 663 -137 663 -79 q 640 -212 663 -176 q 579 -271 617 -249 q 500 -293 542 -293 q 438 -278 461 -293 q 415 -243 415 -264 q 446 -197 415 -219 q 469 -244 453 -229 q 504 -260 485 -260 q 556 -240 529 -260 q 601 -192 583 -221 q 619 -139 619 -162 q 614 -115 619 -126 q 596 -104 608 -104 q 563 -114 581 -104 q 515 -142 544 -124 q 497 -153 510 -144 q 478 -161 483 -161 q 464 -153 469 -161 q 458 -136 458 -144 q 478 -106 458 -133 q 519 -50 497 -79 q 304 -121 415 -121 q 149 -74 211 -121 q 59 51 88 -26 q 31 218 31 128 q 118 578 31 396 q 339 880 206 761 q 601 999 472 999 q 695 969 661 999 q 729 879 729 940 q 704 754 729 825 q 642 633 679 683 q 568 583 604 583 q 525 615 540 583 q 625 757 576 674 q 674 894 674 840 q 657 940 674 924 q 606 957 640 957 q 400 833 510 957 q 216 528 290 708 q 142 194 142 347 q 190 3 142 81 q 338 -74 239 -74 q 482 -33 408 -74 q 617 76 556 8 q 715 225 678 144 l 735 211 q 581 0 669 83 l 507 -112 q 549 -88 528 -97 q 600 -79 571 -79 z "},"Ĉ":{"ha":742,"x_min":31,"x_max":826,"o":"m 304 -121 q 149 -74 211 -121 q 59 51 88 -26 q 31 218 31 128 q 118 578 31 396 q 339 880 206 761 q 601 999 472 999 q 695 969 661 999 q 729 879 729 940 q 704 754 729 825 q 642 633 679 683 q 568 583 604 583 q 525 615 540 583 q 625 757 576 674 q 674 894 674 840 q 657 940 674 924 q 606 957 640 957 q 400 833 510 957 q 216 528 290 708 q 142 194 142 347 q 190 3 142 81 q 338 -74 239 -74 q 482 -33 408 -74 q 617 76 556 8 q 715 225 678 144 l 735 211 q 548 -28 660 64 q 304 -121 436 -121 m 803 1032 q 761 1096 785 1068 q 700 1160 738 1124 q 619 1125 653 1143 q 557 1081 586 1107 q 543 1107 543 1089 q 574 1160 543 1132 q 643 1209 604 1189 q 701 1229 682 1229 q 753 1203 724 1229 q 805 1140 783 1176 q 826 1075 826 1104 q 803 1032 826 1044 z "},"Ċ":{"ha":742,"x_min":31,"x_max":765,"o":"m 304 -121 q 149 -74 211 -121 q 59 51 88 -26 q 31 218 31 128 q 118 578 31 396 q 339 880 206 761 q 601 999 472 999 q 695 969 661 999 q 729 879 729 940 q 704 754 729 825 q 642 633 679 683 q 568 583 604 583 q 525 615 540 583 q 625 757 576 674 q 674 894 674 840 q 657 940 674 924 q 606 957 640 957 q 400 833 510 957 q 216 528 290 708 q 142 194 142 347 q 190 3 142 81 q 338 -74 239 -74 q 482 -33 408 -74 q 617 76 556 8 q 715 225 678 144 l 735 211 q 548 -28 660 64 q 304 -121 436 -121 m 682 1069 q 642 1081 657 1069 q 626 1115 626 1093 q 656 1164 626 1144 q 717 1183 685 1183 q 765 1138 765 1183 q 739 1090 765 1111 q 682 1069 713 1069 z "},"D":{"ha":907,"x_min":78,"x_max":893,"o":"m 226 -121 q 140 -108 176 -121 q 78 -58 103 -94 q 194 373 114 115 q 318 747 274 631 q 363 835 335 792 q 426 878 390 878 q 465 864 446 878 q 297 400 382 671 q 165 -79 211 129 q 225 -85 199 -85 q 499 22 368 -85 q 710 297 629 129 q 790 635 790 464 q 714 880 790 797 q 506 963 638 963 q 344 927 417 963 q 229 829 271 892 q 188 692 188 767 q 194 640 188 661 q 131 662 151 640 q 111 718 111 683 q 171 849 111 783 q 331 957 231 914 q 547 1000 432 1000 q 808 896 724 1000 q 893 619 893 792 q 795 254 893 425 q 542 -19 697 83 q 226 -121 388 -121 z "},"Ǆ":{"ha":1763,"x_min":78,"x_max":1803,"o":"m 226 -121 q 140 -108 176 -121 q 78 -58 103 -94 q 194 373 114 115 q 318 747 274 631 q 363 835 335 792 q 426 878 390 878 q 465 864 446 878 q 297 400 382 671 q 165 -79 211 129 q 225 -85 199 -85 q 499 22 368 -85 q 710 297 629 129 q 790 635 790 464 q 714 880 790 797 q 506 963 638 963 q 344 927 417 963 q 229 829 271 892 q 188 692 188 767 q 194 640 188 661 q 131 662 151 640 q 111 718 111 683 q 171 849 111 783 q 331 957 231 914 q 547 1000 432 1000 q 808 896 724 1000 q 893 619 893 792 q 795 254 893 425 q 542 -19 697 83 q 226 -121 388 -121 m 1507 -121 q 1381 -95 1450 -121 q 1203 -18 1311 -69 l 1157 3 q 979 -75 1057 -75 q 887 -40 922 -75 q 851 36 851 -6 q 877 88 851 68 q 958 108 903 108 q 1147 72 1025 108 q 1418 446 1269 201 q 1238 431 1335 444 l 1190 424 q 1248 499 1193 478 q 1397 521 1303 521 q 1460 518 1418 521 q 1622 847 1574 721 q 1507 888 1588 856 q 1355 942 1419 922 q 1236 961 1290 961 q 1079 761 1079 961 q 1085 713 1079 731 q 1028 744 1046 719 q 1010 813 1010 769 q 1081 952 1010 904 q 1278 1000 1151 1000 q 1409 988 1347 1000 q 1553 951 1471 975 q 1667 921 1622 931 q 1758 911 1713 911 q 1803 914 1789 911 q 1733 865 1765 882 q 1553 510 1667 706 l 1593 506 q 1700 497 1671 497 q 1667 465 1685 475 q 1618 453 1649 456 q 1517 449 1588 450 q 1214 53 1361 194 q 1415 -6 1338 14 q 1554 -25 1492 -25 q 1653 -3 1610 -25 q 1594 -93 1631 -65 q 1507 -121 1558 -121 m 972 -37 q 1100 28 1024 -37 q 939 72 992 72 q 888 39 888 72 q 912 -12 888 13 q 972 -37 936 -37 m 1494 1047 q 1442 1074 1472 1047 q 1391 1136 1413 1100 q 1369 1201 1369 1172 q 1393 1244 1369 1233 q 1435 1181 1411 1208 q 1496 1117 1458 1153 q 1576 1151 1543 1133 q 1639 1196 1610 1169 q 1653 1169 1653 1188 q 1622 1116 1653 1144 q 1553 1067 1592 1088 q 1494 1047 1514 1047 z "},"Ð":{"ha":908,"x_min":44,"x_max":894,"o":"m 228 -121 q 141 -108 178 -121 q 79 -58 104 -94 q 201 394 114 111 q 44 381 136 394 q 218 446 65 436 q 319 747 275 626 q 364 835 336 792 q 428 878 392 878 q 467 864 447 878 q 313 449 390 688 q 540 436 419 449 q 397 396 485 396 l 296 396 q 167 -79 213 135 q 226 -85 200 -85 q 500 22 369 -85 q 711 297 631 129 q 792 635 792 464 q 715 880 792 797 q 507 963 639 963 q 345 927 418 963 q 231 829 272 892 q 189 692 189 767 q 196 640 189 661 q 133 662 153 640 q 113 718 113 683 q 172 849 113 783 q 333 957 232 914 q 549 1000 433 1000 q 810 896 725 1000 q 894 619 894 792 q 797 254 894 425 q 544 -19 699 83 q 228 -121 389 -121 z "},"Ď":{"ha":907,"x_min":78,"x_max":893,"o":"m 226 -121 q 140 -108 176 -121 q 78 -58 103 -94 q 194 373 114 115 q 318 747 274 631 q 363 835 335 792 q 426 878 390 878 q 465 864 446 878 q 297 400 382 671 q 165 -79 211 129 q 225 -85 199 -85 q 499 22 368 -85 q 710 297 629 129 q 790 635 790 464 q 714 880 790 797 q 506 963 638 963 q 344 927 417 963 q 229 829 271 892 q 188 692 188 767 q 194 640 188 661 q 131 662 151 640 q 111 718 111 683 q 171 849 111 783 q 331 957 231 914 q 547 1000 432 1000 q 808 896 724 1000 q 893 619 893 792 q 795 254 893 425 q 542 -19 697 83 q 226 -121 388 -121 m 674 1047 q 622 1074 651 1047 q 570 1136 592 1100 q 549 1201 549 1172 q 572 1244 549 1233 q 614 1181 590 1208 q 675 1117 638 1153 q 756 1151 722 1133 q 818 1196 789 1169 q 832 1169 832 1188 q 801 1116 832 1144 q 732 1067 771 1088 q 674 1047 693 1047 z "},"Đ":{"ha":908,"x_min":44,"x_max":894,"o":"m 228 -121 q 141 -108 178 -121 q 79 -58 104 -94 q 201 394 114 111 q 44 381 136 394 q 218 446 65 436 q 319 747 275 626 q 364 835 336 792 q 428 878 392 878 q 467 864 447 878 q 313 449 390 688 q 540 436 419 449 q 397 396 485 396 l 296 396 q 167 -79 213 135 q 226 -85 200 -85 q 500 22 369 -85 q 711 297 631 129 q 792 635 792 464 q 715 880 792 797 q 507 963 639 963 q 345 927 418 963 q 231 829 272 892 q 189 692 189 767 q 196 640 189 661 q 133 662 153 640 q 113 718 113 683 q 172 849 113 783 q 333 957 232 914 q 549 1000 433 1000 q 810 896 725 1000 q 894 619 894 792 q 797 254 894 425 q 544 -19 699 83 q 228 -121 389 -121 z "},"ǅ":{"ha":1319,"x_min":78,"x_max":1369,"o":"m 226 -121 q 140 -108 176 -121 q 78 -58 103 -94 q 194 373 114 115 q 318 747 274 631 q 363 835 335 792 q 426 878 390 878 q 465 864 446 878 q 297 400 382 671 q 165 -79 211 129 q 225 -85 199 -85 q 499 22 368 -85 q 710 297 629 129 q 790 635 790 464 q 714 880 790 797 q 506 963 638 963 q 344 927 417 963 q 229 829 271 892 q 188 692 188 767 q 194 640 188 661 q 131 662 151 640 q 111 718 111 683 q 171 849 111 783 q 331 957 231 914 q 547 1000 432 1000 q 808 896 724 1000 q 893 619 893 792 q 795 254 893 425 q 542 -19 697 83 q 226 -121 388 -121 m 872 -389 q 781 -318 781 -389 q 811 -236 781 -275 q 888 -165 842 -197 q 1014 -83 933 -132 q 1121 -17 1072 -50 q 1099 76 1121 35 q 1025 160 1078 118 q 1106 207 1071 172 q 1158 284 1140 242 q 1176 364 1176 326 q 1163 417 1176 396 q 1122 438 1149 438 q 1044 406 1079 438 q 981 324 1008 374 q 911 186 953 275 l 894 200 q 963 357 931 296 q 1038 454 994 418 q 1142 490 1082 490 q 1224 459 1190 490 q 1257 376 1257 428 q 1210 247 1257 306 q 1093 154 1163 189 q 1190 29 1165 99 q 1344 225 1310 119 l 1360 208 q 1199 3 1325 99 q 1204 -43 1204 -15 q 1156 -206 1204 -125 q 1031 -338 1108 -287 q 872 -389 954 -389 m 863 -349 q 958 -311 900 -349 q 1064 -206 1017 -274 q 1119 -49 1111 -137 q 1028 -104 1058 -87 q 913 -176 953 -149 q 847 -236 874 -204 q 819 -303 819 -268 q 831 -337 819 -326 q 863 -349 843 -349 m 1211 590 q 1159 617 1189 590 q 1108 679 1129 643 q 1086 744 1086 715 q 1110 788 1086 776 q 1151 724 1128 751 q 1213 660 1175 696 q 1293 694 1260 676 q 1356 739 1326 713 q 1369 713 1369 731 q 1339 659 1369 688 q 1269 610 1308 631 q 1211 590 1231 590 z "},"E":{"ha":692,"x_min":-21,"x_max":683,"o":"m 250 -121 q 108 -87 169 -121 q 13 5 46 -53 q -21 132 -21 63 q 28 296 -21 217 q 159 428 76 375 q 339 492 242 482 q 260 592 286 535 q 233 711 233 650 q 271 851 233 785 q 374 958 308 918 q 519 999 439 999 q 637 960 596 999 q 678 849 678 921 q 660 750 678 799 q 615 670 642 701 q 567 639 589 639 q 538 651 551 639 q 515 683 524 664 q 632 876 632 785 q 607 943 632 919 q 533 967 582 967 q 388 887 440 967 q 335 688 335 807 q 415 478 335 547 q 256 408 326 463 q 147 278 186 354 q 108 128 108 203 q 152 -12 108 49 q 286 -74 196 -74 q 431 -33 357 -74 q 565 76 504 8 q 664 225 626 144 l 683 211 q 494 -30 606 61 q 250 -121 383 -121 z "},"É":{"ha":692,"x_min":-21,"x_max":742,"o":"m 250 -121 q 108 -87 169 -121 q 13 5 46 -53 q -21 132 -21 63 q 28 296 -21 217 q 159 428 76 375 q 339 492 242 482 q 260 592 286 535 q 233 711 233 650 q 271 851 233 785 q 374 958 308 918 q 519 999 439 999 q 637 960 596 999 q 678 849 678 921 q 660 750 678 799 q 615 670 642 701 q 567 639 589 639 q 538 651 551 639 q 515 683 524 664 q 632 876 632 785 q 607 943 632 919 q 533 967 582 967 q 388 887 440 967 q 335 688 335 807 q 415 478 335 547 q 256 408 326 463 q 147 278 186 354 q 108 128 108 203 q 152 -12 108 49 q 286 -74 196 -74 q 431 -33 357 -74 q 565 76 504 8 q 664 225 626 144 l 683 211 q 494 -30 606 61 q 250 -121 383 -121 m 586 1039 q 572 1055 576 1043 q 567 1075 567 1067 q 592 1134 567 1092 q 652 1210 618 1176 q 711 1243 686 1243 q 742 1200 738 1243 q 586 1039 639 1111 z "},"Ĕ":{"ha":692,"x_min":-21,"x_max":778,"o":"m 250 -121 q 108 -87 169 -121 q 13 5 46 -53 q -21 132 -21 63 q 28 296 -21 217 q 159 428 76 375 q 339 492 242 482 q 260 592 286 535 q 233 711 233 650 q 271 851 233 785 q 374 958 308 918 q 519 999 439 999 q 637 960 596 999 q 678 849 678 921 q 660 750 678 799 q 615 670 642 701 q 567 639 589 639 q 538 651 551 639 q 515 683 524 664 q 632 876 632 785 q 607 943 632 919 q 533 967 582 967 q 388 887 440 967 q 335 688 335 807 q 415 478 335 547 q 256 408 326 463 q 147 278 186 354 q 108 128 108 203 q 152 -12 108 49 q 286 -74 196 -74 q 431 -33 357 -74 q 565 76 504 8 q 664 225 626 144 l 683 211 q 494 -30 606 61 q 250 -121 383 -121 m 628 1053 q 547 1073 579 1053 q 499 1123 514 1093 q 485 1181 485 1153 q 518 1249 485 1226 q 550 1159 522 1196 q 631 1122 578 1122 q 764 1206 717 1122 q 778 1164 778 1192 q 733 1085 778 1118 q 628 1053 688 1053 z "},"Ě":{"ha":692,"x_min":-21,"x_max":740,"o":"m 250 -121 q 108 -87 169 -121 q 13 5 46 -53 q -21 132 -21 63 q 28 296 -21 217 q 159 428 76 375 q 339 492 242 482 q 260 592 286 535 q 233 711 233 650 q 271 851 233 785 q 374 958 308 918 q 519 999 439 999 q 637 960 596 999 q 678 849 678 921 q 660 750 678 799 q 615 670 642 701 q 567 639 589 639 q 538 651 551 639 q 515 683 524 664 q 632 876 632 785 q 607 943 632 919 q 533 967 582 967 q 388 887 440 967 q 335 688 335 807 q 415 478 335 547 q 256 408 326 463 q 147 278 186 354 q 108 128 108 203 q 152 -12 108 49 q 286 -74 196 -74 q 431 -33 357 -74 q 565 76 504 8 q 664 225 626 144 l 683 211 q 494 -30 606 61 q 250 -121 383 -121 m 582 1047 q 530 1074 560 1047 q 478 1136 500 1100 q 457 1201 457 1172 q 481 1244 457 1233 q 522 1181 499 1208 q 583 1117 546 1153 q 664 1151 631 1133 q 726 1196 697 1169 q 740 1169 740 1188 q 710 1116 740 1144 q 640 1067 679 1088 q 582 1047 601 1047 z "},"Ê":{"ha":692,"x_min":-21,"x_max":738,"o":"m 250 -121 q 108 -87 169 -121 q 13 5 46 -53 q -21 132 -21 63 q 28 296 -21 217 q 159 428 76 375 q 339 492 242 482 q 260 592 286 535 q 233 711 233 650 q 271 851 233 785 q 374 958 308 918 q 519 999 439 999 q 637 960 596 999 q 678 849 678 921 q 660 750 678 799 q 615 670 642 701 q 567 639 589 639 q 538 651 551 639 q 515 683 524 664 q 632 876 632 785 q 607 943 632 919 q 533 967 582 967 q 388 887 440 967 q 335 688 335 807 q 415 478 335 547 q 256 408 326 463 q 147 278 186 354 q 108 128 108 203 q 152 -12 108 49 q 286 -74 196 -74 q 431 -33 357 -74 q 565 76 504 8 q 664 225 626 144 l 683 211 q 494 -30 606 61 q 250 -121 383 -121 m 714 1033 q 672 1097 696 1069 q 611 1161 649 1125 q 531 1126 564 1144 q 468 1082 497 1108 q 454 1108 454 1090 q 485 1162 454 1133 q 554 1210 515 1190 q 613 1231 593 1231 q 665 1204 635 1231 q 716 1142 694 1178 q 738 1076 738 1106 q 714 1033 738 1046 z "},"Ế":{"ha":692,"x_min":-21,"x_max":889,"o":"m 250 -121 q 108 -87 169 -121 q 13 5 46 -53 q -21 132 -21 63 q 28 296 -21 217 q 159 428 76 375 q 339 492 242 482 q 260 592 286 535 q 233 711 233 650 q 271 851 233 785 q 374 958 308 918 q 519 999 439 999 q 637 960 596 999 q 678 849 678 921 q 660 750 678 799 q 615 670 642 701 q 567 639 589 639 q 538 651 551 639 q 515 683 524 664 q 632 876 632 785 q 607 943 632 919 q 533 967 582 967 q 388 887 440 967 q 335 688 335 807 q 415 478 335 547 q 256 408 326 463 q 147 278 186 354 q 108 128 108 203 q 152 -12 108 49 q 286 -74 196 -74 q 431 -33 357 -74 q 565 76 504 8 q 664 225 626 144 l 683 211 q 494 -30 606 61 q 250 -121 383 -121 m 761 1165 q 740 1182 747 1171 q 733 1206 733 1193 q 755 1257 733 1224 q 806 1316 776 1290 q 858 1342 836 1342 q 889 1299 885 1342 q 761 1165 804 1222 m 714 1033 q 672 1097 696 1069 q 611 1161 649 1125 q 531 1126 564 1144 q 468 1082 497 1108 q 454 1108 454 1090 q 485 1162 454 1133 q 554 1210 515 1190 q 613 1231 593 1231 q 665 1204 635 1231 q 716 1142 694 1178 q 738 1076 738 1106 q 714 1033 738 1046 z "},"Ệ":{"ha":692,"x_min":-21,"x_max":738,"o":"m 250 -121 q 108 -87 169 -121 q 13 5 46 -53 q -21 132 -21 63 q 28 296 -21 217 q 159 428 76 375 q 339 492 242 482 q 260 592 286 535 q 233 711 233 650 q 271 851 233 785 q 374 958 308 918 q 519 999 439 999 q 637 960 596 999 q 678 849 678 921 q 660 750 678 799 q 615 670 642 701 q 567 639 589 639 q 538 651 551 639 q 515 683 524 664 q 632 876 632 785 q 607 943 632 919 q 533 967 582 967 q 388 887 440 967 q 335 688 335 807 q 415 478 335 547 q 256 408 326 463 q 147 278 186 354 q 108 128 108 203 q 152 -12 108 49 q 286 -74 196 -74 q 431 -33 357 -74 q 565 76 504 8 q 664 225 626 144 l 683 211 q 494 -30 606 61 q 250 -121 383 -121 m 714 1033 q 672 1097 696 1069 q 611 1161 649 1125 q 531 1126 564 1144 q 468 1082 497 1108 q 454 1108 454 1090 q 485 1162 454 1133 q 554 1210 515 1190 q 613 1231 593 1231 q 665 1204 635 1231 q 716 1142 694 1178 q 738 1076 738 1106 q 714 1033 738 1046 m 199 -362 q 158 -351 174 -362 q 143 -317 143 -339 q 172 -268 143 -287 q 233 -249 201 -249 q 282 -294 282 -249 q 256 -342 282 -321 q 199 -362 229 -362 z "},"Ề":{"ha":692,"x_min":-21,"x_max":814,"o":"m 250 -121 q 108 -87 169 -121 q 13 5 46 -53 q -21 132 -21 63 q 28 296 -21 217 q 159 428 76 375 q 339 492 242 482 q 260 592 286 535 q 233 711 233 650 q 271 851 233 785 q 374 958 308 918 q 519 999 439 999 q 637 960 596 999 q 678 849 678 921 q 660 750 678 799 q 615 670 642 701 q 567 639 589 639 q 538 651 551 639 q 515 683 524 664 q 632 876 632 785 q 607 943 632 919 q 533 967 582 967 q 388 887 440 967 q 335 688 335 807 q 415 478 335 547 q 256 408 326 463 q 147 278 186 354 q 108 128 108 203 q 152 -12 108 49 q 286 -74 196 -74 q 431 -33 357 -74 q 565 76 504 8 q 664 225 626 144 l 683 211 q 494 -30 606 61 q 250 -121 383 -121 m 785 1163 q 675 1310 751 1222 q 710 1349 681 1349 q 755 1322 731 1349 q 797 1260 779 1296 q 814 1204 814 1225 q 785 1163 814 1174 m 714 1033 q 672 1097 696 1069 q 611 1161 649 1125 q 531 1126 564 1144 q 468 1082 497 1108 q 454 1108 454 1090 q 485 1162 454 1133 q 554 1210 515 1190 q 613 1231 593 1231 q 665 1204 635 1231 q 716 1142 694 1178 q 738 1076 738 1106 q 714 1033 738 1046 z "},"Ể":{"ha":692,"x_min":-21,"x_max":881,"o":"m 250 -121 q 108 -87 169 -121 q 13 5 46 -53 q -21 132 -21 63 q 28 296 -21 217 q 159 428 76 375 q 339 492 242 482 q 260 592 286 535 q 233 711 233 650 q 271 851 233 785 q 374 958 308 918 q 519 999 439 999 q 637 960 596 999 q 678 849 678 921 q 660 750 678 799 q 615 670 642 701 q 567 639 589 639 q 538 651 551 639 q 515 683 524 664 q 632 876 632 785 q 607 943 632 919 q 533 967 582 967 q 388 887 440 967 q 335 688 335 807 q 415 478 335 547 q 256 408 326 463 q 147 278 186 354 q 108 128 108 203 q 152 -12 108 49 q 286 -74 196 -74 q 431 -33 357 -74 q 565 76 504 8 q 664 225 626 144 l 683 211 q 494 -30 606 61 q 250 -121 383 -121 m 799 1151 q 756 1167 771 1151 q 811 1185 788 1169 q 835 1228 835 1200 q 706 1290 835 1290 q 724 1335 706 1317 q 772 1354 742 1354 q 850 1321 819 1354 q 881 1238 881 1288 q 858 1175 881 1199 q 799 1151 835 1151 m 714 1033 q 672 1097 696 1069 q 611 1161 649 1125 q 531 1126 564 1144 q 468 1082 497 1108 q 454 1108 454 1090 q 485 1162 454 1133 q 554 1210 515 1190 q 613 1231 593 1231 q 665 1204 635 1231 q 716 1142 694 1178 q 738 1076 738 1106 q 714 1033 738 1046 z "},"Ễ":{"ha":692,"x_min":-21,"x_max":886,"o":"m 250 -121 q 108 -87 169 -121 q 13 5 46 -53 q -21 132 -21 63 q 28 296 -21 217 q 159 428 76 375 q 339 492 242 482 q 260 592 286 535 q 233 711 233 650 q 271 851 233 785 q 374 958 308 918 q 519 999 439 999 q 637 960 596 999 q 678 849 678 921 q 660 750 678 799 q 615 670 642 701 q 567 639 589 639 q 538 651 551 639 q 515 683 524 664 q 632 876 632 785 q 607 943 632 919 q 533 967 582 967 q 388 887 440 967 q 335 688 335 807 q 415 478 335 547 q 256 408 326 463 q 147 278 186 354 q 108 128 108 203 q 152 -12 108 49 q 286 -74 196 -74 q 431 -33 357 -74 q 565 76 504 8 q 664 225 626 144 l 683 211 q 494 -30 606 61 q 250 -121 383 -121 m 628 1053 q 547 1073 579 1053 q 499 1123 514 1093 q 485 1181 485 1153 q 518 1249 485 1226 q 550 1159 522 1196 q 631 1122 578 1122 q 764 1206 717 1122 q 778 1164 778 1192 q 733 1085 778 1118 q 628 1053 688 1053 m 772 1236 q 722 1244 747 1236 q 657 1267 696 1251 q 588 1292 617 1283 q 529 1300 558 1300 q 454 1279 486 1300 q 575 1349 504 1349 q 626 1341 600 1349 q 689 1318 653 1333 q 774 1290 743 1299 q 839 1282 804 1282 q 886 1293 861 1282 q 772 1236 840 1236 z "},"Ȅ":{"ha":692,"x_min":-21,"x_max":683,"o":"m 250 -121 q 108 -87 169 -121 q 13 5 46 -53 q -21 132 -21 63 q 28 296 -21 217 q 159 428 76 375 q 339 492 242 482 q 260 592 286 535 q 233 711 233 650 q 271 851 233 785 q 374 958 308 918 q 519 999 439 999 q 637 960 596 999 q 678 849 678 921 q 660 750 678 799 q 615 670 642 701 q 567 639 589 639 q 538 651 551 639 q 515 683 524 664 q 632 876 632 785 q 607 943 632 919 q 533 967 582 967 q 388 887 440 967 q 335 688 335 807 q 415 478 335 547 q 256 408 326 463 q 147 278 186 354 q 108 128 108 203 q 152 -12 108 49 q 286 -74 196 -74 q 431 -33 357 -74 q 565 76 504 8 q 664 225 626 144 l 683 211 q 494 -30 606 61 q 250 -121 383 -121 m 644 1044 q 544 1201 600 1129 q 581 1236 558 1236 q 624 1208 603 1236 q 659 1144 646 1181 q 672 1086 672 1108 q 644 1044 672 1050 m 553 1038 q 419 1210 490 1125 q 460 1233 440 1233 q 507 1202 482 1233 q 550 1131 532 1171 q 568 1069 568 1090 q 553 1038 568 1049 z "},"Ë":{"ha":692,"x_min":-21,"x_max":771,"o":"m 250 -121 q 108 -87 169 -121 q 13 5 46 -53 q -21 132 -21 63 q 28 296 -21 217 q 159 428 76 375 q 339 492 242 482 q 260 592 286 535 q 233 711 233 650 q 271 851 233 785 q 374 958 308 918 q 519 999 439 999 q 637 960 596 999 q 678 849 678 921 q 660 750 678 799 q 615 670 642 701 q 567 639 589 639 q 538 651 551 639 q 515 683 524 664 q 632 876 632 785 q 607 943 632 919 q 533 967 582 967 q 388 887 440 967 q 335 688 335 807 q 415 478 335 547 q 256 408 326 463 q 147 278 186 354 q 108 128 108 203 q 152 -12 108 49 q 286 -74 196 -74 q 431 -33 357 -74 q 565 76 504 8 q 664 225 626 144 l 683 211 q 494 -30 606 61 q 250 -121 383 -121 m 489 1075 q 452 1085 467 1075 q 438 1117 438 1096 q 467 1162 438 1142 q 529 1182 497 1182 q 571 1143 571 1182 q 545 1097 571 1119 q 489 1075 519 1075 m 689 1046 q 652 1056 667 1046 q 638 1088 638 1067 q 667 1133 638 1113 q 729 1153 697 1153 q 771 1114 771 1153 q 745 1068 771 1090 q 689 1046 719 1046 z "},"Ė":{"ha":692,"x_min":-21,"x_max":683,"o":"m 250 -121 q 108 -87 169 -121 q 13 5 46 -53 q -21 132 -21 63 q 28 296 -21 217 q 159 428 76 375 q 339 492 242 482 q 260 592 286 535 q 233 711 233 650 q 271 851 233 785 q 374 958 308 918 q 519 999 439 999 q 637 960 596 999 q 678 849 678 921 q 660 750 678 799 q 615 670 642 701 q 567 639 589 639 q 538 651 551 639 q 515 683 524 664 q 632 876 632 785 q 607 943 632 919 q 533 967 582 967 q 388 887 440 967 q 335 688 335 807 q 415 478 335 547 q 256 408 326 463 q 147 278 186 354 q 108 128 108 203 q 152 -12 108 49 q 286 -74 196 -74 q 431 -33 357 -74 q 565 76 504 8 q 664 225 626 144 l 683 211 q 494 -30 606 61 q 250 -121 383 -121 m 593 1071 q 553 1083 568 1071 q 538 1117 538 1094 q 567 1165 538 1146 q 628 1185 596 1185 q 676 1139 676 1185 q 650 1092 676 1113 q 593 1071 624 1071 z "},"Ẹ":{"ha":692,"x_min":-21,"x_max":683,"o":"m 250 -121 q 108 -87 169 -121 q 13 5 46 -53 q -21 132 -21 63 q 28 296 -21 217 q 159 428 76 375 q 339 492 242 482 q 260 592 286 535 q 233 711 233 650 q 271 851 233 785 q 374 958 308 918 q 519 999 439 999 q 637 960 596 999 q 678 849 678 921 q 660 750 678 799 q 615 670 642 701 q 567 639 589 639 q 538 651 551 639 q 515 683 524 664 q 632 876 632 785 q 607 943 632 919 q 533 967 582 967 q 388 887 440 967 q 335 688 335 807 q 415 478 335 547 q 256 408 326 463 q 147 278 186 354 q 108 128 108 203 q 152 -12 108 49 q 286 -74 196 -74 q 431 -33 357 -74 q 565 76 504 8 q 664 225 626 144 l 683 211 q 494 -30 606 61 q 250 -121 383 -121 m 199 -362 q 158 -351 174 -362 q 143 -317 143 -339 q 172 -268 143 -287 q 233 -249 201 -249 q 282 -294 282 -249 q 256 -342 282 -321 q 199 -362 229 -362 z "},"È":{"ha":692,"x_min":-21,"x_max":683,"o":"m 250 -121 q 108 -87 169 -121 q 13 5 46 -53 q -21 132 -21 63 q 28 296 -21 217 q 159 428 76 375 q 339 492 242 482 q 260 592 286 535 q 233 711 233 650 q 271 851 233 785 q 374 958 308 918 q 519 999 439 999 q 637 960 596 999 q 678 849 678 921 q 660 750 678 799 q 615 670 642 701 q 567 639 589 639 q 538 651 551 639 q 515 683 524 664 q 632 876 632 785 q 607 943 632 919 q 533 967 582 967 q 388 887 440 967 q 335 688 335 807 q 415 478 335 547 q 256 408 326 463 q 147 278 186 354 q 108 128 108 203 q 152 -12 108 49 q 286 -74 196 -74 q 431 -33 357 -74 q 565 76 504 8 q 664 225 626 144 l 683 211 q 494 -30 606 61 q 250 -121 383 -121 m 583 1039 q 428 1200 531 1111 q 458 1243 432 1243 q 517 1210 483 1243 q 577 1134 551 1176 q 603 1075 603 1092 q 598 1055 603 1067 q 583 1039 593 1043 z "},"Ẻ":{"ha":692,"x_min":-21,"x_max":719,"o":"m 250 -121 q 108 -87 169 -121 q 13 5 46 -53 q -21 132 -21 63 q 28 296 -21 217 q 159 428 76 375 q 339 492 242 482 q 260 592 286 535 q 233 711 233 650 q 271 851 233 785 q 374 958 308 918 q 519 999 439 999 q 637 960 596 999 q 678 849 678 921 q 660 750 678 799 q 615 670 642 701 q 567 639 589 639 q 538 651 551 639 q 515 683 524 664 q 632 876 632 785 q 607 943 632 919 q 533 967 582 967 q 388 887 440 967 q 335 688 335 807 q 415 478 335 547 q 256 408 326 463 q 147 278 186 354 q 108 128 108 203 q 152 -12 108 49 q 286 -74 196 -74 q 431 -33 357 -74 q 565 76 504 8 q 664 225 626 144 l 683 211 q 494 -30 606 61 q 250 -121 383 -121 m 625 1042 q 578 1057 596 1042 q 647 1076 619 1060 q 674 1124 674 1092 q 642 1169 674 1156 q 544 1183 610 1183 q 563 1228 544 1210 q 611 1247 581 1247 q 689 1217 658 1247 q 719 1140 719 1186 q 693 1069 719 1097 q 625 1042 667 1042 z "},"Ȇ":{"ha":692,"x_min":-21,"x_max":760,"o":"m 250 -121 q 108 -87 169 -121 q 13 5 46 -53 q -21 132 -21 63 q 28 296 -21 217 q 159 428 76 375 q 339 492 242 482 q 260 592 286 535 q 233 711 233 650 q 271 851 233 785 q 374 958 308 918 q 519 999 439 999 q 637 960 596 999 q 678 849 678 921 q 660 750 678 799 q 615 670 642 701 q 567 639 589 639 q 538 651 551 639 q 515 683 524 664 q 632 876 632 785 q 607 943 632 919 q 533 967 582 967 q 388 887 440 967 q 335 688 335 807 q 415 478 335 547 q 256 408 326 463 q 147 278 186 354 q 108 128 108 203 q 152 -12 108 49 q 286 -74 196 -74 q 431 -33 357 -74 q 565 76 504 8 q 664 225 626 144 l 683 211 q 494 -30 606 61 q 250 -121 383 -121 m 726 1011 q 692 1101 722 1065 q 603 1138 663 1138 q 481 1054 525 1138 q 467 1096 467 1069 q 510 1175 467 1143 q 615 1207 553 1207 q 695 1188 663 1207 q 744 1140 728 1168 q 760 1086 760 1113 q 726 1011 760 1036 z "},"Ē":{"ha":692,"x_min":-21,"x_max":789,"o":"m 250 -121 q 108 -87 169 -121 q 13 5 46 -53 q -21 132 -21 63 q 28 296 -21 217 q 159 428 76 375 q 339 492 242 482 q 260 592 286 535 q 233 711 233 650 q 271 851 233 785 q 374 958 308 918 q 519 999 439 999 q 637 960 596 999 q 678 849 678 921 q 660 750 678 799 q 615 670 642 701 q 567 639 589 639 q 538 651 551 639 q 515 683 524 664 q 632 876 632 785 q 607 943 632 919 q 533 967 582 967 q 388 887 440 967 q 335 688 335 807 q 415 478 335 547 q 256 408 326 463 q 147 278 186 354 q 108 128 108 203 q 152 -12 108 49 q 286 -74 196 -74 q 431 -33 357 -74 q 565 76 504 8 q 664 225 626 144 l 683 211 q 494 -30 606 61 q 250 -121 383 -121 m 736 1050 q 646 1060 704 1050 q 531 1082 588 1069 q 390 1107 421 1104 q 454 1143 404 1143 q 789 1078 568 1143 q 736 1050 769 1050 z "},"Ę":{"ha":692,"x_min":-21,"x_max":683,"o":"m 433 -121 q 451 -165 433 -147 q 501 -182 469 -182 q 571 -158 539 -182 q 544 -219 569 -197 q 479 -242 519 -242 q 410 -215 436 -242 q 383 -147 383 -189 q 401 -87 383 -115 q 250 -121 326 -121 q 108 -87 169 -121 q 13 5 46 -53 q -21 132 -21 63 q 28 296 -21 217 q 159 428 76 375 q 339 492 242 482 q 260 592 286 535 q 233 711 233 650 q 271 851 233 785 q 374 958 308 918 q 519 999 439 999 q 637 960 596 999 q 678 849 678 921 q 660 750 678 799 q 615 670 642 701 q 567 639 589 639 q 538 651 551 639 q 515 683 524 664 q 632 876 632 785 q 607 943 632 919 q 533 967 582 967 q 388 887 440 967 q 335 688 335 807 q 415 478 335 547 q 256 408 326 463 q 147 278 186 354 q 108 128 108 203 q 152 -12 108 49 q 286 -74 196 -74 q 431 -33 357 -74 q 565 76 504 8 q 664 225 626 144 l 683 211 q 483 -39 597 46 q 433 -121 433 -74 z "},"Ẽ":{"ha":692,"x_min":-21,"x_max":819,"o":"m 250 -121 q 108 -87 169 -121 q 13 5 46 -53 q -21 132 -21 63 q 28 296 -21 217 q 159 428 76 375 q 339 492 242 482 q 260 592 286 535 q 233 711 233 650 q 271 851 233 785 q 374 958 308 918 q 519 999 439 999 q 637 960 596 999 q 678 849 678 921 q 660 750 678 799 q 615 670 642 701 q 567 639 589 639 q 538 651 551 639 q 515 683 524 664 q 632 876 632 785 q 607 943 632 919 q 533 967 582 967 q 388 887 440 967 q 335 688 335 807 q 415 478 335 547 q 256 408 326 463 q 147 278 186 354 q 108 128 108 203 q 152 -12 108 49 q 286 -74 196 -74 q 431 -33 357 -74 q 565 76 504 8 q 664 225 626 144 l 683 211 q 494 -30 606 61 q 250 -121 383 -121 m 706 1057 q 655 1065 681 1057 q 590 1088 629 1072 q 521 1113 550 1104 q 463 1121 492 1121 q 388 1100 419 1121 q 508 1169 438 1169 q 560 1162 533 1169 q 622 1139 586 1154 q 707 1111 676 1119 q 772 1103 738 1103 q 819 1114 794 1103 q 706 1057 774 1057 z "},"F":{"ha":669,"x_min":92,"x_max":853,"o":"m 211 -121 q 135 -90 153 -117 q 117 -11 117 -64 q 144 136 117 47 q 231 385 172 225 q 253 443 239 404 q 146 431 218 440 l 99 424 q 281 521 104 515 q 442 917 371 769 q 388 919 406 919 q 251 901 299 919 q 184 847 203 883 q 165 750 165 811 q 183 640 165 693 q 92 749 92 656 q 142 875 92 819 q 281 962 193 931 q 474 993 368 993 q 619 982 525 993 q 675 976 633 981 q 750 972 717 972 q 853 986 806 972 q 769 910 804 931 q 696 889 735 889 q 601 899 669 889 q 499 913 567 906 q 365 519 460 818 q 490 507 432 515 q 608 497 578 499 q 572 466 593 475 q 505 454 550 457 q 344 449 460 451 l 283 242 q 211 -121 214 8 z "},"G":{"ha":769,"x_min":31,"x_max":746,"o":"m 290 -121 q 158 -80 217 -121 q 65 40 99 -39 q 31 224 31 118 q 118 579 31 397 q 340 880 206 761 q 601 999 474 999 q 710 954 675 999 q 746 842 746 910 q 729 746 746 793 q 684 669 713 699 q 624 639 656 639 q 581 671 596 639 q 627 722 601 685 q 671 804 653 760 q 689 883 689 849 q 669 937 689 917 q 606 957 649 957 q 400 832 510 957 q 216 526 290 707 q 142 196 142 346 q 194 -1 142 72 q 328 -74 246 -74 q 458 -8 397 -74 q 559 156 519 57 q 606 347 599 254 q 463 365 525 365 l 378 364 q 472 436 394 436 q 540 426 506 436 q 633 396 574 417 q 707 371 668 381 l 697 326 q 631 122 649 199 q 613 -12 613 44 q 615 -76 613 -35 q 618 -121 618 -104 q 543 -21 543 -92 q 553 43 543 10 q 290 -121 435 -121 z "},"Ğ":{"ha":769,"x_min":31,"x_max":876,"o":"m 290 -121 q 158 -80 217 -121 q 65 40 99 -39 q 31 224 31 118 q 118 579 31 397 q 340 880 206 761 q 601 999 474 999 q 710 954 675 999 q 746 842 746 910 q 729 746 746 793 q 684 669 713 699 q 624 639 656 639 q 581 671 596 639 q 627 722 601 685 q 671 804 653 760 q 689 883 689 849 q 669 937 689 917 q 606 957 649 957 q 400 832 510 957 q 216 526 290 707 q 142 196 142 346 q 194 -1 142 72 q 328 -74 246 -74 q 458 -8 397 -74 q 559 156 519 57 q 606 347 599 254 q 463 365 525 365 l 378 364 q 472 436 394 436 q 540 426 506 436 q 633 396 574 417 q 707 371 668 381 l 697 326 q 631 122 649 199 q 613 -12 613 44 q 615 -76 613 -35 q 618 -121 618 -104 q 543 -21 543 -92 q 553 43 543 10 q 290 -121 435 -121 m 726 1053 q 645 1073 678 1053 q 598 1123 613 1093 q 583 1181 583 1153 q 617 1249 583 1226 q 649 1159 621 1196 q 729 1122 676 1122 q 863 1206 815 1122 q 876 1164 876 1192 q 831 1085 876 1118 q 726 1053 786 1053 z "},"Ǧ":{"ha":769,"x_min":31,"x_max":839,"o":"m 290 -121 q 158 -80 217 -121 q 65 40 99 -39 q 31 224 31 118 q 118 579 31 397 q 340 880 206 761 q 601 999 474 999 q 710 954 675 999 q 746 842 746 910 q 729 746 746 793 q 684 669 713 699 q 624 639 656 639 q 581 671 596 639 q 627 722 601 685 q 671 804 653 760 q 689 883 689 849 q 669 937 689 917 q 606 957 649 957 q 400 832 510 957 q 216 526 290 707 q 142 196 142 346 q 194 -1 142 72 q 328 -74 246 -74 q 458 -8 397 -74 q 559 156 519 57 q 606 347 599 254 q 463 365 525 365 l 378 364 q 472 436 394 436 q 540 426 506 436 q 633 396 574 417 q 707 371 668 381 l 697 326 q 631 122 649 199 q 613 -12 613 44 q 615 -76 613 -35 q 618 -121 618 -104 q 543 -21 543 -92 q 553 43 543 10 q 290 -121 435 -121 m 681 1047 q 628 1074 658 1047 q 577 1136 599 1100 q 556 1201 556 1172 q 579 1244 556 1233 q 621 1181 597 1208 q 682 1117 644 1153 q 763 1151 729 1133 q 825 1196 796 1169 q 839 1169 839 1188 q 808 1116 839 1144 q 739 1067 778 1088 q 681 1047 700 1047 z "},"Ĝ":{"ha":769,"x_min":31,"x_max":836,"o":"m 290 -121 q 158 -80 217 -121 q 65 40 99 -39 q 31 224 31 118 q 118 579 31 397 q 340 880 206 761 q 601 999 474 999 q 710 954 675 999 q 746 842 746 910 q 729 746 746 793 q 684 669 713 699 q 624 639 656 639 q 581 671 596 639 q 627 722 601 685 q 671 804 653 760 q 689 883 689 849 q 669 937 689 917 q 606 957 649 957 q 400 832 510 957 q 216 526 290 707 q 142 196 142 346 q 194 -1 142 72 q 328 -74 246 -74 q 458 -8 397 -74 q 559 156 519 57 q 606 347 599 254 q 463 365 525 365 l 378 364 q 472 436 394 436 q 540 426 506 436 q 633 396 574 417 q 707 371 668 381 l 697 326 q 631 122 649 199 q 613 -12 613 44 q 615 -76 613 -35 q 618 -121 618 -104 q 543 -21 543 -92 q 553 43 543 10 q 290 -121 435 -121 m 813 1033 q 771 1097 794 1069 q 710 1161 747 1125 q 629 1126 663 1144 q 567 1082 596 1108 q 553 1108 553 1090 q 583 1162 553 1133 q 653 1210 614 1190 q 711 1231 692 1231 q 763 1204 733 1231 q 815 1142 793 1178 q 836 1076 836 1106 q 813 1033 836 1046 z "},"Ģ":{"ha":769,"x_min":31,"x_max":746,"o":"m 290 -121 q 158 -80 217 -121 q 65 40 99 -39 q 31 224 31 118 q 118 579 31 397 q 340 880 206 761 q 601 999 474 999 q 710 954 675 999 q 746 842 746 910 q 729 746 746 793 q 684 669 713 699 q 624 639 656 639 q 581 671 596 639 q 627 722 601 685 q 671 804 653 760 q 689 883 689 849 q 669 937 689 917 q 606 957 649 957 q 400 832 510 957 q 216 526 290 707 q 142 196 142 346 q 194 -1 142 72 q 328 -74 246 -74 q 458 -8 397 -74 q 559 156 519 57 q 606 347 599 254 q 463 365 525 365 l 378 364 q 472 436 394 436 q 540 426 506 436 q 633 396 574 417 q 707 371 668 381 l 697 326 q 631 122 649 199 q 613 -12 613 44 q 615 -76 613 -35 q 618 -121 618 -104 q 543 -21 543 -92 q 553 43 543 10 q 290 -121 435 -121 m 235 -379 q 211 -328 211 -365 q 239 -231 211 -282 q 296 -179 267 -179 q 320 -191 310 -179 q 331 -218 331 -203 q 283 -280 301 -249 q 253 -340 265 -311 q 235 -379 240 -368 z "},"Ġ":{"ha":769,"x_min":31,"x_max":775,"o":"m 290 -121 q 158 -80 217 -121 q 65 40 99 -39 q 31 224 31 118 q 118 579 31 397 q 340 880 206 761 q 601 999 474 999 q 710 954 675 999 q 746 842 746 910 q 729 746 746 793 q 684 669 713 699 q 624 639 656 639 q 581 671 596 639 q 627 722 601 685 q 671 804 653 760 q 689 883 689 849 q 669 937 689 917 q 606 957 649 957 q 400 832 510 957 q 216 526 290 707 q 142 196 142 346 q 194 -1 142 72 q 328 -74 246 -74 q 458 -8 397 -74 q 559 156 519 57 q 606 347 599 254 q 463 365 525 365 l 378 364 q 472 436 394 436 q 540 426 506 436 q 633 396 574 417 q 707 371 668 381 l 697 326 q 631 122 649 199 q 613 -12 613 44 q 615 -76 613 -35 q 618 -121 618 -104 q 543 -21 543 -92 q 553 43 543 10 q 290 -121 435 -121 m 692 1071 q 651 1083 667 1071 q 636 1117 636 1094 q 665 1165 636 1146 q 726 1185 694 1185 q 775 1139 775 1185 q 749 1092 775 1113 q 692 1071 722 1071 z "},"H":{"ha":857,"x_min":76,"x_max":878,"o":"m 76 -121 q 126 100 94 -19 q 229 436 158 219 l 138 426 q 253 511 139 488 q 371 860 304 668 q 381 890 372 864 q 390 942 390 917 q 387 957 390 953 q 371 961 383 961 q 288 917 328 961 q 224 810 249 872 q 199 700 199 747 q 206 653 199 674 q 142 674 163 653 q 122 732 122 696 q 169 855 122 792 q 282 959 215 918 q 400 1000 349 1000 q 449 981 435 1000 q 464 933 464 963 q 453 874 464 910 l 344 521 q 425 524 394 524 q 661 511 533 524 q 744 772 704 654 q 801 928 783 890 q 878 1000 835 1000 q 810 790 850 926 q 732 506 771 654 q 776 503 746 506 q 836 500 818 500 q 782 463 808 471 q 719 456 756 456 q 676 265 690 336 q 631 -71 631 47 q 633 -121 631 -96 q 559 -91 581 -115 q 538 -12 538 -67 q 571 197 538 68 q 644 454 593 289 q 456 452 533 454 q 321 444 379 450 q 172 -32 201 68 q 131 -99 158 -76 q 76 -121 103 -121 z "},"Ħ":{"ha":858,"x_min":76,"x_max":893,"o":"m 893 656 q 856 622 888 633 q 758 604 824 610 l 749 567 q 725 478 733 515 q 769 475 739 478 q 831 472 811 472 q 776 435 803 443 q 713 428 750 428 q 676 265 690 333 q 631 -71 631 47 q 633 -121 631 -96 q 559 -91 581 -115 q 538 -12 538 -67 q 571 197 538 68 q 636 426 594 290 q 448 424 525 426 q 313 417 371 422 l 172 -32 q 131 -99 158 -76 q 76 -121 103 -121 q 124 92 93 -22 q 221 408 154 206 l 132 399 q 243 483 133 460 q 261 536 250 500 l 281 592 q 161 572 206 585 q 300 653 165 628 q 371 860 325 729 q 381 890 372 864 q 390 942 390 917 q 371 961 390 961 q 307 933 339 961 q 255 863 275 906 q 235 781 235 821 q 239 736 235 753 q 178 753 197 736 q 158 799 158 771 q 193 899 158 853 q 281 973 228 946 q 385 1000 335 1000 q 446 981 428 1000 q 464 933 464 963 q 453 874 464 910 l 388 664 q 564 671 475 671 q 710 668 618 671 q 801 928 776 878 q 878 1000 835 1000 q 775 665 836 889 q 893 656 851 660 m 689 601 q 476 599 632 599 q 368 597 400 599 l 335 493 q 419 496 388 496 q 653 483 528 496 l 689 601 z "},"Ĥ":{"ha":857,"x_min":76,"x_max":878,"o":"m 76 -121 q 126 100 94 -19 q 229 436 158 219 l 138 426 q 253 511 139 488 q 371 860 304 668 q 381 890 372 864 q 390 942 390 917 q 387 957 390 953 q 371 961 383 961 q 288 917 328 961 q 224 810 249 872 q 199 700 199 747 q 206 653 199 674 q 142 674 163 653 q 122 732 122 696 q 169 855 122 792 q 282 959 215 918 q 400 1000 349 1000 q 449 981 435 1000 q 464 933 464 963 q 453 874 464 910 l 344 521 q 425 524 394 524 q 661 511 533 524 q 744 772 704 654 q 801 928 783 890 q 878 1000 835 1000 q 810 790 850 926 q 732 506 771 654 q 776 503 746 506 q 836 500 818 500 q 782 463 808 471 q 719 456 756 456 q 676 265 690 336 q 631 -71 631 47 q 633 -121 631 -96 q 559 -91 581 -115 q 538 -12 538 -67 q 571 197 538 68 q 644 454 593 289 q 456 452 533 454 q 321 444 379 450 q 172 -32 201 68 q 131 -99 158 -76 q 76 -121 103 -121 m 775 1033 q 733 1097 757 1069 q 672 1161 710 1125 q 592 1126 625 1144 q 529 1082 558 1108 q 515 1108 515 1090 q 546 1162 515 1133 q 615 1210 576 1190 q 674 1231 654 1231 q 726 1204 696 1231 q 777 1142 756 1178 q 799 1076 799 1106 q 775 1033 799 1046 z "},"I":{"ha":638,"x_min":-53,"x_max":761,"o":"m -53 -122 q 11 -32 -46 -53 q 174 -11 68 -11 q 254 225 215 78 q 346 603 293 372 q 380 749 353 633 q 426 918 407 865 q 253 910 317 915 q 114 890 190 904 q 191 971 124 944 q 397 997 258 997 q 590 988 488 997 q 761 968 692 978 q 698 929 732 939 q 626 919 664 919 q 475 918 518 919 l 465 868 q 338 225 379 390 q 286 72 314 131 q 221 -12 258 13 q 356 -25 286 -17 q 522 -39 457 -37 q 365 -99 463 -99 l 297 -99 q 96 -103 169 -100 q -53 -122 22 -107 z "},"Ĳ":{"ha":1208,"x_min":-53,"x_max":1346,"o":"m -53 -122 q 11 -32 -46 -53 q 174 -11 68 -11 q 254 225 215 78 q 346 603 293 372 q 380 749 353 633 q 426 918 407 865 q 253 910 317 915 q 114 890 190 904 q 191 971 124 944 q 397 997 258 997 q 590 988 488 997 q 761 968 692 978 q 698 929 732 939 q 626 919 664 919 q 475 918 518 919 l 465 868 q 338 225 379 390 q 286 72 314 131 q 221 -12 258 13 q 356 -25 286 -17 q 522 -39 457 -37 q 365 -99 463 -99 l 297 -99 q 96 -103 169 -100 q -53 -122 22 -107 m 744 -119 q 594 61 594 -119 q 624 222 594 149 q 700 294 654 294 q 739 283 717 294 q 689 61 689 157 q 711 -36 689 -1 q 776 -71 733 -71 q 842 -39 814 -71 q 900 75 869 -7 q 1012 476 949 210 q 1110 926 1075 743 q 951 919 1007 925 q 829 899 894 914 q 1056 997 844 997 q 1210 988 1128 997 q 1346 968 1292 978 q 1301 936 1332 944 q 1239 928 1269 928 l 1140 926 q 1162 897 1154 915 q 1169 861 1169 878 q 1141 677 1169 825 q 1067 363 1113 529 q 972 85 1022 196 q 867 -76 921 -32 q 744 -119 813 -119 z "},"Í":{"ha":638,"x_min":-53,"x_max":761,"o":"m -53 -122 q 11 -32 -46 -53 q 174 -11 68 -11 q 254 225 215 78 q 346 603 293 372 q 380 749 353 633 q 426 918 407 865 q 253 910 317 915 q 114 890 190 904 q 191 971 124 944 q 397 997 258 997 q 590 988 488 997 q 761 968 692 978 q 698 929 732 939 q 626 919 664 919 q 475 918 518 919 l 465 868 q 338 225 379 390 q 286 72 314 131 q 221 -12 258 13 q 356 -25 286 -17 q 522 -39 457 -37 q 365 -99 463 -99 l 297 -99 q 96 -103 169 -100 q -53 -122 22 -107 m 483 1039 q 469 1055 474 1043 q 464 1075 464 1067 q 490 1134 464 1092 q 549 1210 515 1176 q 608 1243 583 1243 q 639 1200 635 1243 q 483 1039 536 1111 z "},"Ĭ":{"ha":638,"x_min":-53,"x_max":761,"o":"m -53 -122 q 11 -32 -46 -53 q 174 -11 68 -11 q 254 225 215 78 q 346 603 293 372 q 380 749 353 633 q 426 918 407 865 q 253 910 317 915 q 114 890 190 904 q 191 971 124 944 q 397 997 258 997 q 590 988 488 997 q 761 968 692 978 q 698 929 732 939 q 626 919 664 919 q 475 918 518 919 l 465 868 q 338 225 379 390 q 286 72 314 131 q 221 -12 258 13 q 356 -25 286 -17 q 522 -39 457 -37 q 365 -99 463 -99 l 297 -99 q 96 -103 169 -100 q -53 -122 22 -107 m 525 1053 q 444 1073 476 1053 q 397 1123 411 1093 q 382 1181 382 1153 q 415 1249 382 1226 q 447 1159 419 1196 q 528 1122 475 1122 q 661 1206 614 1122 q 675 1164 675 1192 q 630 1085 675 1118 q 525 1053 585 1053 z "},"Î":{"ha":638,"x_min":-53,"x_max":761,"o":"m -53 -122 q 11 -32 -46 -53 q 174 -11 68 -11 q 254 225 215 78 q 346 603 293 372 q 380 749 353 633 q 426 918 407 865 q 253 910 317 915 q 114 890 190 904 q 191 971 124 944 q 397 997 258 997 q 590 988 488 997 q 761 968 692 978 q 698 929 732 939 q 626 919 664 919 q 475 918 518 919 l 465 868 q 338 225 379 390 q 286 72 314 131 q 221 -12 258 13 q 356 -25 286 -17 q 522 -39 457 -37 q 365 -99 463 -99 l 297 -99 q 96 -103 169 -100 q -53 -122 22 -107 m 611 1033 q 569 1097 593 1069 q 508 1161 546 1125 q 428 1126 461 1144 q 365 1082 394 1108 q 351 1108 351 1090 q 382 1162 351 1133 q 451 1210 413 1190 q 510 1231 490 1231 q 562 1204 532 1231 q 613 1142 592 1178 q 635 1076 635 1106 q 611 1033 635 1046 z "},"Ȉ":{"ha":638,"x_min":-53,"x_max":761,"o":"m -53 -122 q 11 -32 -46 -53 q 174 -11 68 -11 q 254 225 215 78 q 346 603 293 372 q 380 749 353 633 q 426 918 407 865 q 253 910 317 915 q 114 890 190 904 q 191 971 124 944 q 397 997 258 997 q 590 988 488 997 q 761 968 692 978 q 698 929 732 939 q 626 919 664 919 q 475 918 518 919 l 465 868 q 338 225 379 390 q 286 72 314 131 q 221 -12 258 13 q 356 -25 286 -17 q 522 -39 457 -37 q 365 -99 463 -99 l 297 -99 q 96 -103 169 -100 q -53 -122 22 -107 m 542 1044 q 442 1201 497 1129 q 478 1236 456 1236 q 522 1208 500 1236 q 556 1144 543 1181 q 569 1086 569 1108 q 542 1044 569 1050 m 450 1038 q 317 1210 388 1125 q 357 1233 338 1233 q 404 1202 379 1233 q 447 1131 429 1171 q 465 1069 465 1090 q 450 1038 465 1049 z "},"Ï":{"ha":638,"x_min":-53,"x_max":761,"o":"m -53 -122 q 11 -32 -46 -53 q 174 -11 68 -11 q 254 225 215 78 q 346 603 293 372 q 380 749 353 633 q 426 918 407 865 q 253 910 317 915 q 114 890 190 904 q 191 971 124 944 q 397 997 258 997 q 590 988 488 997 q 761 968 692 978 q 698 929 732 939 q 626 919 664 919 q 475 918 518 919 l 465 868 q 338 225 379 390 q 286 72 314 131 q 221 -12 258 13 q 356 -25 286 -17 q 522 -39 457 -37 q 365 -99 463 -99 l 297 -99 q 96 -103 169 -100 q -53 -122 22 -107 m 386 1075 q 349 1085 364 1075 q 335 1117 335 1096 q 365 1162 335 1142 q 426 1182 394 1182 q 468 1143 468 1182 q 442 1097 468 1119 q 386 1075 417 1075 m 586 1046 q 549 1056 564 1046 q 535 1088 535 1067 q 565 1133 535 1113 q 626 1153 594 1153 q 668 1114 668 1153 q 642 1068 668 1090 q 586 1046 617 1046 z "},"İ":{"ha":638,"x_min":-53,"x_max":761,"o":"m -53 -122 q 11 -32 -46 -53 q 174 -11 68 -11 q 254 225 215 78 q 346 603 293 372 q 380 749 353 633 q 426 918 407 865 q 253 910 317 915 q 114 890 190 904 q 191 971 124 944 q 397 997 258 997 q 590 988 488 997 q 761 968 692 978 q 698 929 732 939 q 626 919 664 919 q 475 918 518 919 l 465 868 q 338 225 379 390 q 286 72 314 131 q 221 -12 258 13 q 356 -25 286 -17 q 522 -39 457 -37 q 365 -99 463 -99 l 297 -99 q 96 -103 169 -100 q -53 -122 22 -107 m 490 1071 q 450 1083 465 1071 q 435 1117 435 1094 q 464 1165 435 1146 q 525 1185 493 1185 q 574 1139 574 1185 q 547 1092 574 1113 q 490 1071 521 1071 z "},"Ị":{"ha":638,"x_min":-53,"x_max":761,"o":"m -53 -122 q 11 -32 -46 -53 q 174 -11 68 -11 q 254 225 215 78 q 346 603 293 372 q 380 749 353 633 q 426 918 407 865 q 253 910 317 915 q 114 890 190 904 q 191 971 124 944 q 397 997 258 997 q 590 988 488 997 q 761 968 692 978 q 698 929 732 939 q 626 919 664 919 q 475 918 518 919 l 465 868 q 338 225 379 390 q 286 72 314 131 q 221 -12 258 13 q 356 -25 286 -17 q 522 -39 457 -37 q 365 -99 463 -99 l 297 -99 q 96 -103 169 -100 q -53 -122 22 -107 m 121 -319 q 81 -308 96 -319 q 65 -274 65 -296 q 94 -225 65 -244 q 156 -206 124 -206 q 204 -251 204 -206 q 178 -299 204 -278 q 121 -319 151 -319 z "},"Ì":{"ha":638,"x_min":-53,"x_max":761,"o":"m -53 -122 q 11 -32 -46 -53 q 174 -11 68 -11 q 254 225 215 78 q 346 603 293 372 q 380 749 353 633 q 426 918 407 865 q 253 910 317 915 q 114 890 190 904 q 191 971 124 944 q 397 997 258 997 q 590 988 488 997 q 761 968 692 978 q 698 929 732 939 q 626 919 664 919 q 475 918 518 919 l 465 868 q 338 225 379 390 q 286 72 314 131 q 221 -12 258 13 q 356 -25 286 -17 q 522 -39 457 -37 q 365 -99 463 -99 l 297 -99 q 96 -103 169 -100 q -53 -122 22 -107 m 481 1039 q 325 1200 428 1111 q 356 1243 329 1243 q 415 1210 381 1243 q 474 1134 449 1176 q 500 1075 500 1092 q 495 1055 500 1067 q 481 1039 490 1043 z "},"Ỉ":{"ha":638,"x_min":-53,"x_max":761,"o":"m -53 -122 q 11 -32 -46 -53 q 174 -11 68 -11 q 254 225 215 78 q 346 603 293 372 q 380 749 353 633 q 426 918 407 865 q 253 910 317 915 q 114 890 190 904 q 191 971 124 944 q 397 997 258 997 q 590 988 488 997 q 761 968 692 978 q 698 929 732 939 q 626 919 664 919 q 475 918 518 919 l 465 868 q 338 225 379 390 q 286 72 314 131 q 221 -12 258 13 q 356 -25 286 -17 q 522 -39 457 -37 q 365 -99 463 -99 l 297 -99 q 96 -103 169 -100 q -53 -122 22 -107 m 522 1042 q 475 1057 493 1042 q 544 1076 517 1060 q 571 1124 571 1092 q 539 1169 571 1156 q 442 1183 507 1183 q 460 1228 442 1210 q 508 1247 478 1247 q 586 1217 556 1247 q 617 1140 617 1186 q 590 1069 617 1097 q 522 1042 564 1042 z "},"Ȋ":{"ha":638,"x_min":-53,"x_max":761,"o":"m -53 -122 q 11 -32 -46 -53 q 174 -11 68 -11 q 254 225 215 78 q 346 603 293 372 q 380 749 353 633 q 426 918 407 865 q 253 910 317 915 q 114 890 190 904 q 191 971 124 944 q 397 997 258 997 q 590 988 488 997 q 761 968 692 978 q 698 929 732 939 q 626 919 664 919 q 475 918 518 919 l 465 868 q 338 225 379 390 q 286 72 314 131 q 221 -12 258 13 q 356 -25 286 -17 q 522 -39 457 -37 q 365 -99 463 -99 l 297 -99 q 96 -103 169 -100 q -53 -122 22 -107 m 624 1011 q 590 1101 619 1065 q 500 1138 560 1138 q 378 1054 422 1138 q 364 1096 364 1069 q 407 1175 364 1143 q 513 1207 450 1207 q 592 1188 560 1207 q 641 1140 625 1168 q 657 1086 657 1113 q 624 1011 657 1036 z "},"Ī":{"ha":638,"x_min":-53,"x_max":761,"o":"m -53 -122 q 11 -32 -46 -53 q 174 -11 68 -11 q 254 225 215 78 q 346 603 293 372 q 380 749 353 633 q 426 918 407 865 q 253 910 317 915 q 114 890 190 904 q 191 971 124 944 q 397 997 258 997 q 590 988 488 997 q 761 968 692 978 q 698 929 732 939 q 626 919 664 919 q 475 918 518 919 l 465 868 q 338 225 379 390 q 286 72 314 131 q 221 -12 258 13 q 356 -25 286 -17 q 522 -39 457 -37 q 365 -99 463 -99 l 297 -99 q 96 -103 169 -100 q -53 -122 22 -107 m 633 1050 q 543 1060 601 1050 q 428 1082 485 1069 q 288 1107 318 1104 q 351 1143 301 1143 q 686 1078 465 1143 q 633 1050 667 1050 z "},"Į":{"ha":638,"x_min":-53,"x_max":761,"o":"m 338 225 q 286 72 314 131 q 221 -12 258 13 q 356 -25 286 -17 q 522 -39 457 -37 q 365 -99 463 -99 q 194 -100 250 -99 q 171 -160 171 -126 q 189 -203 171 -186 q 239 -221 207 -221 q 308 -197 276 -221 q 282 -258 307 -236 q 217 -281 257 -281 q 147 -254 174 -281 q 121 -186 121 -228 q 164 -100 121 -132 q -53 -122 38 -104 q 11 -32 -46 -53 q 174 -11 68 -11 q 254 225 215 78 q 346 603 293 372 q 380 749 353 633 q 426 918 407 865 q 253 910 317 915 q 114 890 190 904 q 191 971 124 944 q 397 997 258 997 q 590 988 488 997 q 761 968 692 978 q 698 929 732 939 q 626 919 664 919 q 475 918 518 919 l 465 868 q 338 225 379 390 z "},"Ĩ":{"ha":638,"x_min":-53,"x_max":761,"o":"m -53 -122 q 11 -32 -46 -53 q 174 -11 68 -11 q 254 225 215 78 q 346 603 293 372 q 380 749 353 633 q 426 918 407 865 q 253 910 317 915 q 114 890 190 904 q 191 971 124 944 q 397 997 258 997 q 590 988 488 997 q 761 968 692 978 q 698 929 732 939 q 626 919 664 919 q 475 918 518 919 l 465 868 q 338 225 379 390 q 286 72 314 131 q 221 -12 258 13 q 356 -25 286 -17 q 522 -39 457 -37 q 365 -99 463 -99 l 297 -99 q 96 -103 169 -100 q -53 -122 22 -107 m 603 1057 q 552 1065 578 1057 q 488 1088 526 1072 q 418 1113 447 1104 q 360 1121 389 1121 q 285 1100 317 1121 q 406 1169 335 1169 q 457 1162 431 1169 q 519 1139 483 1154 q 604 1111 574 1119 q 669 1103 635 1103 q 717 1114 692 1103 q 603 1057 671 1057 z "},"J":{"ha":571,"x_min":-43,"x_max":708,"o":"m 107 -119 q -43 61 -43 -119 q -13 222 -43 149 q 63 294 17 294 q 101 283 79 294 q 51 61 51 157 q 74 -36 51 -1 q 139 -71 96 -71 q 204 -39 176 -71 q 263 75 232 -7 q 374 476 311 210 q 472 926 438 743 q 313 919 369 925 q 192 899 257 914 q 418 997 207 997 q 572 988 490 997 q 708 968 654 978 q 663 936 694 944 q 601 928 632 928 l 503 926 q 524 897 517 915 q 532 861 532 878 q 503 677 532 825 q 430 363 475 529 q 335 85 385 196 q 229 -76 283 -32 q 107 -119 175 -119 z "},"Ĵ":{"ha":571,"x_min":-43,"x_max":708,"o":"m 107 -119 q -43 61 -43 -119 q -13 222 -43 149 q 63 294 17 294 q 101 283 79 294 q 51 61 51 157 q 74 -36 51 -1 q 139 -71 96 -71 q 204 -39 176 -71 q 263 75 232 -7 q 374 476 311 210 q 472 926 438 743 q 313 919 369 925 q 192 899 257 914 q 418 997 207 997 q 572 988 490 997 q 708 968 654 978 q 663 936 694 944 q 601 928 632 928 l 503 926 q 524 897 517 915 q 532 861 532 878 q 503 677 532 825 q 430 363 475 529 q 335 85 385 196 q 229 -76 283 -32 q 107 -119 175 -119 m 640 1033 q 599 1097 622 1069 q 538 1161 575 1125 q 457 1126 490 1144 q 394 1082 424 1108 q 381 1108 381 1090 q 411 1162 381 1133 q 481 1210 442 1190 q 539 1231 519 1231 q 591 1204 561 1231 q 642 1142 621 1178 q 664 1076 664 1106 q 640 1033 664 1046 z "},"K":{"ha":819,"x_min":42,"x_max":840,"o":"m 688 -121 q 567 -33 640 -121 q 419 180 493 56 q 300 404 346 304 l 165 -32 q 122 -85 153 -74 q 42 -96 90 -96 q 117 97 74 -24 q 261 514 160 217 l 379 860 q 389 885 381 863 q 397 928 397 908 q 364 961 397 961 q 281 917 321 961 q 217 810 242 872 q 192 700 192 747 q 199 653 192 674 q 135 674 156 653 q 115 732 115 696 q 162 855 115 792 q 275 959 208 918 q 393 1000 342 1000 q 442 981 428 1000 q 457 933 457 963 q 446 874 457 910 l 329 496 q 367 535 343 514 q 417 576 390 556 l 449 601 q 660 794 553 685 q 828 1000 768 904 q 837 973 833 993 q 840 939 840 953 q 335 447 840 788 q 456 250 410 321 q 576 98 503 179 q 763 -75 650 17 q 732 -108 753 -94 q 688 -121 711 -121 z "},"Ķ":{"ha":819,"x_min":42,"x_max":840,"o":"m 688 -121 q 567 -33 640 -121 q 419 180 493 56 q 300 404 346 304 l 165 -32 q 122 -85 153 -74 q 42 -96 90 -96 q 117 97 74 -24 q 261 514 160 217 l 379 860 q 389 885 381 863 q 397 928 397 908 q 364 961 397 961 q 281 917 321 961 q 217 810 242 872 q 192 700 192 747 q 199 653 192 674 q 135 674 156 653 q 115 732 115 696 q 162 855 115 792 q 275 959 208 918 q 393 1000 342 1000 q 442 981 428 1000 q 457 933 457 963 q 446 874 457 910 l 329 496 q 367 535 343 514 q 417 576 390 556 l 449 601 q 660 794 553 685 q 828 1000 768 904 q 837 973 833 993 q 840 939 840 953 q 335 447 840 788 q 456 250 410 321 q 576 98 503 179 q 763 -75 650 17 q 732 -108 753 -94 q 688 -121 711 -121 m 286 -356 q 263 -304 263 -342 q 290 -207 263 -258 q 347 -156 318 -156 q 372 -167 361 -156 q 382 -194 382 -179 q 335 -256 353 -225 q 304 -316 317 -287 q 286 -356 292 -344 z "},"L":{"ha":792,"x_min":-103,"x_max":786,"o":"m 551 -121 q 433 -97 497 -121 q 263 -25 368 -74 l 190 8 q 36 -74 117 -74 q -37 -54 -6 -74 q -86 -6 -69 -35 q -103 47 -103 22 q -78 92 -103 75 q -1 108 -54 108 q 169 79 60 108 q 235 224 204 140 q 310 450 265 308 l 343 556 q 242 617 279 576 q 206 704 206 657 q 230 779 206 744 q 292 814 254 814 q 278 776 282 801 q 274 728 274 751 q 295 640 274 676 q 353 585 317 604 q 486 890 417 781 q 651 1000 556 1000 q 744 967 703 1000 q 786 858 786 933 q 749 715 786 789 q 635 590 711 640 q 453 539 560 539 l 431 539 q 329 254 374 367 q 231 61 285 142 q 254 53 242 57 q 279 46 267 50 q 468 -8 397 10 q 599 -25 539 -25 q 697 -3 654 -25 q 639 -93 675 -65 q 551 -121 603 -121 m 439 565 q 579 622 517 565 q 676 758 642 679 q 711 896 711 836 q 697 949 711 933 q 661 965 683 965 q 554 866 603 965 q 439 565 506 767 m 31 -33 q 138 31 89 -33 q -21 72 35 72 q -67 46 -67 72 q -38 -7 -67 19 q 31 -33 -10 -33 z "},"Ǉ":{"ha":1363,"x_min":-103,"x_max":1500,"o":"m 551 -121 q 433 -97 497 -121 q 263 -25 368 -74 l 190 8 q 36 -74 117 -74 q -37 -54 -6 -74 q -86 -6 -69 -35 q -103 47 -103 22 q -78 92 -103 75 q -1 108 -54 108 q 169 79 60 108 q 235 224 204 140 q 310 450 265 308 l 343 556 q 242 617 279 576 q 206 704 206 657 q 230 779 206 744 q 292 814 254 814 q 278 776 282 801 q 274 728 274 751 q 295 640 274 676 q 353 585 317 604 q 486 890 417 781 q 651 1000 556 1000 q 744 967 703 1000 q 786 858 786 933 q 749 715 786 789 q 635 590 711 640 q 453 539 560 539 l 431 539 q 329 254 374 367 q 231 61 285 142 q 254 53 242 57 q 279 46 267 50 q 468 -8 397 10 q 599 -25 539 -25 q 697 -3 654 -25 q 639 -93 675 -65 q 551 -121 603 -121 m 439 565 q 579 622 517 565 q 676 758 642 679 q 711 896 711 836 q 697 949 711 933 q 661 965 683 965 q 554 866 603 965 q 439 565 506 767 m 31 -33 q 138 31 89 -33 q -21 72 35 72 q -67 46 -67 72 q -38 -7 -67 19 q 31 -33 -10 -33 m 899 -119 q 749 61 749 -119 q 778 222 749 149 q 854 294 808 294 q 893 283 871 294 q 843 61 843 157 q 865 -36 843 -1 q 931 -71 888 -71 q 996 -39 968 -71 q 1054 75 1024 -7 q 1166 476 1103 210 q 1264 926 1229 743 q 1105 919 1161 925 q 983 899 1049 914 q 1210 997 999 997 q 1364 988 1282 997 q 1500 968 1446 978 q 1455 936 1486 944 q 1393 928 1424 928 l 1294 926 q 1316 897 1308 915 q 1324 861 1324 878 q 1295 677 1324 825 q 1222 363 1267 529 q 1126 85 1176 196 q 1021 -76 1075 -32 q 899 -119 967 -119 z "},"Ĺ":{"ha":792,"x_min":-103,"x_max":853,"o":"m 551 -121 q 433 -97 497 -121 q 263 -25 368 -74 l 190 8 q 36 -74 117 -74 q -37 -54 -6 -74 q -86 -6 -69 -35 q -103 47 -103 22 q -78 92 -103 75 q -1 108 -54 108 q 169 79 60 108 q 235 224 204 140 q 310 450 265 308 l 343 556 q 242 617 279 576 q 206 704 206 657 q 230 779 206 744 q 292 814 254 814 q 278 776 282 801 q 274 728 274 751 q 295 640 274 676 q 353 585 317 604 q 486 890 417 781 q 651 1000 556 1000 q 744 967 703 1000 q 786 858 786 933 q 749 715 786 789 q 635 590 711 640 q 453 539 560 539 l 431 539 q 329 254 374 367 q 231 61 285 142 q 254 53 242 57 q 279 46 267 50 q 468 -8 397 10 q 599 -25 539 -25 q 697 -3 654 -25 q 639 -93 675 -65 q 551 -121 603 -121 m 439 565 q 579 622 517 565 q 676 758 642 679 q 711 896 711 836 q 697 949 711 933 q 661 965 683 965 q 554 866 603 965 q 439 565 506 767 m 31 -33 q 138 31 89 -33 q -21 72 35 72 q -67 46 -67 72 q -38 -7 -67 19 q 31 -33 -10 -33 m 697 1039 q 683 1055 688 1043 q 678 1075 678 1067 q 703 1134 678 1092 q 763 1210 729 1176 q 822 1243 797 1243 q 853 1200 849 1243 q 697 1039 750 1111 z "},"Ľ":{"ha":792,"x_min":-103,"x_max":974,"o":"m 551 -121 q 433 -97 497 -121 q 263 -25 368 -74 l 190 8 q 36 -74 117 -74 q -37 -54 -6 -74 q -86 -6 -69 -35 q -103 47 -103 22 q -78 92 -103 75 q -1 108 -54 108 q 169 79 60 108 q 235 224 204 140 q 310 450 265 308 l 343 556 q 242 617 279 576 q 206 704 206 657 q 230 779 206 744 q 292 814 254 814 q 278 776 282 801 q 274 728 274 751 q 295 640 274 676 q 353 585 317 604 q 486 890 417 781 q 651 1000 556 1000 q 744 967 703 1000 q 786 858 786 933 q 749 715 786 789 q 635 590 711 640 q 453 539 560 539 l 431 539 q 329 254 374 367 q 231 61 285 142 q 254 53 242 57 q 279 46 267 50 q 468 -8 397 10 q 599 -25 539 -25 q 697 -3 654 -25 q 639 -93 675 -65 q 551 -121 603 -121 m 439 565 q 579 622 517 565 q 676 758 642 679 q 711 896 711 836 q 697 949 711 933 q 661 965 683 965 q 554 866 603 965 q 439 565 506 767 m 31 -33 q 138 31 89 -33 q -21 72 35 72 q -67 46 -67 72 q -38 -7 -67 19 q 31 -33 -10 -33 m 865 774 q 841 783 851 774 q 831 810 831 793 q 851 869 831 835 q 900 928 871 903 q 954 953 929 953 q 974 947 967 953 q 924 867 947 913 q 888 781 901 822 q 865 774 878 774 z "},"Ļ":{"ha":792,"x_min":-103,"x_max":786,"o":"m 551 -121 q 433 -97 497 -121 q 263 -25 368 -74 l 190 8 q 36 -74 117 -74 q -37 -54 -6 -74 q -86 -6 -69 -35 q -103 47 -103 22 q -78 92 -103 75 q -1 108 -54 108 q 169 79 60 108 q 235 224 204 140 q 310 450 265 308 l 343 556 q 242 617 279 576 q 206 704 206 657 q 230 779 206 744 q 292 814 254 814 q 278 776 282 801 q 274 728 274 751 q 295 640 274 676 q 353 585 317 604 q 486 890 417 781 q 651 1000 556 1000 q 744 967 703 1000 q 786 858 786 933 q 749 715 786 789 q 635 590 711 640 q 453 539 560 539 l 431 539 q 329 254 374 367 q 231 61 285 142 q 254 53 242 57 q 279 46 267 50 q 468 -8 397 10 q 599 -25 539 -25 q 697 -3 654 -25 q 639 -93 675 -65 q 551 -121 603 -121 m 439 565 q 579 622 517 565 q 676 758 642 679 q 711 896 711 836 q 697 949 711 933 q 661 965 683 965 q 554 866 603 965 q 439 565 506 767 m 31 -33 q 138 31 89 -33 q -21 72 35 72 q -67 46 -67 72 q -38 -7 -67 19 q 31 -33 -10 -33 m 179 -325 q 156 -274 156 -311 q 183 -176 156 -228 q 240 -125 211 -125 q 265 -137 254 -125 q 275 -164 275 -149 q 228 -226 246 -194 q 197 -285 210 -257 q 179 -325 185 -314 z "},"Ŀ":{"ha":792,"x_min":-103,"x_max":786,"o":"m 551 -121 q 433 -97 497 -121 q 263 -25 368 -74 l 190 8 q 36 -74 117 -74 q -37 -54 -6 -74 q -86 -6 -69 -35 q -103 47 -103 22 q -78 92 -103 75 q -1 108 -54 108 q 169 79 60 108 q 235 224 204 140 q 310 450 265 308 l 343 556 q 242 617 279 576 q 206 704 206 657 q 230 779 206 744 q 292 814 254 814 q 278 776 282 801 q 274 728 274 751 q 295 640 274 676 q 353 585 317 604 q 486 890 417 781 q 651 1000 556 1000 q 744 967 703 1000 q 786 858 786 933 q 749 715 786 789 q 635 590 711 640 q 453 539 560 539 l 431 539 q 329 254 374 367 q 231 61 285 142 q 254 53 242 57 q 279 46 267 50 q 468 -8 397 10 q 599 -25 539 -25 q 697 -3 654 -25 q 639 -93 675 -65 q 551 -121 603 -121 m 439 565 q 579 622 517 565 q 676 758 642 679 q 711 896 711 836 q 697 949 711 933 q 661 965 683 965 q 554 866 603 965 q 439 565 506 767 m 31 -33 q 138 31 89 -33 q -21 72 35 72 q -67 46 -67 72 q -38 -7 -67 19 q 31 -33 -10 -33 m 615 331 q 583 340 596 331 q 571 368 571 350 q 597 408 571 390 q 651 425 624 425 q 688 392 688 425 q 665 351 688 371 q 615 331 642 331 z "},"ǈ":{"ha":1094,"x_min":-103,"x_max":1139,"o":"m 551 -121 q 433 -97 497 -121 q 263 -25 368 -74 l 190 8 q 36 -74 117 -74 q -37 -54 -6 -74 q -86 -6 -69 -35 q -103 47 -103 22 q -78 92 -103 75 q -1 108 -54 108 q 169 79 60 108 q 235 224 204 140 q 310 450 265 308 l 343 556 q 242 617 279 576 q 206 704 206 657 q 230 779 206 744 q 292 814 254 814 q 278 776 282 801 q 274 728 274 751 q 295 640 274 676 q 353 585 317 604 q 486 890 417 781 q 651 1000 556 1000 q 744 967 703 1000 q 786 858 786 933 q 749 715 786 789 q 635 590 711 640 q 453 539 560 539 l 431 539 q 329 254 374 367 q 231 61 285 142 q 254 53 242 57 q 279 46 267 50 q 468 -8 397 10 q 599 -25 539 -25 q 697 -3 654 -25 q 639 -93 675 -65 q 551 -121 603 -121 m 439 565 q 579 622 517 565 q 676 758 642 679 q 711 896 711 836 q 697 949 711 933 q 661 965 683 965 q 554 866 603 965 q 439 565 506 767 m 31 -33 q 138 31 89 -33 q -21 72 35 72 q -67 46 -67 72 q -38 -7 -67 19 q 31 -33 -10 -33 m 979 607 q 940 619 956 607 q 924 651 924 631 q 956 703 924 681 q 1025 725 989 725 q 1058 715 1046 725 q 1071 686 1071 706 q 1042 631 1071 656 q 979 607 1014 607 m 597 -389 q 544 -369 563 -389 q 525 -318 525 -350 q 574 -206 525 -267 q 700 -101 624 -144 q 754 -74 721 -89 q 789 -57 775 -65 q 882 285 849 92 q 836 207 874 269 q 817 175 822 186 l 804 196 q 864 333 829 243 q 914 447 894 411 q 957 482 933 482 q 981 470 972 482 q 990 440 990 458 q 958 264 990 403 q 879 -11 925 125 l 904 4 q 1026 88 978 46 q 1121 218 1074 131 l 1139 208 q 1042 66 1099 115 q 904 -28 986 17 l 865 -50 q 743 -293 811 -197 q 597 -389 675 -389 m 585 -342 q 668 -278 615 -342 q 771 -101 721 -214 q 615 -207 669 -151 q 561 -308 561 -262 q 585 -342 561 -342 z "},"Ł":{"ha":793,"x_min":-103,"x_max":697,"o":"m 599 -25 q 697 -3 654 -25 q 639 -93 675 -65 q 551 -121 603 -121 q 433 -97 497 -121 q 263 -25 368 -74 l 190 8 q 36 -74 117 -74 q -37 -54 -6 -74 q -86 -6 -69 -35 q -103 47 -103 22 q -78 92 -103 75 q -1 108 -54 108 q 169 79 60 108 q 223 198 197 126 q 293 406 249 269 l 322 497 q 156 468 251 488 q 344 567 172 542 q 485 884 413 768 q 651 1000 557 1000 q 549 831 606 942 q 443 578 493 721 q 588 582 510 582 q 693 576 651 582 q 679 543 693 554 q 635 528 665 532 q 526 517 604 524 l 482 513 l 419 507 q 315 224 356 318 q 231 61 275 129 q 254 53 242 57 q 279 46 267 50 q 468 -8 397 10 q 599 -25 539 -25 m 31 -33 q 138 31 89 -33 q -21 72 35 72 q -67 46 -67 72 q -38 -7 -67 19 q 31 -33 -10 -33 z "},"M":{"ha":1060,"x_min":-24,"x_max":1032,"o":"m 21 -22 q 165 294 47 35 q 417 856 283 554 q 431 913 431 888 q 421 940 431 931 q 383 949 411 949 q 289 910 328 949 q 231 814 250 872 q 211 696 211 756 q 214 653 211 678 q 159 689 178 653 q 140 767 140 725 q 182 879 140 825 q 287 967 224 933 q 411 1000 350 1000 q 490 974 460 1000 q 535 879 519 947 q 551 689 551 811 q 535 351 551 576 q 522 142 526 244 q 698 557 569 324 q 918 925 826 790 q 953 970 940 958 q 988 982 967 982 q 1032 972 1007 982 q 969 778 997 889 q 883 356 922 594 q 843 -7 843 118 q 846 -57 843 -40 q 856 -93 849 -74 l 864 -121 q 792 -106 817 -121 q 759 -58 768 -90 q 750 35 750 -26 q 785 351 750 183 q 889 783 819 519 q 753 556 828 704 q 613 254 678 408 q 517 4 549 100 q 496 -1 501 -1 q 448 40 461 -1 q 435 168 435 81 q 446 468 435 246 q 457 758 457 688 q 454 836 457 797 q 282 425 354 604 q 139 90 186 194 q 53 -67 92 -14 q -24 -121 14 -121 l 21 -22 z "},"N":{"ha":889,"x_min":64,"x_max":921,"o":"m 64 -121 q 167 226 88 -33 q 358 860 251 500 q 368 917 368 894 q 347 949 368 949 q 267 907 304 949 q 208 807 231 865 q 186 701 186 749 q 193 653 186 674 q 130 674 150 653 q 110 732 110 696 q 156 855 110 792 q 269 959 203 918 q 388 1000 335 1000 q 470 942 439 1000 q 517 798 501 885 q 549 567 532 711 q 610 100 578 307 q 674 399 628 218 q 770 740 721 579 q 833 932 819 900 q 868 977 843 954 q 921 1000 893 1000 q 806 639 871 868 q 693 195 740 410 q 644 -121 646 -19 q 574 -95 600 -121 q 536 -8 547 -69 q 477 362 518 89 q 410 818 436 635 q 229 183 281 353 q 142 -53 178 14 q 64 -121 107 -121 z "},"Ǌ":{"ha":1453,"x_min":64,"x_max":1590,"o":"m 64 -121 q 167 226 88 -33 q 358 860 251 500 q 368 917 368 894 q 347 949 368 949 q 267 907 304 949 q 208 807 231 865 q 186 701 186 749 q 193 653 186 674 q 130 674 150 653 q 110 732 110 696 q 156 855 110 792 q 269 959 203 918 q 388 1000 335 1000 q 470 942 439 1000 q 517 798 501 885 q 549 567 532 711 q 610 100 578 307 q 674 399 628 218 q 770 740 721 579 q 833 932 819 900 q 868 977 843 954 q 921 1000 893 1000 q 806 639 871 868 q 693 195 740 410 q 644 -121 646 -19 q 574 -95 600 -121 q 536 -8 547 -69 q 477 362 518 89 q 410 818 436 635 q 229 183 281 353 q 142 -53 178 14 q 64 -121 107 -121 m 989 -119 q 839 61 839 -119 q 869 222 839 149 q 944 294 899 294 q 983 283 961 294 q 933 61 933 157 q 956 -36 933 -1 q 1021 -71 978 -71 q 1086 -39 1058 -71 q 1144 75 1114 -7 q 1256 476 1193 210 q 1354 926 1319 743 q 1195 919 1251 925 q 1074 899 1139 914 q 1300 997 1089 997 q 1454 988 1372 997 q 1590 968 1536 978 q 1545 936 1576 944 q 1483 928 1514 928 l 1385 926 q 1406 897 1399 915 q 1414 861 1414 878 q 1385 677 1414 825 q 1312 363 1357 529 q 1217 85 1267 196 q 1111 -76 1165 -32 q 989 -119 1057 -119 z "},"Ń":{"ha":889,"x_min":64,"x_max":921,"o":"m 64 -121 q 167 226 88 -33 q 358 860 251 500 q 368 917 368 894 q 347 949 368 949 q 267 907 304 949 q 208 807 231 865 q 186 701 186 749 q 193 653 186 674 q 130 674 150 653 q 110 732 110 696 q 156 855 110 792 q 269 959 203 918 q 388 1000 335 1000 q 470 942 439 1000 q 517 798 501 885 q 549 567 532 711 q 610 100 578 307 q 674 399 628 218 q 770 740 721 579 q 833 932 819 900 q 868 977 843 954 q 921 1000 893 1000 q 806 639 871 868 q 693 195 740 410 q 644 -121 646 -19 q 574 -95 600 -121 q 536 -8 547 -69 q 477 362 518 89 q 410 818 436 635 q 229 183 281 353 q 142 -53 178 14 q 64 -121 107 -121 m 663 1039 q 648 1055 653 1043 q 643 1075 643 1067 q 669 1134 643 1092 q 728 1210 694 1176 q 788 1243 763 1243 q 818 1200 814 1243 q 663 1039 715 1111 z "},"Ň":{"ha":889,"x_min":64,"x_max":921,"o":"m 64 -121 q 167 226 88 -33 q 358 860 251 500 q 368 917 368 894 q 347 949 368 949 q 267 907 304 949 q 208 807 231 865 q 186 701 186 749 q 193 653 186 674 q 130 674 150 653 q 110 732 110 696 q 156 855 110 792 q 269 959 203 918 q 388 1000 335 1000 q 470 942 439 1000 q 517 798 501 885 q 549 567 532 711 q 610 100 578 307 q 674 399 628 218 q 770 740 721 579 q 833 932 819 900 q 868 977 843 954 q 921 1000 893 1000 q 806 639 871 868 q 693 195 740 410 q 644 -121 646 -19 q 574 -95 600 -121 q 536 -8 547 -69 q 477 362 518 89 q 410 818 436 635 q 229 183 281 353 q 142 -53 178 14 q 64 -121 107 -121 m 658 1047 q 606 1074 636 1047 q 555 1136 576 1100 q 533 1201 533 1172 q 557 1244 533 1233 q 599 1181 575 1208 q 660 1117 622 1153 q 740 1151 707 1133 q 803 1196 774 1169 q 817 1169 817 1188 q 786 1116 817 1144 q 717 1067 756 1088 q 658 1047 678 1047 z "},"Ņ":{"ha":889,"x_min":64,"x_max":921,"o":"m 64 -121 q 167 226 88 -33 q 358 860 251 500 q 368 917 368 894 q 347 949 368 949 q 267 907 304 949 q 208 807 231 865 q 186 701 186 749 q 193 653 186 674 q 130 674 150 653 q 110 732 110 696 q 156 855 110 792 q 269 959 203 918 q 388 1000 335 1000 q 470 942 439 1000 q 517 798 501 885 q 549 567 532 711 q 610 100 578 307 q 674 399 628 218 q 770 740 721 579 q 833 932 819 900 q 868 977 843 954 q 921 1000 893 1000 q 806 639 871 868 q 693 195 740 410 q 644 -121 646 -19 q 574 -95 600 -121 q 536 -8 547 -69 q 477 362 518 89 q 410 818 436 635 q 229 183 281 353 q 142 -53 178 14 q 64 -121 107 -121 m 293 -322 q 269 -271 269 -308 q 297 -174 269 -225 q 354 -122 325 -122 q 378 -134 368 -122 q 389 -161 389 -146 q 342 -223 360 -192 q 311 -283 324 -254 q 293 -322 299 -311 z "},"Ŋ":{"ha":917,"x_min":111,"x_max":889,"o":"m 708 983 q 842 931 794 983 q 889 794 889 878 q 847 498 889 693 q 761 149 806 303 q 596 -200 696 -72 q 336 -328 496 -328 q 273 -321 297 -328 q 249 -304 249 -314 q 274 -292 249 -292 q 503 -179 411 -292 q 664 156 594 -67 q 746 474 704 283 q 788 772 788 664 q 759 885 788 842 q 671 928 731 928 q 494 811 568 928 q 383 551 419 694 q 301 228 381 540 q 210 -137 239 -8 q 145 -121 174 -137 q 117 -72 117 -104 q 148 87 117 -29 q 250 449 179 203 q 299 615 275 531 l 310 654 q 351 813 336 746 q 367 933 367 879 q 343 961 367 961 q 271 917 307 961 q 211 810 235 872 q 188 700 188 747 q 194 653 188 674 q 131 674 151 653 q 111 732 111 696 q 154 856 111 793 q 260 959 197 918 q 381 1000 324 1000 q 450 933 450 1000 q 435 822 450 892 l 418 747 q 708 983 533 983 z "},"ǋ":{"ha":1169,"x_min":64,"x_max":1214,"o":"m 64 -121 q 167 226 88 -33 q 358 860 251 500 q 368 917 368 894 q 347 949 368 949 q 267 907 304 949 q 208 807 231 865 q 186 701 186 749 q 193 653 186 674 q 130 674 150 653 q 110 732 110 696 q 156 855 110 792 q 269 959 203 918 q 388 1000 335 1000 q 470 942 439 1000 q 517 798 501 885 q 549 567 532 711 q 610 100 578 307 q 674 399 628 218 q 770 740 721 579 q 833 932 819 900 q 868 977 843 954 q 921 1000 893 1000 q 806 639 871 868 q 693 195 740 410 q 644 -121 646 -19 q 574 -95 600 -121 q 536 -8 547 -69 q 477 362 518 89 q 410 818 436 635 q 229 183 281 353 q 142 -53 178 14 q 64 -121 107 -121 m 1054 607 q 1015 619 1031 607 q 999 651 999 631 q 1031 703 999 681 q 1100 725 1064 725 q 1133 715 1121 725 q 1146 686 1146 706 q 1117 631 1146 656 q 1054 607 1089 607 m 672 -389 q 619 -369 638 -389 q 600 -318 600 -350 q 649 -206 600 -267 q 775 -101 699 -144 q 829 -74 796 -89 q 864 -57 850 -65 q 957 285 924 92 q 911 207 949 269 q 892 175 897 186 l 879 196 q 939 333 904 243 q 989 447 969 411 q 1032 482 1008 482 q 1056 470 1047 482 q 1065 440 1065 458 q 1033 264 1065 403 q 954 -11 1000 125 l 979 4 q 1101 88 1053 46 q 1196 218 1149 131 l 1214 208 q 1117 66 1174 115 q 979 -28 1061 17 l 940 -50 q 818 -293 886 -197 q 672 -389 750 -389 m 660 -342 q 743 -278 690 -342 q 846 -101 796 -214 q 690 -207 744 -151 q 636 -308 636 -262 q 660 -342 636 -342 z "},"Ñ":{"ha":889,"x_min":64,"x_max":921,"o":"m 64 -121 q 167 226 88 -33 q 358 860 251 500 q 368 917 368 894 q 347 949 368 949 q 267 907 304 949 q 208 807 231 865 q 186 701 186 749 q 193 653 186 674 q 130 674 150 653 q 110 732 110 696 q 156 855 110 792 q 269 959 203 918 q 388 1000 335 1000 q 470 942 439 1000 q 517 798 501 885 q 549 567 532 711 q 610 100 578 307 q 674 399 628 218 q 770 740 721 579 q 833 932 819 900 q 868 977 843 954 q 921 1000 893 1000 q 806 639 871 868 q 693 195 740 410 q 644 -121 646 -19 q 574 -95 600 -121 q 536 -8 547 -69 q 477 362 518 89 q 410 818 436 635 q 229 183 281 353 q 142 -53 178 14 q 64 -121 107 -121 m 782 1057 q 731 1065 757 1057 q 667 1088 706 1072 q 597 1113 626 1104 q 539 1121 568 1121 q 464 1100 496 1121 q 585 1169 514 1169 q 636 1162 610 1169 q 699 1139 663 1154 q 783 1111 753 1119 q 849 1103 814 1103 q 896 1114 871 1103 q 782 1057 850 1057 z "},"O":{"ha":865,"x_min":29,"x_max":836,"o":"m 296 -121 q 156 -78 217 -121 q 63 42 96 -36 q 29 224 29 121 q 117 579 29 397 q 340 880 206 761 q 604 999 475 999 q 688 982 657 999 l 672 982 q 435 859 557 982 q 232 553 313 736 q 151 204 151 369 q 198 5 151 83 q 338 -74 244 -74 q 563 48 461 -74 q 724 351 665 169 q 783 701 783 533 q 768 833 783 772 q 721 893 753 893 q 649 842 689 893 q 577 721 610 792 q 533 596 544 650 q 483 622 500 604 q 467 664 467 640 q 510 775 467 711 q 614 885 554 839 q 718 931 674 931 q 809 849 782 931 q 836 663 836 767 q 751 247 836 425 q 540 -26 667 68 q 296 -121 414 -121 z "},"Ó":{"ha":865,"x_min":29,"x_max":869,"o":"m 296 -121 q 156 -78 217 -121 q 63 42 96 -36 q 29 224 29 121 q 117 579 29 397 q 340 880 206 761 q 604 999 475 999 q 688 982 657 999 l 672 982 q 435 859 557 982 q 232 553 313 736 q 151 204 151 369 q 198 5 151 83 q 338 -74 244 -74 q 563 48 461 -74 q 724 351 665 169 q 783 701 783 533 q 768 833 783 772 q 721 893 753 893 q 649 842 689 893 q 577 721 610 792 q 533 596 544 650 q 483 622 500 604 q 467 664 467 640 q 510 775 467 711 q 614 885 554 839 q 718 931 674 931 q 809 849 782 931 q 836 663 836 767 q 751 247 836 425 q 540 -26 667 68 q 296 -121 414 -121 m 714 1039 q 699 1055 704 1043 q 694 1075 694 1067 q 720 1134 694 1092 q 780 1210 746 1176 q 839 1243 814 1243 q 869 1200 865 1243 q 714 1039 767 1111 z "},"Ŏ":{"ha":865,"x_min":29,"x_max":906,"o":"m 296 -121 q 156 -78 217 -121 q 63 42 96 -36 q 29 224 29 121 q 117 579 29 397 q 340 880 206 761 q 604 999 475 999 q 688 982 657 999 l 672 982 q 435 859 557 982 q 232 553 313 736 q 151 204 151 369 q 198 5 151 83 q 338 -74 244 -74 q 563 48 461 -74 q 724 351 665 169 q 783 701 783 533 q 768 833 783 772 q 721 893 753 893 q 649 842 689 893 q 577 721 610 792 q 533 596 544 650 q 483 622 500 604 q 467 664 467 640 q 510 775 467 711 q 614 885 554 839 q 718 931 674 931 q 809 849 782 931 q 836 663 836 767 q 751 247 836 425 q 540 -26 667 68 q 296 -121 414 -121 m 756 1053 q 674 1073 707 1053 q 627 1123 642 1093 q 613 1181 613 1153 q 646 1249 613 1226 q 678 1159 650 1196 q 758 1122 706 1122 q 892 1206 844 1122 q 906 1164 906 1192 q 860 1085 906 1118 q 756 1053 815 1053 z "},"Ô":{"ha":865,"x_min":29,"x_max":865,"o":"m 296 -121 q 156 -78 217 -121 q 63 42 96 -36 q 29 224 29 121 q 117 579 29 397 q 340 880 206 761 q 604 999 475 999 q 688 982 657 999 l 672 982 q 435 859 557 982 q 232 553 313 736 q 151 204 151 369 q 198 5 151 83 q 338 -74 244 -74 q 563 48 461 -74 q 724 351 665 169 q 783 701 783 533 q 768 833 783 772 q 721 893 753 893 q 649 842 689 893 q 577 721 610 792 q 533 596 544 650 q 483 622 500 604 q 467 664 467 640 q 510 775 467 711 q 614 885 554 839 q 718 931 674 931 q 809 849 782 931 q 836 663 836 767 q 751 247 836 425 q 540 -26 667 68 q 296 -121 414 -121 m 842 1033 q 800 1097 824 1069 q 739 1161 776 1125 q 658 1126 692 1144 q 596 1082 625 1108 q 582 1108 582 1090 q 613 1162 582 1133 q 682 1210 643 1190 q 740 1231 721 1231 q 792 1204 763 1231 q 844 1142 822 1178 q 865 1076 865 1106 q 842 1033 865 1046 z "},"Ố":{"ha":865,"x_min":29,"x_max":1017,"o":"m 296 -121 q 156 -78 217 -121 q 63 42 96 -36 q 29 224 29 121 q 117 579 29 397 q 340 880 206 761 q 604 999 475 999 q 688 982 657 999 l 672 982 q 435 859 557 982 q 232 553 313 736 q 151 204 151 369 q 198 5 151 83 q 338 -74 244 -74 q 563 48 461 -74 q 724 351 665 169 q 783 701 783 533 q 768 833 783 772 q 721 893 753 893 q 649 842 689 893 q 577 721 610 792 q 533 596 544 650 q 483 622 500 604 q 467 664 467 640 q 510 775 467 711 q 614 885 554 839 q 718 931 674 931 q 809 849 782 931 q 836 663 836 767 q 751 247 836 425 q 540 -26 667 68 q 296 -121 414 -121 m 889 1165 q 868 1182 875 1171 q 861 1206 861 1193 q 883 1257 861 1224 q 934 1316 904 1290 q 986 1342 964 1342 q 1017 1299 1013 1342 q 889 1165 932 1222 m 842 1033 q 800 1097 824 1069 q 739 1161 776 1125 q 658 1126 692 1144 q 596 1082 625 1108 q 582 1108 582 1090 q 613 1162 582 1133 q 682 1210 643 1190 q 740 1231 721 1231 q 792 1204 763 1231 q 844 1142 822 1178 q 865 1076 865 1106 q 842 1033 865 1046 z "},"Ộ":{"ha":865,"x_min":29,"x_max":865,"o":"m 296 -121 q 156 -78 217 -121 q 63 42 96 -36 q 29 224 29 121 q 117 579 29 397 q 340 880 206 761 q 604 999 475 999 q 688 982 657 999 l 672 982 q 435 859 557 982 q 232 553 313 736 q 151 204 151 369 q 198 5 151 83 q 338 -74 244 -74 q 563 48 461 -74 q 724 351 665 169 q 783 701 783 533 q 768 833 783 772 q 721 893 753 893 q 649 842 689 893 q 577 721 610 792 q 533 596 544 650 q 483 622 500 604 q 467 664 467 640 q 510 775 467 711 q 614 885 554 839 q 718 931 674 931 q 809 849 782 931 q 836 663 836 767 q 751 247 836 425 q 540 -26 667 68 q 296 -121 414 -121 m 842 1033 q 800 1097 824 1069 q 739 1161 776 1125 q 658 1126 692 1144 q 596 1082 625 1108 q 582 1108 582 1090 q 613 1162 582 1133 q 682 1210 643 1190 q 740 1231 721 1231 q 792 1204 763 1231 q 844 1142 822 1178 q 865 1076 865 1106 q 842 1033 865 1046 m 233 -358 q 193 -347 208 -358 q 178 -312 178 -335 q 207 -264 178 -283 q 268 -244 236 -244 q 317 -290 317 -244 q 290 -337 317 -317 q 233 -358 264 -358 z "},"Ồ":{"ha":865,"x_min":29,"x_max":942,"o":"m 296 -121 q 156 -78 217 -121 q 63 42 96 -36 q 29 224 29 121 q 117 579 29 397 q 340 880 206 761 q 604 999 475 999 q 688 982 657 999 l 672 982 q 435 859 557 982 q 232 553 313 736 q 151 204 151 369 q 198 5 151 83 q 338 -74 244 -74 q 563 48 461 -74 q 724 351 665 169 q 783 701 783 533 q 768 833 783 772 q 721 893 753 893 q 649 842 689 893 q 577 721 610 792 q 533 596 544 650 q 483 622 500 604 q 467 664 467 640 q 510 775 467 711 q 614 885 554 839 q 718 931 674 931 q 809 849 782 931 q 836 663 836 767 q 751 247 836 425 q 540 -26 667 68 q 296 -121 414 -121 m 913 1163 q 803 1310 879 1222 q 838 1349 808 1349 q 883 1322 858 1349 q 924 1260 907 1296 q 942 1204 942 1225 q 913 1163 942 1174 m 842 1033 q 800 1097 824 1069 q 739 1161 776 1125 q 658 1126 692 1144 q 596 1082 625 1108 q 582 1108 582 1090 q 613 1162 582 1133 q 682 1210 643 1190 q 740 1231 721 1231 q 792 1204 763 1231 q 844 1142 822 1178 q 865 1076 865 1106 q 842 1033 865 1046 z "},"Ổ":{"ha":865,"x_min":29,"x_max":1008,"o":"m 296 -121 q 156 -78 217 -121 q 63 42 96 -36 q 29 224 29 121 q 117 579 29 397 q 340 880 206 761 q 604 999 475 999 q 688 982 657 999 l 672 982 q 435 859 557 982 q 232 553 313 736 q 151 204 151 369 q 198 5 151 83 q 338 -74 244 -74 q 563 48 461 -74 q 724 351 665 169 q 783 701 783 533 q 768 833 783 772 q 721 893 753 893 q 649 842 689 893 q 577 721 610 792 q 533 596 544 650 q 483 622 500 604 q 467 664 467 640 q 510 775 467 711 q 614 885 554 839 q 718 931 674 931 q 809 849 782 931 q 836 663 836 767 q 751 247 836 425 q 540 -26 667 68 q 296 -121 414 -121 m 926 1151 q 883 1167 899 1151 q 939 1185 915 1169 q 963 1228 963 1200 q 833 1290 963 1290 q 851 1335 833 1317 q 900 1354 869 1354 q 978 1321 947 1354 q 1008 1238 1008 1288 q 985 1175 1008 1199 q 926 1151 963 1151 m 842 1033 q 800 1097 824 1069 q 739 1161 776 1125 q 658 1126 692 1144 q 596 1082 625 1108 q 582 1108 582 1090 q 613 1162 582 1133 q 682 1210 643 1190 q 740 1231 721 1231 q 792 1204 763 1231 q 844 1142 822 1178 q 865 1076 865 1106 q 842 1033 865 1046 z "},"Ỗ":{"ha":865,"x_min":29,"x_max":1014,"o":"m 296 -121 q 156 -78 217 -121 q 63 42 96 -36 q 29 224 29 121 q 117 579 29 397 q 340 880 206 761 q 604 999 475 999 q 688 982 657 999 l 672 982 q 435 859 557 982 q 232 553 313 736 q 151 204 151 369 q 198 5 151 83 q 338 -74 244 -74 q 563 48 461 -74 q 724 351 665 169 q 783 701 783 533 q 768 833 783 772 q 721 893 753 893 q 649 842 689 893 q 577 721 610 792 q 533 596 544 650 q 483 622 500 604 q 467 664 467 640 q 510 775 467 711 q 614 885 554 839 q 718 931 674 931 q 809 849 782 931 q 836 663 836 767 q 751 247 836 425 q 540 -26 667 68 q 296 -121 414 -121 m 756 1053 q 674 1073 707 1053 q 627 1123 642 1093 q 613 1181 613 1153 q 646 1249 613 1226 q 678 1159 650 1196 q 758 1122 706 1122 q 892 1206 844 1122 q 906 1164 906 1192 q 860 1085 906 1118 q 756 1053 815 1053 m 900 1236 q 849 1244 875 1236 q 785 1267 824 1251 q 715 1292 744 1283 q 657 1300 686 1300 q 582 1279 614 1300 q 703 1349 632 1349 q 754 1341 728 1349 q 817 1318 781 1333 q 901 1290 871 1299 q 967 1282 932 1282 q 1014 1293 989 1282 q 900 1236 968 1236 z "},"Ȍ":{"ha":865,"x_min":29,"x_max":836,"o":"m 296 -121 q 156 -78 217 -121 q 63 42 96 -36 q 29 224 29 121 q 117 579 29 397 q 340 880 206 761 q 604 999 475 999 q 688 982 657 999 l 672 982 q 435 859 557 982 q 232 553 313 736 q 151 204 151 369 q 198 5 151 83 q 338 -74 244 -74 q 563 48 461 -74 q 724 351 665 169 q 783 701 783 533 q 768 833 783 772 q 721 893 753 893 q 649 842 689 893 q 577 721 610 792 q 533 596 544 650 q 483 622 500 604 q 467 664 467 640 q 510 775 467 711 q 614 885 554 839 q 718 931 674 931 q 809 849 782 931 q 836 663 836 767 q 751 247 836 425 q 540 -26 667 68 q 296 -121 414 -121 m 772 1044 q 672 1201 728 1129 q 708 1236 686 1236 q 752 1208 731 1236 q 787 1144 774 1181 q 800 1086 800 1108 q 772 1044 800 1050 m 681 1038 q 547 1210 618 1125 q 588 1233 568 1233 q 635 1202 610 1233 q 678 1131 660 1171 q 696 1069 696 1090 q 681 1038 696 1049 z "},"Ö":{"ha":865,"x_min":29,"x_max":899,"o":"m 296 -121 q 156 -78 217 -121 q 63 42 96 -36 q 29 224 29 121 q 117 579 29 397 q 340 880 206 761 q 604 999 475 999 q 688 982 657 999 l 672 982 q 435 859 557 982 q 232 553 313 736 q 151 204 151 369 q 198 5 151 83 q 338 -74 244 -74 q 563 48 461 -74 q 724 351 665 169 q 783 701 783 533 q 768 833 783 772 q 721 893 753 893 q 649 842 689 893 q 577 721 610 792 q 533 596 544 650 q 483 622 500 604 q 467 664 467 640 q 510 775 467 711 q 614 885 554 839 q 718 931 674 931 q 809 849 782 931 q 836 663 836 767 q 751 247 836 425 q 540 -26 667 68 q 296 -121 414 -121 m 617 1075 q 580 1085 594 1075 q 565 1117 565 1096 q 595 1162 565 1142 q 657 1182 625 1182 q 699 1143 699 1182 q 673 1097 699 1119 q 617 1075 647 1075 m 817 1046 q 780 1056 794 1046 q 765 1088 765 1067 q 795 1133 765 1113 q 857 1153 825 1153 q 899 1114 899 1153 q 873 1068 899 1090 q 817 1046 847 1046 z "},"Ȫ":{"ha":865,"x_min":29,"x_max":1011,"o":"m 296 -121 q 156 -78 217 -121 q 63 42 96 -36 q 29 224 29 121 q 117 579 29 397 q 340 880 206 761 q 604 999 475 999 q 688 982 657 999 l 672 982 q 435 859 557 982 q 232 553 313 736 q 151 204 151 369 q 198 5 151 83 q 338 -74 244 -74 q 563 48 461 -74 q 724 351 665 169 q 783 701 783 533 q 768 833 783 772 q 721 893 753 893 q 649 842 689 893 q 577 721 610 792 q 533 596 544 650 q 483 622 500 604 q 467 664 467 640 q 510 775 467 711 q 614 885 554 839 q 718 931 674 931 q 809 849 782 931 q 836 663 836 767 q 751 247 836 425 q 540 -26 667 68 q 296 -121 414 -121 m 617 1075 q 580 1085 594 1075 q 565 1117 565 1096 q 595 1162 565 1142 q 657 1182 625 1182 q 699 1143 699 1182 q 673 1097 699 1119 q 617 1075 647 1075 m 817 1046 q 780 1056 794 1046 q 765 1088 765 1067 q 795 1133 765 1113 q 857 1153 825 1153 q 899 1114 899 1153 q 873 1068 899 1090 q 817 1046 847 1046 m 958 1242 q 868 1251 926 1242 q 753 1274 810 1261 q 613 1299 643 1296 q 676 1335 626 1335 q 1011 1269 790 1335 q 958 1242 992 1242 z "},"Ȱ":{"ha":865,"x_min":29,"x_max":1003,"o":"m 296 -121 q 156 -78 217 -121 q 63 42 96 -36 q 29 224 29 121 q 117 579 29 397 q 340 880 206 761 q 604 999 475 999 q 688 982 657 999 l 672 982 q 435 859 557 982 q 232 553 313 736 q 151 204 151 369 q 198 5 151 83 q 338 -74 244 -74 q 563 48 461 -74 q 724 351 665 169 q 783 701 783 533 q 768 833 783 772 q 721 893 753 893 q 649 842 689 893 q 577 721 610 792 q 533 596 544 650 q 483 622 500 604 q 467 664 467 640 q 510 775 467 711 q 614 885 554 839 q 718 931 674 931 q 809 849 782 931 q 836 663 836 767 q 751 247 836 425 q 540 -26 667 68 q 296 -121 414 -121 m 721 1071 q 681 1083 696 1071 q 665 1117 665 1094 q 694 1165 665 1146 q 756 1185 724 1185 q 804 1139 804 1185 q 778 1092 804 1113 q 721 1071 751 1071 m 950 1232 q 860 1242 918 1232 q 744 1264 801 1251 q 604 1289 635 1286 q 668 1325 618 1325 q 1003 1260 782 1325 q 950 1232 983 1232 z "},"Ọ":{"ha":865,"x_min":29,"x_max":836,"o":"m 296 -121 q 156 -78 217 -121 q 63 42 96 -36 q 29 224 29 121 q 117 579 29 397 q 340 880 206 761 q 604 999 475 999 q 688 982 657 999 l 672 982 q 435 859 557 982 q 232 553 313 736 q 151 204 151 369 q 198 5 151 83 q 338 -74 244 -74 q 563 48 461 -74 q 724 351 665 169 q 783 701 783 533 q 768 833 783 772 q 721 893 753 893 q 649 842 689 893 q 577 721 610 792 q 533 596 544 650 q 483 622 500 604 q 467 664 467 640 q 510 775 467 711 q 614 885 554 839 q 718 931 674 931 q 809 849 782 931 q 836 663 836 767 q 751 247 836 425 q 540 -26 667 68 q 296 -121 414 -121 m 233 -358 q 193 -347 208 -358 q 178 -312 178 -335 q 207 -264 178 -283 q 268 -244 236 -244 q 317 -290 317 -244 q 290 -337 317 -317 q 233 -358 264 -358 z "},"Ò":{"ha":865,"x_min":29,"x_max":836,"o":"m 296 -121 q 156 -78 217 -121 q 63 42 96 -36 q 29 224 29 121 q 117 579 29 397 q 340 880 206 761 q 604 999 475 999 q 688 982 657 999 l 672 982 q 435 859 557 982 q 232 553 313 736 q 151 204 151 369 q 198 5 151 83 q 338 -74 244 -74 q 563 48 461 -74 q 724 351 665 169 q 783 701 783 533 q 768 833 783 772 q 721 893 753 893 q 649 842 689 893 q 577 721 610 792 q 533 596 544 650 q 483 622 500 604 q 467 664 467 640 q 510 775 467 711 q 614 885 554 839 q 718 931 674 931 q 809 849 782 931 q 836 663 836 767 q 751 247 836 425 q 540 -26 667 68 q 296 -121 414 -121 m 711 1039 q 556 1200 658 1111 q 586 1243 560 1243 q 645 1210 611 1243 q 705 1134 679 1176 q 731 1075 731 1092 q 726 1055 731 1067 q 711 1039 721 1043 z "},"Ỏ":{"ha":865,"x_min":29,"x_max":847,"o":"m 296 -121 q 156 -78 217 -121 q 63 42 96 -36 q 29 224 29 121 q 117 579 29 397 q 340 880 206 761 q 604 999 475 999 q 688 982 657 999 l 672 982 q 435 859 557 982 q 232 553 313 736 q 151 204 151 369 q 198 5 151 83 q 338 -74 244 -74 q 563 48 461 -74 q 724 351 665 169 q 783 701 783 533 q 768 833 783 772 q 721 893 753 893 q 649 842 689 893 q 577 721 610 792 q 533 596 544 650 q 483 622 500 604 q 467 664 467 640 q 510 775 467 711 q 614 885 554 839 q 718 931 674 931 q 809 849 782 931 q 836 663 836 767 q 751 247 836 425 q 540 -26 667 68 q 296 -121 414 -121 m 753 1042 q 706 1057 724 1042 q 774 1076 747 1060 q 801 1124 801 1092 q 769 1169 801 1156 q 672 1183 738 1183 q 690 1228 672 1210 q 739 1247 708 1247 q 817 1217 786 1247 q 847 1140 847 1186 q 821 1069 847 1097 q 753 1042 794 1042 z "},"Ơ":{"ha":865,"x_min":29,"x_max":954,"o":"m 889 1038 q 935 1013 917 1038 q 954 949 954 988 q 929 881 954 908 q 864 853 904 853 q 799 872 833 853 q 836 663 836 799 q 751 247 836 425 q 540 -26 667 68 q 296 -121 414 -121 q 156 -78 217 -121 q 63 42 96 -36 q 29 224 29 121 q 117 579 29 397 q 340 880 206 761 q 604 999 475 999 q 688 982 657 999 l 672 982 q 435 859 557 982 q 232 553 313 736 q 151 204 151 369 q 198 5 151 83 q 338 -74 244 -74 q 563 48 461 -74 q 724 351 665 169 q 783 701 783 533 q 768 833 783 772 q 721 893 753 893 q 649 842 689 893 q 577 721 610 792 q 533 596 544 650 q 483 622 500 604 q 467 664 467 640 q 510 775 467 711 q 614 885 554 839 q 718 931 674 931 q 754 926 740 931 q 785 913 768 921 q 839 897 810 897 q 871 908 860 897 q 882 935 882 918 q 868 976 882 960 q 831 1010 854 993 q 889 1038 856 1038 z "},"Ớ":{"ha":865,"x_min":29,"x_max":954,"o":"m 889 1038 q 935 1013 917 1038 q 954 949 954 988 q 929 881 954 908 q 864 853 904 853 q 799 872 833 853 q 836 663 836 799 q 751 247 836 425 q 540 -26 667 68 q 296 -121 414 -121 q 156 -78 217 -121 q 63 42 96 -36 q 29 224 29 121 q 117 579 29 397 q 340 880 206 761 q 604 999 475 999 q 688 982 657 999 l 672 982 q 435 859 557 982 q 232 553 313 736 q 151 204 151 369 q 198 5 151 83 q 338 -74 244 -74 q 563 48 461 -74 q 724 351 665 169 q 783 701 783 533 q 768 833 783 772 q 721 893 753 893 q 649 842 689 893 q 577 721 610 792 q 533 596 544 650 q 483 622 500 604 q 467 664 467 640 q 510 775 467 711 q 614 885 554 839 q 718 931 674 931 q 754 926 740 931 q 785 913 768 921 q 839 897 810 897 q 871 908 860 897 q 882 935 882 918 q 868 976 882 960 q 831 1010 854 993 q 889 1038 856 1038 m 714 1039 q 699 1055 704 1043 q 694 1075 694 1067 q 720 1134 694 1092 q 780 1210 746 1176 q 839 1243 814 1243 q 869 1200 865 1243 q 714 1039 767 1111 z "},"Ợ":{"ha":865,"x_min":29,"x_max":954,"o":"m 889 1038 q 935 1013 917 1038 q 954 949 954 988 q 929 881 954 908 q 864 853 904 853 q 799 872 833 853 q 836 663 836 799 q 751 247 836 425 q 540 -26 667 68 q 296 -121 414 -121 q 156 -78 217 -121 q 63 42 96 -36 q 29 224 29 121 q 117 579 29 397 q 340 880 206 761 q 604 999 475 999 q 688 982 657 999 l 672 982 q 435 859 557 982 q 232 553 313 736 q 151 204 151 369 q 198 5 151 83 q 338 -74 244 -74 q 563 48 461 -74 q 724 351 665 169 q 783 701 783 533 q 768 833 783 772 q 721 893 753 893 q 649 842 689 893 q 577 721 610 792 q 533 596 544 650 q 483 622 500 604 q 467 664 467 640 q 510 775 467 711 q 614 885 554 839 q 718 931 674 931 q 754 926 740 931 q 785 913 768 921 q 839 897 810 897 q 871 908 860 897 q 882 935 882 918 q 868 976 882 960 q 831 1010 854 993 q 889 1038 856 1038 m 233 -358 q 193 -347 208 -358 q 178 -312 178 -335 q 207 -264 178 -283 q 268 -244 236 -244 q 317 -290 317 -244 q 290 -337 317 -317 q 233 -358 264 -358 z "},"Ờ":{"ha":865,"x_min":29,"x_max":954,"o":"m 889 1038 q 935 1013 917 1038 q 954 949 954 988 q 929 881 954 908 q 864 853 904 853 q 799 872 833 853 q 836 663 836 799 q 751 247 836 425 q 540 -26 667 68 q 296 -121 414 -121 q 156 -78 217 -121 q 63 42 96 -36 q 29 224 29 121 q 117 579 29 397 q 340 880 206 761 q 604 999 475 999 q 688 982 657 999 l 672 982 q 435 859 557 982 q 232 553 313 736 q 151 204 151 369 q 198 5 151 83 q 338 -74 244 -74 q 563 48 461 -74 q 724 351 665 169 q 783 701 783 533 q 768 833 783 772 q 721 893 753 893 q 649 842 689 893 q 577 721 610 792 q 533 596 544 650 q 483 622 500 604 q 467 664 467 640 q 510 775 467 711 q 614 885 554 839 q 718 931 674 931 q 754 926 740 931 q 785 913 768 921 q 839 897 810 897 q 871 908 860 897 q 882 935 882 918 q 868 976 882 960 q 831 1010 854 993 q 889 1038 856 1038 m 711 1039 q 556 1200 658 1111 q 586 1243 560 1243 q 645 1210 611 1243 q 705 1134 679 1176 q 731 1075 731 1092 q 726 1055 731 1067 q 711 1039 721 1043 z "},"Ở":{"ha":865,"x_min":29,"x_max":954,"o":"m 889 1038 q 935 1013 917 1038 q 954 949 954 988 q 929 881 954 908 q 864 853 904 853 q 799 872 833 853 q 836 663 836 799 q 751 247 836 425 q 540 -26 667 68 q 296 -121 414 -121 q 156 -78 217 -121 q 63 42 96 -36 q 29 224 29 121 q 117 579 29 397 q 340 880 206 761 q 604 999 475 999 q 688 982 657 999 l 672 982 q 435 859 557 982 q 232 553 313 736 q 151 204 151 369 q 198 5 151 83 q 338 -74 244 -74 q 563 48 461 -74 q 724 351 665 169 q 783 701 783 533 q 768 833 783 772 q 721 893 753 893 q 649 842 689 893 q 577 721 610 792 q 533 596 544 650 q 483 622 500 604 q 467 664 467 640 q 510 775 467 711 q 614 885 554 839 q 718 931 674 931 q 754 926 740 931 q 785 913 768 921 q 839 897 810 897 q 871 908 860 897 q 882 935 882 918 q 868 976 882 960 q 831 1010 854 993 q 889 1038 856 1038 m 753 1042 q 706 1057 724 1042 q 774 1076 747 1060 q 801 1124 801 1092 q 769 1169 801 1156 q 672 1183 738 1183 q 690 1228 672 1210 q 739 1247 708 1247 q 817 1217 786 1247 q 847 1140 847 1186 q 821 1069 847 1097 q 753 1042 794 1042 z "},"Ỡ":{"ha":865,"x_min":29,"x_max":954,"o":"m 889 1038 q 935 1013 917 1038 q 954 949 954 988 q 929 881 954 908 q 864 853 904 853 q 799 872 833 853 q 836 663 836 799 q 751 247 836 425 q 540 -26 667 68 q 296 -121 414 -121 q 156 -78 217 -121 q 63 42 96 -36 q 29 224 29 121 q 117 579 29 397 q 340 880 206 761 q 604 999 475 999 q 688 982 657 999 l 672 982 q 435 859 557 982 q 232 553 313 736 q 151 204 151 369 q 198 5 151 83 q 338 -74 244 -74 q 563 48 461 -74 q 724 351 665 169 q 783 701 783 533 q 768 833 783 772 q 721 893 753 893 q 649 842 689 893 q 577 721 610 792 q 533 596 544 650 q 483 622 500 604 q 467 664 467 640 q 510 775 467 711 q 614 885 554 839 q 718 931 674 931 q 754 926 740 931 q 785 913 768 921 q 839 897 810 897 q 871 908 860 897 q 882 935 882 918 q 868 976 882 960 q 831 1010 854 993 q 889 1038 856 1038 m 833 1057 q 783 1065 808 1057 q 718 1088 757 1072 q 649 1113 678 1104 q 590 1121 619 1121 q 515 1100 547 1121 q 636 1169 565 1169 q 688 1162 661 1169 q 750 1139 714 1154 q 835 1111 804 1119 q 900 1103 865 1103 q 947 1114 922 1103 q 833 1057 901 1057 z "},"Ő":{"ha":865,"x_min":29,"x_max":900,"o":"m 296 -121 q 156 -78 217 -121 q 63 42 96 -36 q 29 224 29 121 q 117 579 29 397 q 340 880 206 761 q 604 999 475 999 q 688 982 657 999 l 672 982 q 435 859 557 982 q 232 553 313 736 q 151 204 151 369 q 198 5 151 83 q 338 -74 244 -74 q 563 48 461 -74 q 724 351 665 169 q 783 701 783 533 q 768 833 783 772 q 721 893 753 893 q 649 842 689 893 q 577 721 610 792 q 533 596 544 650 q 483 622 500 604 q 467 664 467 640 q 510 775 467 711 q 614 885 554 839 q 718 931 674 931 q 809 849 782 931 q 836 663 836 767 q 751 247 836 425 q 540 -26 667 68 q 296 -121 414 -121 m 657 1068 q 632 1106 632 1075 q 650 1172 632 1131 q 694 1246 668 1214 q 743 1278 719 1278 q 775 1240 764 1278 q 657 1068 694 1142 m 751 1039 q 738 1072 738 1049 q 760 1133 738 1090 q 810 1209 782 1175 q 861 1243 839 1243 q 882 1236 874 1243 q 900 1217 890 1229 q 751 1039 822 1132 z "},"Ȏ":{"ha":865,"x_min":29,"x_max":888,"o":"m 296 -121 q 156 -78 217 -121 q 63 42 96 -36 q 29 224 29 121 q 117 579 29 397 q 340 880 206 761 q 604 999 475 999 q 688 982 657 999 l 672 982 q 435 859 557 982 q 232 553 313 736 q 151 204 151 369 q 198 5 151 83 q 338 -74 244 -74 q 563 48 461 -74 q 724 351 665 169 q 783 701 783 533 q 768 833 783 772 q 721 893 753 893 q 649 842 689 893 q 577 721 610 792 q 533 596 544 650 q 483 622 500 604 q 467 664 467 640 q 510 775 467 711 q 614 885 554 839 q 718 931 674 931 q 809 849 782 931 q 836 663 836 767 q 751 247 836 425 q 540 -26 667 68 q 296 -121 414 -121 m 854 1011 q 820 1101 850 1065 q 731 1138 790 1138 q 608 1054 653 1138 q 594 1096 594 1069 q 638 1175 594 1143 q 743 1207 681 1207 q 823 1188 790 1207 q 872 1140 856 1168 q 888 1086 888 1113 q 854 1011 888 1036 z "},"Ō":{"ha":865,"x_min":29,"x_max":917,"o":"m 296 -121 q 156 -78 217 -121 q 63 42 96 -36 q 29 224 29 121 q 117 579 29 397 q 340 880 206 761 q 604 999 475 999 q 688 982 657 999 l 672 982 q 435 859 557 982 q 232 553 313 736 q 151 204 151 369 q 198 5 151 83 q 338 -74 244 -74 q 563 48 461 -74 q 724 351 665 169 q 783 701 783 533 q 768 833 783 772 q 721 893 753 893 q 649 842 689 893 q 577 721 610 792 q 533 596 544 650 q 483 622 500 604 q 467 664 467 640 q 510 775 467 711 q 614 885 554 839 q 718 931 674 931 q 809 849 782 931 q 836 663 836 767 q 751 247 836 425 q 540 -26 667 68 q 296 -121 414 -121 m 864 1050 q 774 1060 832 1050 q 658 1082 715 1069 q 518 1107 549 1104 q 582 1143 532 1143 q 917 1078 696 1143 q 864 1050 897 1050 z "},"Ǫ":{"ha":865,"x_min":29,"x_max":836,"o":"m 417 -97 q 368 -178 368 -129 q 386 -222 368 -204 q 436 -239 404 -239 q 506 -215 474 -239 q 479 -276 504 -254 q 414 -299 454 -299 q 344 -272 371 -299 q 318 -204 318 -246 q 333 -148 318 -172 q 375 -110 349 -124 q 296 -121 331 -121 q 156 -78 217 -121 q 63 42 96 -36 q 29 224 29 121 q 117 579 29 397 q 340 880 206 761 q 604 999 475 999 q 688 982 657 999 l 672 982 q 435 859 557 982 q 232 553 313 736 q 151 204 151 369 q 198 5 151 83 q 338 -74 244 -74 q 563 48 461 -74 q 724 351 665 169 q 783 701 783 533 q 768 833 783 772 q 721 893 753 893 q 649 842 689 893 q 577 721 610 792 q 533 596 544 650 q 483 622 500 604 q 467 664 467 640 q 510 775 467 711 q 614 885 554 839 q 718 931 674 931 q 809 849 782 931 q 836 663 836 767 q 776 306 836 464 q 619 46 715 147 q 417 -97 524 -56 z "},"Ø":{"ha":865,"x_min":29,"x_max":922,"o":"m 64 -140 q 42 -137 56 -140 q 128 -54 72 -117 q 55 62 81 -10 q 29 224 29 133 q 117 579 29 397 q 340 880 206 761 q 604 999 475 999 q 688 982 657 999 l 672 982 q 435 859 557 982 q 232 553 313 736 q 151 204 151 369 q 190 17 151 86 q 456 381 310 165 q 764 844 603 596 q 721 893 747 893 q 649 842 689 893 q 577 721 610 792 q 533 596 544 650 q 483 622 500 604 q 467 664 467 640 q 510 775 467 711 q 614 885 554 839 q 718 931 674 931 q 790 886 763 931 l 796 893 q 838 920 806 908 q 900 932 869 932 q 922 931 915 932 l 903 901 l 825 786 q 836 663 836 731 q 751 247 836 425 q 540 -26 667 68 q 296 -121 414 -121 q 183 -94 236 -121 q 64 -140 119 -140 m 338 -74 q 563 48 461 -74 q 724 351 665 169 q 783 701 783 533 l 783 724 q 332 64 482 278 q 242 -44 283 -4 q 338 -74 285 -74 z "},"Ǿ":{"ha":865,"x_min":29,"x_max":922,"o":"m 64 -140 q 42 -137 56 -140 q 128 -54 72 -117 q 55 62 81 -10 q 29 224 29 133 q 117 579 29 397 q 340 880 206 761 q 604 999 475 999 q 688 982 657 999 l 672 982 q 435 859 557 982 q 232 553 313 736 q 151 204 151 369 q 190 17 151 86 q 456 381 310 165 q 764 844 603 596 q 721 893 747 893 q 649 842 689 893 q 577 721 610 792 q 533 596 544 650 q 483 622 500 604 q 467 664 467 640 q 510 775 467 711 q 614 885 554 839 q 718 931 674 931 q 790 886 763 931 l 796 893 q 838 920 806 908 q 900 932 869 932 q 922 931 915 932 l 903 901 l 825 786 q 836 663 836 731 q 751 247 836 425 q 540 -26 667 68 q 296 -121 414 -121 q 183 -94 236 -121 q 64 -140 119 -140 m 338 -74 q 563 48 461 -74 q 724 351 665 169 q 783 701 783 533 l 783 724 q 332 64 482 278 q 242 -44 283 -4 q 338 -74 285 -74 m 714 1039 q 699 1055 704 1043 q 694 1075 694 1067 q 720 1134 694 1092 q 780 1210 746 1176 q 839 1243 814 1243 q 869 1200 865 1243 q 714 1039 767 1111 z "},"Õ":{"ha":865,"x_min":29,"x_max":947,"o":"m 296 -121 q 156 -78 217 -121 q 63 42 96 -36 q 29 224 29 121 q 117 579 29 397 q 340 880 206 761 q 604 999 475 999 q 688 982 657 999 l 672 982 q 435 859 557 982 q 232 553 313 736 q 151 204 151 369 q 198 5 151 83 q 338 -74 244 -74 q 563 48 461 -74 q 724 351 665 169 q 783 701 783 533 q 768 833 783 772 q 721 893 753 893 q 649 842 689 893 q 577 721 610 792 q 533 596 544 650 q 483 622 500 604 q 467 664 467 640 q 510 775 467 711 q 614 885 554 839 q 718 931 674 931 q 809 849 782 931 q 836 663 836 767 q 751 247 836 425 q 540 -26 667 68 q 296 -121 414 -121 m 833 1057 q 783 1065 808 1057 q 718 1088 757 1072 q 649 1113 678 1104 q 590 1121 619 1121 q 515 1100 547 1121 q 636 1169 565 1169 q 688 1162 661 1169 q 750 1139 714 1154 q 835 1111 804 1119 q 900 1103 865 1103 q 947 1114 922 1103 q 833 1057 901 1057 z "},"Ȭ":{"ha":865,"x_min":29,"x_max":1014,"o":"m 296 -121 q 156 -78 217 -121 q 63 42 96 -36 q 29 224 29 121 q 117 579 29 397 q 340 880 206 761 q 604 999 475 999 q 688 982 657 999 l 672 982 q 435 859 557 982 q 232 553 313 736 q 151 204 151 369 q 198 5 151 83 q 338 -74 244 -74 q 563 48 461 -74 q 724 351 665 169 q 783 701 783 533 q 768 833 783 772 q 721 893 753 893 q 649 842 689 893 q 577 721 610 792 q 533 596 544 650 q 483 622 500 604 q 467 664 467 640 q 510 775 467 711 q 614 885 554 839 q 718 931 674 931 q 809 849 782 931 q 836 663 836 767 q 751 247 836 425 q 540 -26 667 68 q 296 -121 414 -121 m 833 1057 q 783 1065 808 1057 q 718 1088 757 1072 q 649 1113 678 1104 q 590 1121 619 1121 q 515 1100 547 1121 q 636 1169 565 1169 q 688 1162 661 1169 q 750 1139 714 1154 q 835 1111 804 1119 q 900 1103 865 1103 q 947 1114 922 1103 q 833 1057 901 1057 m 961 1222 q 871 1232 929 1222 q 756 1254 813 1242 q 615 1279 646 1276 q 679 1315 629 1315 q 1014 1250 793 1315 q 961 1222 994 1222 z "},"Œ":{"ha":1110,"x_min":29,"x_max":1149,"o":"m 328 -121 q 110 -34 190 -121 q 29 224 29 53 q 117 579 29 397 q 340 880 206 761 q 604 999 475 999 q 688 982 657 999 l 672 982 q 435 859 557 982 q 232 553 313 736 q 151 204 151 369 q 198 5 151 83 q 338 -74 244 -74 q 537 48 444 -74 q 685 352 629 169 q 740 701 740 535 q 699 878 740 878 q 533 596 647 878 q 483 622 500 604 q 467 664 467 640 q 510 775 467 711 q 615 885 554 839 q 721 931 675 931 q 879 936 813 936 q 1149 913 1078 936 q 1074 873 1138 883 q 913 863 1011 863 q 853 865 889 863 l 801 867 q 812 818 807 851 q 817 758 817 785 q 810 622 817 699 q 799 507 804 546 q 1081 493 988 507 q 1020 443 1069 461 q 888 425 971 425 q 785 428 838 425 q 727 198 753 282 q 661 48 701 114 q 557 -58 621 -18 q 789 -61 629 -61 l 863 -58 q 954 -56 926 -56 q 982 -57 976 -56 q 844 -106 969 -89 q 568 -122 718 -122 l 328 -121 z "},"P":{"ha":732,"x_min":25,"x_max":814,"o":"m 121 -121 q 54 -101 83 -121 q 25 -51 25 -81 q 44 25 25 -31 q 219 547 150 353 q 386 963 289 742 q 225 900 310 947 q 193 886 197 886 q 167 900 183 886 q 150 924 150 914 q 457 1000 328 1000 q 626 969 543 1000 q 761 877 708 938 q 814 732 814 817 q 711 530 814 601 q 488 435 608 458 q 285 411 367 411 l 271 411 q 188 114 264 388 q 121 -121 139 -62 m 276 433 q 488 476 386 439 q 655 585 589 514 q 721 756 721 656 q 649 915 721 861 q 469 971 576 969 q 276 433 385 803 z "},"Þ":{"ha":706,"x_min":43,"x_max":735,"o":"m 139 -121 q 72 -101 101 -121 q 43 -51 43 -81 q 52 -6 43 -33 q 63 25 61 21 q 196 431 138 258 q 322 771 254 603 q 233 747 271 763 q 146 707 196 732 q 114 692 122 692 q 88 706 104 692 q 71 729 71 719 q 335 803 224 794 l 351 844 q 401 956 378 917 q 458 994 425 994 q 494 983 476 994 q 417 804 456 907 q 570 764 497 797 q 689 673 643 731 q 735 538 735 615 q 644 345 735 415 q 442 248 554 275 q 233 217 329 221 l 192 69 q 139 -121 168 -19 m 240 243 q 435 294 344 256 q 584 400 526 332 q 642 561 642 468 q 574 717 642 664 q 406 775 507 771 q 240 243 339 593 z "},"Q":{"ha":963,"x_min":49,"x_max":881,"o":"m 717 -165 q 610 -136 660 -165 q 494 -51 560 -107 q 356 -87 422 -87 q 263 -65 297 -87 q 216 -15 229 -43 q 203 35 203 14 q 228 85 203 63 q 304 107 254 107 q 403 85 356 107 q 525 18 450 64 q 662 212 603 89 q 752 469 721 335 q 783 707 783 604 q 738 894 783 826 q 600 963 693 963 q 369 842 474 963 q 204 543 264 722 q 144 200 144 364 q 156 83 144 135 q 49 276 49 83 q 124 617 49 449 q 326 893 200 786 q 599 1000 453 1000 q 806 910 731 1000 q 881 663 881 819 q 840 418 881 547 q 727 176 799 289 q 567 -6 656 63 q 670 -53 621 -36 q 772 -69 719 -69 q 824 -62 803 -69 q 853 -53 844 -56 q 717 -165 819 -165 m 356 -53 q 464 -24 410 -53 q 372 47 411 22 q 290 71 332 71 q 250 60 261 71 q 239 33 239 49 q 266 -24 239 6 q 356 -53 293 -53 z "},"R":{"ha":801,"x_min":22,"x_max":807,"o":"m 644 -168 q 522 -76 596 -168 q 376 147 449 17 q 257 385 303 276 q 182 121 225 278 q 114 -121 158 32 q 50 -101 78 -121 q 22 -51 22 -81 q 42 25 22 -31 q 213 523 135 314 q 393 965 290 732 q 302 941 340 957 q 219 901 264 925 q 186 886 193 886 q 160 900 176 886 q 143 924 143 914 q 456 1000 321 1000 q 622 972 542 1000 q 755 886 703 944 q 807 740 807 828 q 708 549 807 617 q 491 460 608 482 q 289 439 374 439 q 315 393 303 414 q 336 356 326 372 q 441 179 396 249 q 553 33 486 110 q 715 -122 621 -44 q 685 -154 707 -140 q 644 -168 664 -168 m 279 461 q 488 503 389 468 q 650 604 586 538 q 714 769 714 671 q 642 923 714 875 q 465 971 571 971 q 279 461 382 804 z "},"Ŕ":{"ha":801,"x_min":22,"x_max":807,"o":"m 644 -168 q 522 -76 596 -168 q 376 147 449 17 q 257 385 303 276 q 182 121 225 278 q 114 -121 158 32 q 50 -101 78 -121 q 22 -51 22 -81 q 42 25 22 -31 q 213 523 135 314 q 393 965 290 732 q 302 941 340 957 q 219 901 264 925 q 186 886 193 886 q 160 900 176 886 q 143 924 143 914 q 456 1000 321 1000 q 622 972 542 1000 q 755 886 703 944 q 807 740 807 828 q 708 549 807 617 q 491 460 608 482 q 289 439 374 439 q 315 393 303 414 q 336 356 326 372 q 441 179 396 249 q 553 33 486 110 q 715 -122 621 -44 q 685 -154 707 -140 q 644 -168 664 -168 m 279 461 q 488 503 389 468 q 650 604 586 538 q 714 769 714 671 q 642 923 714 875 q 465 971 571 971 q 279 461 382 804 m 628 1039 q 613 1055 618 1043 q 608 1075 608 1067 q 634 1134 608 1092 q 694 1210 660 1176 q 753 1243 728 1243 q 783 1200 779 1243 q 628 1039 681 1111 z "},"Ř":{"ha":801,"x_min":22,"x_max":807,"o":"m 644 -168 q 522 -76 596 -168 q 376 147 449 17 q 257 385 303 276 q 182 121 225 278 q 114 -121 158 32 q 50 -101 78 -121 q 22 -51 22 -81 q 42 25 22 -31 q 213 523 135 314 q 393 965 290 732 q 302 941 340 957 q 219 901 264 925 q 186 886 193 886 q 160 900 176 886 q 143 924 143 914 q 456 1000 321 1000 q 622 972 542 1000 q 755 886 703 944 q 807 740 807 828 q 708 549 807 617 q 491 460 608 482 q 289 439 374 439 q 315 393 303 414 q 336 356 326 372 q 441 179 396 249 q 553 33 486 110 q 715 -122 621 -44 q 685 -154 707 -140 q 644 -168 664 -168 m 279 461 q 488 503 389 468 q 650 604 586 538 q 714 769 714 671 q 642 923 714 875 q 465 971 571 971 q 279 461 382 804 m 624 1047 q 572 1074 601 1047 q 520 1136 542 1100 q 499 1201 499 1172 q 522 1244 499 1233 q 564 1181 540 1208 q 625 1117 588 1153 q 706 1151 672 1133 q 768 1196 739 1169 q 782 1169 782 1188 q 751 1116 782 1144 q 682 1067 721 1088 q 624 1047 643 1047 z "},"Ŗ":{"ha":801,"x_min":22,"x_max":807,"o":"m 644 -168 q 522 -76 596 -168 q 376 147 449 17 q 257 385 303 276 q 182 121 225 278 q 114 -121 158 32 q 50 -101 78 -121 q 22 -51 22 -81 q 42 25 22 -31 q 213 523 135 314 q 393 965 290 732 q 302 941 340 957 q 219 901 264 925 q 186 886 193 886 q 160 900 176 886 q 143 924 143 914 q 456 1000 321 1000 q 622 972 542 1000 q 755 886 703 944 q 807 740 807 828 q 708 549 807 617 q 491 460 608 482 q 289 439 374 439 q 315 393 303 414 q 336 356 326 372 q 441 179 396 249 q 553 33 486 110 q 715 -122 621 -44 q 685 -154 707 -140 q 644 -168 664 -168 m 279 461 q 488 503 389 468 q 650 604 586 538 q 714 769 714 671 q 642 923 714 875 q 465 971 571 971 q 279 461 382 804 m 256 -356 q 232 -304 232 -342 q 260 -207 232 -258 q 317 -156 288 -156 q 341 -167 331 -156 q 351 -194 351 -179 q 304 -256 322 -225 q 274 -316 286 -287 q 256 -356 261 -344 z "},"Ȑ":{"ha":801,"x_min":22,"x_max":807,"o":"m 644 -168 q 522 -76 596 -168 q 376 147 449 17 q 257 385 303 276 q 182 121 225 278 q 114 -121 158 32 q 50 -101 78 -121 q 22 -51 22 -81 q 42 25 22 -31 q 213 523 135 314 q 393 965 290 732 q 302 941 340 957 q 219 901 264 925 q 186 886 193 886 q 160 900 176 886 q 143 924 143 914 q 456 1000 321 1000 q 622 972 542 1000 q 755 886 703 944 q 807 740 807 828 q 708 549 807 617 q 491 460 608 482 q 289 439 374 439 q 315 393 303 414 q 336 356 326 372 q 441 179 396 249 q 553 33 486 110 q 715 -122 621 -44 q 685 -154 707 -140 q 644 -168 664 -168 m 279 461 q 488 503 389 468 q 650 604 586 538 q 714 769 714 671 q 642 923 714 875 q 465 971 571 971 q 279 461 382 804 m 686 1044 q 586 1201 642 1129 q 622 1236 600 1236 q 666 1208 644 1236 q 701 1144 688 1181 q 714 1086 714 1108 q 686 1044 714 1050 m 594 1038 q 461 1210 532 1125 q 501 1233 482 1233 q 549 1202 524 1233 q 592 1131 574 1171 q 610 1069 610 1090 q 594 1038 610 1049 z "},"Ȓ":{"ha":801,"x_min":22,"x_max":807,"o":"m 644 -168 q 522 -76 596 -168 q 376 147 449 17 q 257 385 303 276 q 182 121 225 278 q 114 -121 158 32 q 50 -101 78 -121 q 22 -51 22 -81 q 42 25 22 -31 q 213 523 135 314 q 393 965 290 732 q 302 941 340 957 q 219 901 264 925 q 186 886 193 886 q 160 900 176 886 q 143 924 143 914 q 456 1000 321 1000 q 622 972 542 1000 q 755 886 703 944 q 807 740 807 828 q 708 549 807 617 q 491 460 608 482 q 289 439 374 439 q 315 393 303 414 q 336 356 326 372 q 441 179 396 249 q 553 33 486 110 q 715 -122 621 -44 q 685 -154 707 -140 q 644 -168 664 -168 m 279 461 q 488 503 389 468 q 650 604 586 538 q 714 769 714 671 q 642 923 714 875 q 465 971 571 971 q 279 461 382 804 m 768 1011 q 734 1101 764 1065 q 644 1138 704 1138 q 522 1054 567 1138 q 508 1096 508 1069 q 551 1175 508 1143 q 657 1207 594 1207 q 737 1188 704 1207 q 785 1140 769 1168 q 801 1086 801 1113 q 768 1011 801 1036 z "},"S":{"ha":744,"x_min":-8,"x_max":683,"o":"m 282 -121 q 138 -93 204 -121 q 31 -9 71 -65 q -8 128 -8 47 q 46 270 -8 226 q 169 314 100 314 q 113 225 132 274 q 93 128 93 176 q 148 -11 93 44 q 306 -67 203 -67 q 430 -43 371 -67 q 526 26 489 -19 q 564 136 564 72 q 536 234 564 192 q 467 306 508 276 q 356 378 425 336 q 242 451 285 419 q 171 526 200 482 q 142 629 142 571 q 192 797 142 710 q 333 942 242 883 q 538 1000 424 1000 q 649 963 614 1000 q 683 861 683 925 q 650 706 683 792 q 576 556 617 619 q 531 615 531 565 q 541 675 531 642 q 571 758 551 708 q 602 847 592 813 q 613 907 613 881 q 595 951 613 936 q 535 967 578 967 q 383 916 453 967 q 271 793 313 865 q 229 661 229 721 q 253 582 229 617 q 314 522 278 547 q 413 461 350 496 q 533 384 488 418 q 612 298 579 350 q 644 175 644 246 q 591 17 644 83 q 454 -85 538 -50 q 282 -121 371 -121 z "},"Ś":{"ha":744,"x_min":-8,"x_max":751,"o":"m 282 -121 q 138 -93 204 -121 q 31 -9 71 -65 q -8 128 -8 47 q 46 270 -8 226 q 169 314 100 314 q 113 225 132 274 q 93 128 93 176 q 148 -11 93 44 q 306 -67 203 -67 q 430 -43 371 -67 q 526 26 489 -19 q 564 136 564 72 q 536 234 564 192 q 467 306 508 276 q 356 378 425 336 q 242 451 285 419 q 171 526 200 482 q 142 629 142 571 q 192 797 142 710 q 333 942 242 883 q 538 1000 424 1000 q 649 963 614 1000 q 683 861 683 925 q 650 706 683 792 q 576 556 617 619 q 531 615 531 565 q 541 675 531 642 q 571 758 551 708 q 602 847 592 813 q 613 907 613 881 q 595 951 613 936 q 535 967 578 967 q 383 916 453 967 q 271 793 313 865 q 229 661 229 721 q 253 582 229 617 q 314 522 278 547 q 413 461 350 496 q 533 384 488 418 q 612 298 579 350 q 644 175 644 246 q 591 17 644 83 q 454 -85 538 -50 q 282 -121 371 -121 m 596 1025 q 581 1041 586 1029 q 576 1061 576 1053 q 602 1120 576 1078 q 662 1196 628 1163 q 721 1229 696 1229 q 751 1186 747 1229 q 596 1025 649 1097 z "},"Š":{"ha":744,"x_min":-8,"x_max":750,"o":"m 282 -121 q 138 -93 204 -121 q 31 -9 71 -65 q -8 128 -8 47 q 46 270 -8 226 q 169 314 100 314 q 113 225 132 274 q 93 128 93 176 q 148 -11 93 44 q 306 -67 203 -67 q 430 -43 371 -67 q 526 26 489 -19 q 564 136 564 72 q 536 234 564 192 q 467 306 508 276 q 356 378 425 336 q 242 451 285 419 q 171 526 200 482 q 142 629 142 571 q 192 797 142 710 q 333 942 242 883 q 538 1000 424 1000 q 649 963 614 1000 q 683 861 683 925 q 650 706 683 792 q 576 556 617 619 q 531 615 531 565 q 541 675 531 642 q 571 758 551 708 q 602 847 592 813 q 613 907 613 881 q 595 951 613 936 q 535 967 578 967 q 383 916 453 967 q 271 793 313 865 q 229 661 229 721 q 253 582 229 617 q 314 522 278 547 q 413 461 350 496 q 533 384 488 418 q 612 298 579 350 q 644 175 644 246 q 591 17 644 83 q 454 -85 538 -50 q 282 -121 371 -121 m 592 1033 q 540 1060 569 1033 q 488 1122 510 1086 q 467 1188 467 1158 q 490 1231 467 1219 q 532 1167 508 1194 q 593 1103 556 1139 q 674 1138 640 1119 q 736 1182 707 1156 q 750 1156 750 1174 q 719 1102 750 1131 q 650 1053 689 1074 q 592 1033 611 1033 z "},"Ş":{"ha":744,"x_min":-8,"x_max":683,"o":"m 229 661 q 253 582 229 617 q 314 522 278 547 q 413 461 350 496 q 533 384 488 418 q 612 298 579 350 q 644 175 644 246 q 591 17 644 83 q 454 -85 538 -50 q 282 -121 371 -121 l 279 -121 l 218 -214 q 260 -190 239 -199 q 311 -181 282 -181 q 374 -239 374 -181 q 351 -314 374 -278 q 290 -372 328 -350 q 211 -394 253 -394 q 149 -380 172 -394 q 126 -344 126 -365 q 157 -299 126 -321 q 180 -346 164 -331 q 215 -361 196 -361 q 267 -342 240 -361 q 313 -293 294 -322 q 331 -240 331 -264 q 325 -217 331 -228 q 307 -206 319 -206 q 274 -215 292 -206 q 226 -243 256 -225 q 208 -254 221 -246 q 189 -262 194 -262 q 175 -254 181 -262 q 169 -237 169 -246 q 201 -190 169 -233 q 256 -119 232 -147 q 67 -49 143 -112 q -8 128 -8 15 q 46 270 -8 226 q 169 314 100 314 q 113 225 132 274 q 93 128 93 176 q 148 -11 93 44 q 306 -67 203 -67 q 430 -43 371 -67 q 526 26 489 -19 q 564 136 564 72 q 536 234 564 192 q 467 306 508 276 q 356 378 425 336 q 242 451 285 419 q 171 526 200 482 q 142 629 142 571 q 192 797 142 710 q 333 942 242 883 q 538 1000 424 1000 q 649 963 614 1000 q 683 861 683 925 q 650 706 683 792 q 576 556 617 619 q 531 615 531 565 q 541 675 531 642 q 571 758 551 708 q 602 847 592 813 q 613 907 613 881 q 595 951 613 936 q 535 967 578 967 q 383 916 453 967 q 271 793 313 865 q 229 661 229 721 z "},"Ŝ":{"ha":744,"x_min":-8,"x_max":747,"o":"m 282 -121 q 138 -93 204 -121 q 31 -9 71 -65 q -8 128 -8 47 q 46 270 -8 226 q 169 314 100 314 q 113 225 132 274 q 93 128 93 176 q 148 -11 93 44 q 306 -67 203 -67 q 430 -43 371 -67 q 526 26 489 -19 q 564 136 564 72 q 536 234 564 192 q 467 306 508 276 q 356 378 425 336 q 242 451 285 419 q 171 526 200 482 q 142 629 142 571 q 192 797 142 710 q 333 942 242 883 q 538 1000 424 1000 q 649 963 614 1000 q 683 861 683 925 q 650 706 683 792 q 576 556 617 619 q 531 615 531 565 q 541 675 531 642 q 571 758 551 708 q 602 847 592 813 q 613 907 613 881 q 595 951 613 936 q 535 967 578 967 q 383 916 453 967 q 271 793 313 865 q 229 661 229 721 q 253 582 229 617 q 314 522 278 547 q 413 461 350 496 q 533 384 488 418 q 612 298 579 350 q 644 175 644 246 q 591 17 644 83 q 454 -85 538 -50 q 282 -121 371 -121 m 724 1019 q 682 1083 706 1056 q 621 1147 658 1111 q 540 1113 574 1131 q 478 1068 507 1094 q 464 1094 464 1076 q 494 1148 464 1119 q 564 1197 525 1176 q 622 1217 603 1217 q 674 1190 644 1217 q 726 1128 704 1164 q 747 1063 747 1092 q 724 1019 747 1032 z "},"Ș":{"ha":744,"x_min":-8,"x_max":683,"o":"m 282 -121 q 138 -93 204 -121 q 31 -9 71 -65 q -8 128 -8 47 q 46 270 -8 226 q 169 314 100 314 q 113 225 132 274 q 93 128 93 176 q 148 -11 93 44 q 306 -67 203 -67 q 430 -43 371 -67 q 526 26 489 -19 q 564 136 564 72 q 536 234 564 192 q 467 306 508 276 q 356 378 425 336 q 242 451 285 419 q 171 526 200 482 q 142 629 142 571 q 192 797 142 710 q 333 942 242 883 q 538 1000 424 1000 q 649 963 614 1000 q 683 861 683 925 q 650 706 683 792 q 576 556 617 619 q 531 615 531 565 q 541 675 531 642 q 571 758 551 708 q 602 847 592 813 q 613 907 613 881 q 595 951 613 936 q 535 967 578 967 q 383 916 453 967 q 271 793 313 865 q 229 661 229 721 q 253 582 229 617 q 314 522 278 547 q 413 461 350 496 q 533 384 488 418 q 612 298 579 350 q 644 175 644 246 q 591 17 644 83 q 454 -85 538 -50 q 282 -121 371 -121 m 222 -379 q 199 -328 199 -365 q 226 -231 199 -282 q 283 -179 254 -179 q 308 -191 297 -179 q 318 -218 318 -203 q 271 -280 289 -249 q 240 -340 253 -311 q 222 -379 228 -368 z "},"ẞ":{"ha":846,"x_min":26,"x_max":792,"o":"m 181 -121 q 65 -94 103 -121 q 26 -10 26 -68 q 33 -6 26 -6 q 67 -12 39 -6 q 164 -19 94 -19 q 445 27 318 -19 q 644 150 572 74 q 717 310 717 226 q 646 447 717 410 q 464 485 575 485 q 419 513 419 485 q 439 544 419 528 q 579 674 515 607 q 686 801 643 740 q 722 890 722 853 q 678 943 722 924 q 574 963 635 963 q 446 929 493 963 q 365 801 399 896 q 265 492 317 665 l 204 272 l 138 36 q 79 56 103 36 q 56 103 56 75 q 64 147 56 121 q 75 182 72 174 q 159 435 99 260 q 281 765 219 611 q 407 949 333 899 q 590 1000 481 1000 q 737 967 682 1000 q 792 876 792 935 q 744 767 792 826 q 465 508 635 631 q 782 285 782 496 q 681 67 782 160 q 437 -73 579 -25 q 181 -121 294 -121 z "},"Ə":{"ha":824,"x_min":61,"x_max":815,"o":"m 524 1000 q 688 952 622 1000 q 784 827 753 904 q 815 660 815 750 q 728 299 815 482 q 507 -2 640 117 q 244 -121 374 -121 q 109 -69 157 -121 q 61 65 61 -18 q 149 297 61 186 q 384 486 238 407 q 699 597 531 565 q 704 683 704 638 q 661 877 704 803 q 524 951 618 951 q 370 903 440 951 q 251 776 300 856 q 183 601 203 696 q 133 615 153 601 q 113 657 113 628 q 167 803 113 721 q 317 942 222 885 q 524 1000 411 1000 m 246 -79 q 424 18 329 -79 q 592 265 518 115 q 693 561 667 415 q 318 325 464 467 q 172 24 172 183 q 192 -52 172 -25 q 246 -79 211 -79 z "},"T":{"ha":681,"x_min":96,"x_max":882,"o":"m 260 -121 q 175 -95 200 -121 q 150 -22 150 -69 q 163 62 150 14 q 201 181 176 110 q 339 556 260 349 q 485 906 418 763 q 260 898 335 903 q 96 878 185 893 q 190 972 101 943 q 435 1000 279 1000 q 703 983 547 1000 q 796 974 749 978 q 882 969 843 969 q 781 917 838 931 q 644 904 724 904 l 546 906 q 328 243 432 621 l 315 197 q 271 23 283 81 q 258 -90 258 -35 q 260 -121 258 -111 z "},"Ŧ":{"ha":682,"x_min":82,"x_max":882,"o":"m 546 906 q 436 601 494 778 q 703 586 590 601 q 631 542 694 553 q 413 529 568 531 q 328 243 363 372 l 315 197 q 271 23 283 81 q 258 -90 258 -35 q 260 -121 258 -111 q 175 -95 200 -121 q 150 -22 150 -69 q 163 62 150 14 q 201 181 176 110 q 328 529 256 340 q 182 523 238 529 q 82 503 126 517 q 158 571 85 547 q 356 600 231 594 q 485 906 422 769 q 260 898 335 903 q 96 878 185 893 q 190 972 101 943 q 435 1000 279 1000 q 703 983 547 1000 q 796 974 749 978 q 882 969 843 969 q 781 917 838 931 q 644 904 724 904 l 546 906 z "},"Ť":{"ha":681,"x_min":96,"x_max":882,"o":"m 260 -121 q 175 -95 200 -121 q 150 -22 150 -69 q 163 62 150 14 q 201 181 176 110 q 339 556 260 349 q 485 906 418 763 q 260 898 335 903 q 96 878 185 893 q 190 972 101 943 q 435 1000 279 1000 q 703 983 547 1000 q 796 974 749 978 q 882 969 843 969 q 781 917 838 931 q 644 904 724 904 l 546 906 q 328 243 432 621 l 315 197 q 271 23 283 81 q 258 -90 258 -35 q 260 -121 258 -111 m 571 1047 q 519 1074 549 1047 q 467 1136 489 1100 q 446 1201 446 1172 q 469 1244 446 1233 q 511 1181 488 1208 q 572 1117 535 1153 q 653 1151 619 1133 q 715 1196 686 1169 q 729 1169 729 1188 q 699 1116 729 1144 q 629 1067 668 1088 q 571 1047 590 1047 z "},"Ţ":{"ha":681,"x_min":46,"x_max":882,"o":"m 435 1000 q 703 983 547 1000 q 796 974 749 978 q 882 969 843 969 q 781 917 838 931 q 644 904 724 904 l 546 906 q 328 243 432 621 l 315 197 q 271 23 283 81 q 258 -90 258 -35 q 260 -121 258 -111 q 204 -112 225 -121 l 138 -214 q 180 -190 158 -199 q 231 -181 201 -181 q 293 -239 293 -181 q 270 -314 293 -278 q 210 -372 247 -350 q 131 -394 172 -394 q 69 -380 92 -394 q 46 -344 46 -365 q 76 -299 46 -321 q 99 -346 83 -331 q 135 -361 115 -361 q 187 -342 160 -361 q 232 -293 214 -322 q 250 -240 250 -264 q 244 -217 250 -228 q 226 -206 239 -206 q 193 -215 211 -206 q 146 -243 175 -225 q 127 -254 140 -246 q 108 -262 114 -262 q 94 -254 100 -262 q 89 -237 89 -246 q 128 -180 89 -232 q 189 -106 167 -128 q 150 -22 150 -82 q 163 62 150 14 q 201 181 176 110 q 339 556 260 349 q 485 906 418 763 q 260 898 335 903 q 96 878 185 893 q 190 972 101 943 q 435 1000 279 1000 z "},"Ț":{"ha":681,"x_min":96,"x_max":882,"o":"m 260 -121 q 175 -95 200 -121 q 150 -22 150 -69 q 163 62 150 14 q 201 181 176 110 q 339 556 260 349 q 485 906 418 763 q 260 898 335 903 q 96 878 185 893 q 190 972 101 943 q 435 1000 279 1000 q 703 983 547 1000 q 796 974 749 978 q 882 969 843 969 q 781 917 838 931 q 644 904 724 904 l 546 906 q 328 243 432 621 l 315 197 q 271 23 283 81 q 258 -90 258 -35 q 260 -121 258 -111 m 142 -379 q 118 -328 118 -365 q 146 -231 118 -282 q 203 -179 174 -179 q 227 -191 217 -179 q 238 -218 238 -203 q 190 -280 208 -249 q 160 -340 172 -311 q 142 -379 147 -368 z "},"U":{"ha":981,"x_min":35,"x_max":988,"o":"m 751 -137 q 670 -94 701 -137 q 639 10 639 -51 q 651 136 639 53 q 351 -121 533 -121 q 218 -68 265 -121 q 171 68 171 -15 q 191 206 171 125 q 253 426 211 288 q 322 674 299 581 q 344 839 344 767 q 267 961 344 961 q 186 922 219 961 q 136 827 153 883 q 119 721 119 771 q 131 653 119 679 q 58 679 81 653 q 35 749 35 706 q 72 865 35 807 q 169 962 108 924 q 300 1000 231 1000 q 408 956 374 1000 q 443 832 443 911 q 422 678 443 763 q 356 451 400 593 q 293 235 314 317 q 272 90 272 154 q 301 -22 272 21 q 389 -65 329 -65 q 518 -6 460 -65 q 616 139 576 53 q 676 311 656 225 q 810 810 751 619 q 918 1000 869 1000 q 949 988 929 1000 q 988 956 968 976 q 899 763 963 939 q 783 383 835 588 q 732 58 732 179 q 757 -69 732 -35 q 843 -104 782 -104 q 751 -137 794 -137 z "},"Ú":{"ha":981,"x_min":35,"x_max":988,"o":"m 751 -137 q 670 -94 701 -137 q 639 10 639 -51 q 651 136 639 53 q 351 -121 533 -121 q 218 -68 265 -121 q 171 68 171 -15 q 191 206 171 125 q 253 426 211 288 q 322 674 299 581 q 344 839 344 767 q 267 961 344 961 q 186 922 219 961 q 136 827 153 883 q 119 721 119 771 q 131 653 119 679 q 58 679 81 653 q 35 749 35 706 q 72 865 35 807 q 169 962 108 924 q 300 1000 231 1000 q 408 956 374 1000 q 443 832 443 911 q 422 678 443 763 q 356 451 400 593 q 293 235 314 317 q 272 90 272 154 q 301 -22 272 21 q 389 -65 329 -65 q 518 -6 460 -65 q 616 139 576 53 q 676 311 656 225 q 810 810 751 619 q 918 1000 869 1000 q 949 988 929 1000 q 988 956 968 976 q 899 763 963 939 q 783 383 835 588 q 732 58 732 179 q 757 -69 732 -35 q 843 -104 782 -104 q 751 -137 794 -137 m 665 1039 q 651 1055 656 1043 q 646 1075 646 1067 q 672 1134 646 1092 q 731 1210 697 1176 q 790 1243 765 1243 q 821 1200 817 1243 q 665 1039 718 1111 z "},"Ŭ":{"ha":981,"x_min":35,"x_max":988,"o":"m 751 -137 q 670 -94 701 -137 q 639 10 639 -51 q 651 136 639 53 q 351 -121 533 -121 q 218 -68 265 -121 q 171 68 171 -15 q 191 206 171 125 q 253 426 211 288 q 322 674 299 581 q 344 839 344 767 q 267 961 344 961 q 186 922 219 961 q 136 827 153 883 q 119 721 119 771 q 131 653 119 679 q 58 679 81 653 q 35 749 35 706 q 72 865 35 807 q 169 962 108 924 q 300 1000 231 1000 q 408 956 374 1000 q 443 832 443 911 q 422 678 443 763 q 356 451 400 593 q 293 235 314 317 q 272 90 272 154 q 301 -22 272 21 q 389 -65 329 -65 q 518 -6 460 -65 q 616 139 576 53 q 676 311 656 225 q 810 810 751 619 q 918 1000 869 1000 q 949 988 929 1000 q 988 956 968 976 q 899 763 963 939 q 783 383 835 588 q 732 58 732 179 q 757 -69 732 -35 q 843 -104 782 -104 q 751 -137 794 -137 m 707 1053 q 626 1073 658 1053 q 578 1123 593 1093 q 564 1181 564 1153 q 597 1249 564 1226 q 629 1159 601 1196 q 710 1122 657 1122 q 843 1206 796 1122 q 857 1164 857 1192 q 812 1085 857 1118 q 707 1053 767 1053 z "},"Û":{"ha":981,"x_min":35,"x_max":988,"o":"m 751 -137 q 670 -94 701 -137 q 639 10 639 -51 q 651 136 639 53 q 351 -121 533 -121 q 218 -68 265 -121 q 171 68 171 -15 q 191 206 171 125 q 253 426 211 288 q 322 674 299 581 q 344 839 344 767 q 267 961 344 961 q 186 922 219 961 q 136 827 153 883 q 119 721 119 771 q 131 653 119 679 q 58 679 81 653 q 35 749 35 706 q 72 865 35 807 q 169 962 108 924 q 300 1000 231 1000 q 408 956 374 1000 q 443 832 443 911 q 422 678 443 763 q 356 451 400 593 q 293 235 314 317 q 272 90 272 154 q 301 -22 272 21 q 389 -65 329 -65 q 518 -6 460 -65 q 616 139 576 53 q 676 311 656 225 q 810 810 751 619 q 918 1000 869 1000 q 949 988 929 1000 q 988 956 968 976 q 899 763 963 939 q 783 383 835 588 q 732 58 732 179 q 757 -69 732 -35 q 843 -104 782 -104 q 751 -137 794 -137 m 793 1033 q 751 1097 775 1069 q 690 1161 728 1125 q 610 1126 643 1144 q 547 1082 576 1108 q 533 1108 533 1090 q 564 1162 533 1133 q 633 1210 594 1190 q 692 1231 672 1231 q 744 1204 714 1231 q 795 1142 774 1178 q 817 1076 817 1106 q 793 1033 817 1046 z "},"Ȕ":{"ha":981,"x_min":35,"x_max":988,"o":"m 751 -137 q 670 -94 701 -137 q 639 10 639 -51 q 651 136 639 53 q 351 -121 533 -121 q 218 -68 265 -121 q 171 68 171 -15 q 191 206 171 125 q 253 426 211 288 q 322 674 299 581 q 344 839 344 767 q 267 961 344 961 q 186 922 219 961 q 136 827 153 883 q 119 721 119 771 q 131 653 119 679 q 58 679 81 653 q 35 749 35 706 q 72 865 35 807 q 169 962 108 924 q 300 1000 231 1000 q 408 956 374 1000 q 443 832 443 911 q 422 678 443 763 q 356 451 400 593 q 293 235 314 317 q 272 90 272 154 q 301 -22 272 21 q 389 -65 329 -65 q 518 -6 460 -65 q 616 139 576 53 q 676 311 656 225 q 810 810 751 619 q 918 1000 869 1000 q 949 988 929 1000 q 988 956 968 976 q 899 763 963 939 q 783 383 835 588 q 732 58 732 179 q 757 -69 732 -35 q 843 -104 782 -104 q 751 -137 794 -137 m 724 1044 q 624 1201 679 1129 q 660 1236 638 1236 q 703 1208 682 1236 q 738 1144 725 1181 q 751 1086 751 1108 q 724 1044 751 1050 m 632 1038 q 499 1210 569 1125 q 539 1233 519 1233 q 586 1202 561 1233 q 629 1131 611 1171 q 647 1069 647 1090 q 632 1038 647 1049 z "},"Ü":{"ha":981,"x_min":35,"x_max":988,"o":"m 751 -137 q 670 -94 701 -137 q 639 10 639 -51 q 651 136 639 53 q 351 -121 533 -121 q 218 -68 265 -121 q 171 68 171 -15 q 191 206 171 125 q 253 426 211 288 q 322 674 299 581 q 344 839 344 767 q 267 961 344 961 q 186 922 219 961 q 136 827 153 883 q 119 721 119 771 q 131 653 119 679 q 58 679 81 653 q 35 749 35 706 q 72 865 35 807 q 169 962 108 924 q 300 1000 231 1000 q 408 956 374 1000 q 443 832 443 911 q 422 678 443 763 q 356 451 400 593 q 293 235 314 317 q 272 90 272 154 q 301 -22 272 21 q 389 -65 329 -65 q 518 -6 460 -65 q 616 139 576 53 q 676 311 656 225 q 810 810 751 619 q 918 1000 869 1000 q 949 988 929 1000 q 988 956 968 976 q 899 763 963 939 q 783 383 835 588 q 732 58 732 179 q 757 -69 732 -35 q 843 -104 782 -104 q 751 -137 794 -137 m 568 1075 q 531 1085 546 1075 q 517 1117 517 1096 q 547 1162 517 1142 q 608 1182 576 1182 q 650 1143 650 1182 q 624 1097 650 1119 q 568 1075 599 1075 m 768 1046 q 731 1056 746 1046 q 717 1088 717 1067 q 747 1133 717 1113 q 808 1153 776 1153 q 850 1114 850 1153 q 824 1068 850 1090 q 768 1046 799 1046 z "},"Ụ":{"ha":981,"x_min":35,"x_max":988,"o":"m 751 -137 q 670 -94 701 -137 q 639 10 639 -51 q 651 136 639 53 q 351 -121 533 -121 q 218 -68 265 -121 q 171 68 171 -15 q 191 206 171 125 q 253 426 211 288 q 322 674 299 581 q 344 839 344 767 q 267 961 344 961 q 186 922 219 961 q 136 827 153 883 q 119 721 119 771 q 131 653 119 679 q 58 679 81 653 q 35 749 35 706 q 72 865 35 807 q 169 962 108 924 q 300 1000 231 1000 q 408 956 374 1000 q 443 832 443 911 q 422 678 443 763 q 356 451 400 593 q 293 235 314 317 q 272 90 272 154 q 301 -22 272 21 q 389 -65 329 -65 q 518 -6 460 -65 q 616 139 576 53 q 676 311 656 225 q 810 810 751 619 q 918 1000 869 1000 q 949 988 929 1000 q 988 956 968 976 q 899 763 963 939 q 783 383 835 588 q 732 58 732 179 q 757 -69 732 -35 q 843 -104 782 -104 q 751 -137 794 -137 m 317 -350 q 276 -338 292 -350 q 261 -304 261 -326 q 290 -256 261 -275 q 351 -236 319 -236 q 400 -282 400 -236 q 374 -329 400 -308 q 317 -350 347 -350 z "},"Ù":{"ha":981,"x_min":35,"x_max":988,"o":"m 751 -137 q 670 -94 701 -137 q 639 10 639 -51 q 651 136 639 53 q 351 -121 533 -121 q 218 -68 265 -121 q 171 68 171 -15 q 191 206 171 125 q 253 426 211 288 q 322 674 299 581 q 344 839 344 767 q 267 961 344 961 q 186 922 219 961 q 136 827 153 883 q 119 721 119 771 q 131 653 119 679 q 58 679 81 653 q 35 749 35 706 q 72 865 35 807 q 169 962 108 924 q 300 1000 231 1000 q 408 956 374 1000 q 443 832 443 911 q 422 678 443 763 q 356 451 400 593 q 293 235 314 317 q 272 90 272 154 q 301 -22 272 21 q 389 -65 329 -65 q 518 -6 460 -65 q 616 139 576 53 q 676 311 656 225 q 810 810 751 619 q 918 1000 869 1000 q 949 988 929 1000 q 988 956 968 976 q 899 763 963 939 q 783 383 835 588 q 732 58 732 179 q 757 -69 732 -35 q 843 -104 782 -104 q 751 -137 794 -137 m 663 1039 q 507 1200 610 1111 q 538 1243 511 1243 q 597 1210 563 1243 q 656 1134 631 1176 q 682 1075 682 1092 q 677 1055 682 1067 q 663 1039 672 1043 z "},"Ủ":{"ha":981,"x_min":35,"x_max":988,"o":"m 751 -137 q 670 -94 701 -137 q 639 10 639 -51 q 651 136 639 53 q 351 -121 533 -121 q 218 -68 265 -121 q 171 68 171 -15 q 191 206 171 125 q 253 426 211 288 q 322 674 299 581 q 344 839 344 767 q 267 961 344 961 q 186 922 219 961 q 136 827 153 883 q 119 721 119 771 q 131 653 119 679 q 58 679 81 653 q 35 749 35 706 q 72 865 35 807 q 169 962 108 924 q 300 1000 231 1000 q 408 956 374 1000 q 443 832 443 911 q 422 678 443 763 q 356 451 400 593 q 293 235 314 317 q 272 90 272 154 q 301 -22 272 21 q 389 -65 329 -65 q 518 -6 460 -65 q 616 139 576 53 q 676 311 656 225 q 810 810 751 619 q 918 1000 869 1000 q 949 988 929 1000 q 988 956 968 976 q 899 763 963 939 q 783 383 835 588 q 732 58 732 179 q 757 -69 732 -35 q 843 -104 782 -104 q 751 -137 794 -137 m 704 1042 q 657 1057 675 1042 q 726 1076 699 1060 q 753 1124 753 1092 q 721 1169 753 1156 q 624 1183 689 1183 q 642 1228 624 1210 q 690 1247 660 1247 q 768 1217 738 1247 q 799 1140 799 1186 q 772 1069 799 1097 q 704 1042 746 1042 z "},"Ư":{"ha":981,"x_min":35,"x_max":1142,"o":"m 1076 1099 q 1123 1074 1104 1099 q 1142 1010 1142 1049 q 1117 942 1142 969 q 1051 914 1092 914 q 975 940 1017 914 q 882 715 942 886 q 777 357 822 543 q 732 58 732 171 q 757 -69 732 -35 q 843 -104 782 -104 q 751 -137 794 -137 q 670 -94 701 -137 q 639 10 639 -51 q 651 136 639 53 q 351 -121 533 -121 q 218 -68 265 -121 q 171 68 171 -15 q 191 206 171 125 q 253 426 211 288 q 322 674 299 581 q 344 839 344 767 q 267 961 344 961 q 186 922 219 961 q 136 827 153 883 q 119 721 119 771 q 131 653 119 679 q 58 679 81 653 q 35 749 35 706 q 72 865 35 807 q 169 962 108 924 q 300 1000 231 1000 q 408 956 374 1000 q 443 832 443 911 q 422 678 443 763 q 356 451 400 593 q 293 235 314 317 q 272 90 272 154 q 301 -22 272 21 q 389 -65 329 -65 q 518 -6 460 -65 q 616 139 576 53 q 676 311 656 225 q 810 810 751 619 q 918 1000 869 1000 q 960 981 933 1000 q 976 972 965 978 q 999 962 988 965 q 1026 958 1011 958 q 1058 969 1047 958 q 1069 996 1069 979 q 1056 1038 1069 1021 q 1018 1071 1042 1054 q 1076 1099 1043 1099 z "},"Ứ":{"ha":981,"x_min":35,"x_max":1142,"o":"m 1076 1099 q 1123 1074 1104 1099 q 1142 1010 1142 1049 q 1117 942 1142 969 q 1051 914 1092 914 q 975 940 1017 914 q 882 715 942 886 q 777 357 822 543 q 732 58 732 171 q 757 -69 732 -35 q 843 -104 782 -104 q 751 -137 794 -137 q 670 -94 701 -137 q 639 10 639 -51 q 651 136 639 53 q 351 -121 533 -121 q 218 -68 265 -121 q 171 68 171 -15 q 191 206 171 125 q 253 426 211 288 q 322 674 299 581 q 344 839 344 767 q 267 961 344 961 q 186 922 219 961 q 136 827 153 883 q 119 721 119 771 q 131 653 119 679 q 58 679 81 653 q 35 749 35 706 q 72 865 35 807 q 169 962 108 924 q 300 1000 231 1000 q 408 956 374 1000 q 443 832 443 911 q 422 678 443 763 q 356 451 400 593 q 293 235 314 317 q 272 90 272 154 q 301 -22 272 21 q 389 -65 329 -65 q 518 -6 460 -65 q 616 139 576 53 q 676 311 656 225 q 810 810 751 619 q 918 1000 869 1000 q 960 981 933 1000 q 976 972 965 978 q 999 962 988 965 q 1026 958 1011 958 q 1058 969 1047 958 q 1069 996 1069 979 q 1056 1038 1069 1021 q 1018 1071 1042 1054 q 1076 1099 1043 1099 m 665 1039 q 651 1055 656 1043 q 646 1075 646 1067 q 672 1134 646 1092 q 731 1210 697 1176 q 790 1243 765 1243 q 821 1200 817 1243 q 665 1039 718 1111 z "},"Ự":{"ha":981,"x_min":35,"x_max":1142,"o":"m 1076 1099 q 1123 1074 1104 1099 q 1142 1010 1142 1049 q 1117 942 1142 969 q 1051 914 1092 914 q 975 940 1017 914 q 882 715 942 886 q 777 357 822 543 q 732 58 732 171 q 757 -69 732 -35 q 843 -104 782 -104 q 751 -137 794 -137 q 670 -94 701 -137 q 639 10 639 -51 q 651 136 639 53 q 351 -121 533 -121 q 218 -68 265 -121 q 171 68 171 -15 q 191 206 171 125 q 253 426 211 288 q 322 674 299 581 q 344 839 344 767 q 267 961 344 961 q 186 922 219 961 q 136 827 153 883 q 119 721 119 771 q 131 653 119 679 q 58 679 81 653 q 35 749 35 706 q 72 865 35 807 q 169 962 108 924 q 300 1000 231 1000 q 408 956 374 1000 q 443 832 443 911 q 422 678 443 763 q 356 451 400 593 q 293 235 314 317 q 272 90 272 154 q 301 -22 272 21 q 389 -65 329 -65 q 518 -6 460 -65 q 616 139 576 53 q 676 311 656 225 q 810 810 751 619 q 918 1000 869 1000 q 960 981 933 1000 q 976 972 965 978 q 999 962 988 965 q 1026 958 1011 958 q 1058 969 1047 958 q 1069 996 1069 979 q 1056 1038 1069 1021 q 1018 1071 1042 1054 q 1076 1099 1043 1099 m 317 -350 q 276 -338 292 -350 q 261 -304 261 -326 q 290 -256 261 -275 q 351 -236 319 -236 q 400 -282 400 -236 q 374 -329 400 -308 q 317 -350 347 -350 z "},"Ừ":{"ha":981,"x_min":35,"x_max":1142,"o":"m 1076 1099 q 1123 1074 1104 1099 q 1142 1010 1142 1049 q 1117 942 1142 969 q 1051 914 1092 914 q 975 940 1017 914 q 882 715 942 886 q 777 357 822 543 q 732 58 732 171 q 757 -69 732 -35 q 843 -104 782 -104 q 751 -137 794 -137 q 670 -94 701 -137 q 639 10 639 -51 q 651 136 639 53 q 351 -121 533 -121 q 218 -68 265 -121 q 171 68 171 -15 q 191 206 171 125 q 253 426 211 288 q 322 674 299 581 q 344 839 344 767 q 267 961 344 961 q 186 922 219 961 q 136 827 153 883 q 119 721 119 771 q 131 653 119 679 q 58 679 81 653 q 35 749 35 706 q 72 865 35 807 q 169 962 108 924 q 300 1000 231 1000 q 408 956 374 1000 q 443 832 443 911 q 422 678 443 763 q 356 451 400 593 q 293 235 314 317 q 272 90 272 154 q 301 -22 272 21 q 389 -65 329 -65 q 518 -6 460 -65 q 616 139 576 53 q 676 311 656 225 q 810 810 751 619 q 918 1000 869 1000 q 960 981 933 1000 q 976 972 965 978 q 999 962 988 965 q 1026 958 1011 958 q 1058 969 1047 958 q 1069 996 1069 979 q 1056 1038 1069 1021 q 1018 1071 1042 1054 q 1076 1099 1043 1099 m 663 1039 q 507 1200 610 1111 q 538 1243 511 1243 q 597 1210 563 1243 q 656 1134 631 1176 q 682 1075 682 1092 q 677 1055 682 1067 q 663 1039 672 1043 z "},"Ử":{"ha":981,"x_min":35,"x_max":1142,"o":"m 1076 1099 q 1123 1074 1104 1099 q 1142 1010 1142 1049 q 1117 942 1142 969 q 1051 914 1092 914 q 975 940 1017 914 q 882 715 942 886 q 777 357 822 543 q 732 58 732 171 q 757 -69 732 -35 q 843 -104 782 -104 q 751 -137 794 -137 q 670 -94 701 -137 q 639 10 639 -51 q 651 136 639 53 q 351 -121 533 -121 q 218 -68 265 -121 q 171 68 171 -15 q 191 206 171 125 q 253 426 211 288 q 322 674 299 581 q 344 839 344 767 q 267 961 344 961 q 186 922 219 961 q 136 827 153 883 q 119 721 119 771 q 131 653 119 679 q 58 679 81 653 q 35 749 35 706 q 72 865 35 807 q 169 962 108 924 q 300 1000 231 1000 q 408 956 374 1000 q 443 832 443 911 q 422 678 443 763 q 356 451 400 593 q 293 235 314 317 q 272 90 272 154 q 301 -22 272 21 q 389 -65 329 -65 q 518 -6 460 -65 q 616 139 576 53 q 676 311 656 225 q 810 810 751 619 q 918 1000 869 1000 q 960 981 933 1000 q 976 972 965 978 q 999 962 988 965 q 1026 958 1011 958 q 1058 969 1047 958 q 1069 996 1069 979 q 1056 1038 1069 1021 q 1018 1071 1042 1054 q 1076 1099 1043 1099 m 704 1042 q 657 1057 675 1042 q 726 1076 699 1060 q 753 1124 753 1092 q 721 1169 753 1156 q 624 1183 689 1183 q 642 1228 624 1210 q 690 1247 660 1247 q 768 1217 738 1247 q 799 1140 799 1186 q 772 1069 799 1097 q 704 1042 746 1042 z "},"Ữ":{"ha":981,"x_min":35,"x_max":1142,"o":"m 1076 1099 q 1123 1074 1104 1099 q 1142 1010 1142 1049 q 1117 942 1142 969 q 1051 914 1092 914 q 975 940 1017 914 q 882 715 942 886 q 777 357 822 543 q 732 58 732 171 q 757 -69 732 -35 q 843 -104 782 -104 q 751 -137 794 -137 q 670 -94 701 -137 q 639 10 639 -51 q 651 136 639 53 q 351 -121 533 -121 q 218 -68 265 -121 q 171 68 171 -15 q 191 206 171 125 q 253 426 211 288 q 322 674 299 581 q 344 839 344 767 q 267 961 344 961 q 186 922 219 961 q 136 827 153 883 q 119 721 119 771 q 131 653 119 679 q 58 679 81 653 q 35 749 35 706 q 72 865 35 807 q 169 962 108 924 q 300 1000 231 1000 q 408 956 374 1000 q 443 832 443 911 q 422 678 443 763 q 356 451 400 593 q 293 235 314 317 q 272 90 272 154 q 301 -22 272 21 q 389 -65 329 -65 q 518 -6 460 -65 q 616 139 576 53 q 676 311 656 225 q 810 810 751 619 q 918 1000 869 1000 q 960 981 933 1000 q 976 972 965 978 q 999 962 988 965 q 1026 958 1011 958 q 1058 969 1047 958 q 1069 996 1069 979 q 1056 1038 1069 1021 q 1018 1071 1042 1054 q 1076 1099 1043 1099 m 785 1057 q 734 1065 760 1057 q 669 1088 708 1072 q 600 1113 629 1104 q 542 1121 571 1121 q 467 1100 499 1121 q 588 1169 517 1169 q 639 1162 613 1169 q 701 1139 665 1154 q 786 1111 756 1119 q 851 1103 817 1103 q 899 1114 874 1103 q 785 1057 853 1057 z "},"Ű":{"ha":981,"x_min":35,"x_max":988,"o":"m 751 -137 q 670 -94 701 -137 q 639 10 639 -51 q 651 136 639 53 q 351 -121 533 -121 q 218 -68 265 -121 q 171 68 171 -15 q 191 206 171 125 q 253 426 211 288 q 322 674 299 581 q 344 839 344 767 q 267 961 344 961 q 186 922 219 961 q 136 827 153 883 q 119 721 119 771 q 131 653 119 679 q 58 679 81 653 q 35 749 35 706 q 72 865 35 807 q 169 962 108 924 q 300 1000 231 1000 q 408 956 374 1000 q 443 832 443 911 q 422 678 443 763 q 356 451 400 593 q 293 235 314 317 q 272 90 272 154 q 301 -22 272 21 q 389 -65 329 -65 q 518 -6 460 -65 q 616 139 576 53 q 676 311 656 225 q 810 810 751 619 q 918 1000 869 1000 q 949 988 929 1000 q 988 956 968 976 q 899 763 963 939 q 783 383 835 588 q 732 58 732 179 q 757 -69 732 -35 q 843 -104 782 -104 q 751 -137 794 -137 m 608 1068 q 583 1106 583 1075 q 601 1172 583 1131 q 645 1246 619 1214 q 694 1278 671 1278 q 726 1240 715 1278 q 608 1068 646 1142 m 703 1039 q 689 1072 689 1049 q 711 1133 689 1090 q 762 1209 733 1175 q 813 1243 790 1243 q 833 1236 825 1243 q 851 1217 842 1229 q 703 1039 774 1132 z "},"Ȗ":{"ha":981,"x_min":35,"x_max":988,"o":"m 751 -137 q 670 -94 701 -137 q 639 10 639 -51 q 651 136 639 53 q 351 -121 533 -121 q 218 -68 265 -121 q 171 68 171 -15 q 191 206 171 125 q 253 426 211 288 q 322 674 299 581 q 344 839 344 767 q 267 961 344 961 q 186 922 219 961 q 136 827 153 883 q 119 721 119 771 q 131 653 119 679 q 58 679 81 653 q 35 749 35 706 q 72 865 35 807 q 169 962 108 924 q 300 1000 231 1000 q 408 956 374 1000 q 443 832 443 911 q 422 678 443 763 q 356 451 400 593 q 293 235 314 317 q 272 90 272 154 q 301 -22 272 21 q 389 -65 329 -65 q 518 -6 460 -65 q 616 139 576 53 q 676 311 656 225 q 810 810 751 619 q 918 1000 869 1000 q 949 988 929 1000 q 988 956 968 976 q 899 763 963 939 q 783 383 835 588 q 732 58 732 179 q 757 -69 732 -35 q 843 -104 782 -104 q 751 -137 794 -137 m 806 1011 q 772 1101 801 1065 q 682 1138 742 1138 q 560 1054 604 1138 q 546 1096 546 1069 q 589 1175 546 1143 q 694 1207 632 1207 q 774 1188 742 1207 q 823 1140 807 1168 q 839 1086 839 1113 q 806 1011 839 1036 z "},"Ū":{"ha":981,"x_min":35,"x_max":988,"o":"m 751 -137 q 670 -94 701 -137 q 639 10 639 -51 q 651 136 639 53 q 351 -121 533 -121 q 218 -68 265 -121 q 171 68 171 -15 q 191 206 171 125 q 253 426 211 288 q 322 674 299 581 q 344 839 344 767 q 267 961 344 961 q 186 922 219 961 q 136 827 153 883 q 119 721 119 771 q 131 653 119 679 q 58 679 81 653 q 35 749 35 706 q 72 865 35 807 q 169 962 108 924 q 300 1000 231 1000 q 408 956 374 1000 q 443 832 443 911 q 422 678 443 763 q 356 451 400 593 q 293 235 314 317 q 272 90 272 154 q 301 -22 272 21 q 389 -65 329 -65 q 518 -6 460 -65 q 616 139 576 53 q 676 311 656 225 q 810 810 751 619 q 918 1000 869 1000 q 949 988 929 1000 q 988 956 968 976 q 899 763 963 939 q 783 383 835 588 q 732 58 732 179 q 757 -69 732 -35 q 843 -104 782 -104 q 751 -137 794 -137 m 815 1050 q 725 1060 783 1050 q 610 1082 667 1069 q 469 1107 500 1104 q 533 1143 483 1143 q 868 1078 647 1143 q 815 1050 849 1050 z "},"Ų":{"ha":981,"x_min":35,"x_max":988,"o":"m 988 956 q 899 763 963 939 q 783 383 835 588 q 732 58 732 179 q 757 -69 732 -35 q 843 -104 782 -104 q 751 -137 794 -137 q 670 -94 701 -137 q 639 10 639 -51 q 651 136 639 53 q 481 -83 578 -24 q 439 -160 439 -115 q 457 -203 439 -186 q 507 -221 475 -221 q 576 -197 544 -221 q 550 -258 575 -236 q 485 -281 525 -281 q 415 -254 442 -281 q 389 -186 389 -228 q 419 -111 389 -142 q 351 -121 390 -121 q 218 -68 265 -121 q 171 68 171 -15 q 191 206 171 125 q 253 426 211 288 q 322 674 299 581 q 344 839 344 767 q 267 961 344 961 q 186 922 219 961 q 136 827 153 883 q 119 721 119 771 q 131 653 119 679 q 58 679 81 653 q 35 749 35 706 q 72 865 35 807 q 169 962 108 924 q 300 1000 231 1000 q 408 956 374 1000 q 443 832 443 911 q 422 678 443 763 q 356 451 400 593 q 293 235 314 317 q 272 90 272 154 q 301 -22 272 21 q 389 -65 329 -65 q 518 -6 460 -65 q 616 139 576 53 q 676 311 656 225 q 810 810 751 619 q 918 1000 869 1000 q 949 988 929 1000 q 988 956 968 976 z "},"Ů":{"ha":981,"x_min":35,"x_max":988,"o":"m 751 -137 q 670 -94 701 -137 q 639 10 639 -51 q 651 136 639 53 q 351 -121 533 -121 q 218 -68 265 -121 q 171 68 171 -15 q 191 206 171 125 q 253 426 211 288 q 322 674 299 581 q 344 839 344 767 q 267 961 344 961 q 186 922 219 961 q 136 827 153 883 q 119 721 119 771 q 131 653 119 679 q 58 679 81 653 q 35 749 35 706 q 72 865 35 807 q 169 962 108 924 q 300 1000 231 1000 q 408 956 374 1000 q 443 832 443 911 q 422 678 443 763 q 356 451 400 593 q 293 235 314 317 q 272 90 272 154 q 301 -22 272 21 q 389 -65 329 -65 q 518 -6 460 -65 q 616 139 576 53 q 676 311 656 225 q 810 810 751 619 q 918 1000 869 1000 q 949 988 929 1000 q 988 956 968 976 q 899 763 963 939 q 783 383 835 588 q 732 58 732 179 q 757 -69 732 -35 q 843 -104 782 -104 q 751 -137 794 -137 m 664 1047 q 588 1068 613 1047 q 564 1122 564 1089 q 587 1192 564 1156 q 649 1253 610 1229 q 733 1278 689 1278 q 813 1257 788 1278 q 839 1203 839 1236 q 815 1133 839 1169 q 749 1072 790 1096 q 664 1047 708 1047 m 676 1075 q 728 1094 703 1075 q 771 1142 754 1114 q 788 1194 788 1171 q 772 1231 788 1215 q 726 1246 756 1246 q 675 1228 700 1246 q 634 1183 650 1210 q 618 1132 618 1157 q 633 1093 618 1111 q 676 1075 649 1075 z "},"Ũ":{"ha":981,"x_min":35,"x_max":988,"o":"m 751 -137 q 670 -94 701 -137 q 639 10 639 -51 q 651 136 639 53 q 351 -121 533 -121 q 218 -68 265 -121 q 171 68 171 -15 q 191 206 171 125 q 253 426 211 288 q 322 674 299 581 q 344 839 344 767 q 267 961 344 961 q 186 922 219 961 q 136 827 153 883 q 119 721 119 771 q 131 653 119 679 q 58 679 81 653 q 35 749 35 706 q 72 865 35 807 q 169 962 108 924 q 300 1000 231 1000 q 408 956 374 1000 q 443 832 443 911 q 422 678 443 763 q 356 451 400 593 q 293 235 314 317 q 272 90 272 154 q 301 -22 272 21 q 389 -65 329 -65 q 518 -6 460 -65 q 616 139 576 53 q 676 311 656 225 q 810 810 751 619 q 918 1000 869 1000 q 949 988 929 1000 q 988 956 968 976 q 899 763 963 939 q 783 383 835 588 q 732 58 732 179 q 757 -69 732 -35 q 843 -104 782 -104 q 751 -137 794 -137 m 785 1057 q 734 1065 760 1057 q 669 1088 708 1072 q 600 1113 629 1104 q 542 1121 571 1121 q 467 1100 499 1121 q 588 1169 517 1169 q 639 1162 613 1169 q 701 1139 665 1154 q 786 1111 756 1119 q 851 1103 817 1103 q 899 1114 874 1103 q 785 1057 853 1057 z "},"V":{"ha":878,"x_min":35,"x_max":897,"o":"m 292 -121 q 210 -96 249 -121 q 172 -10 172 -71 q 188 87 172 28 q 236 251 203 146 q 319 541 290 424 q 347 767 347 658 q 343 871 347 832 q 321 935 339 910 q 264 961 303 961 q 184 924 217 961 q 136 833 151 888 q 121 728 121 779 q 133 653 121 682 q 58 681 82 653 q 35 753 35 708 q 70 867 35 810 q 165 963 106 925 q 289 1000 224 1000 q 417 934 374 1000 q 460 753 460 868 q 432 539 460 651 q 353 268 404 426 q 299 90 317 158 q 281 -24 281 22 q 289 -64 281 -50 q 319 -78 297 -78 q 514 68 396 -78 q 720 413 632 214 q 808 756 808 611 q 788 855 808 821 q 732 900 768 889 q 772 948 751 932 q 813 964 793 964 q 872 924 846 964 q 897 810 897 883 q 793 437 897 661 q 545 46 689 213 q 292 -121 401 -121 z "},"W":{"ha":1258,"x_min":35,"x_max":1276,"o":"m 292 -121 q 210 -96 249 -121 q 172 -10 172 -71 q 188 87 172 28 q 236 251 203 146 q 319 541 290 424 q 347 767 347 658 q 343 871 347 832 q 321 935 339 910 q 264 961 303 961 q 184 924 217 961 q 136 833 151 888 q 121 728 121 779 q 133 653 121 682 q 58 681 82 653 q 35 753 35 708 q 70 867 35 810 q 165 963 106 925 q 289 1000 224 1000 q 417 934 374 1000 q 460 753 460 868 q 432 540 460 651 q 353 269 404 428 q 299 92 317 160 q 281 -24 281 24 q 290 -65 281 -51 q 322 -78 299 -78 q 479 37 388 -78 q 644 303 571 151 q 731 549 718 456 q 793 527 772 549 q 814 481 814 506 q 803 432 814 463 q 763 332 792 401 q 686 135 713 215 q 660 -19 660 54 q 667 -63 660 -49 q 699 -78 675 -78 q 893 68 775 -78 q 1099 413 1011 214 q 1188 756 1188 611 q 1167 855 1188 821 q 1111 900 1147 889 q 1151 948 1131 932 q 1192 964 1172 964 q 1251 924 1225 964 q 1276 810 1276 883 q 1172 437 1276 661 q 924 46 1068 213 q 671 -121 781 -121 q 588 -94 625 -121 q 551 -17 551 -67 q 579 108 551 21 q 431 -59 504 3 q 292 -121 357 -121 z "},"Ẃ":{"ha":1258,"x_min":35,"x_max":1276,"o":"m 292 -121 q 210 -96 249 -121 q 172 -10 172 -71 q 188 87 172 28 q 236 251 203 146 q 319 541 290 424 q 347 767 347 658 q 343 871 347 832 q 321 935 339 910 q 264 961 303 961 q 184 924 217 961 q 136 833 151 888 q 121 728 121 779 q 133 653 121 682 q 58 681 82 653 q 35 753 35 708 q 70 867 35 810 q 165 963 106 925 q 289 1000 224 1000 q 417 934 374 1000 q 460 753 460 868 q 432 540 460 651 q 353 269 404 428 q 299 92 317 160 q 281 -24 281 24 q 290 -65 281 -51 q 322 -78 299 -78 q 479 37 388 -78 q 644 303 571 151 q 731 549 718 456 q 793 527 772 549 q 814 481 814 506 q 803 432 814 463 q 763 332 792 401 q 686 135 713 215 q 660 -19 660 54 q 667 -63 660 -49 q 699 -78 675 -78 q 893 68 775 -78 q 1099 413 1011 214 q 1188 756 1188 611 q 1167 855 1188 821 q 1111 900 1147 889 q 1151 948 1131 932 q 1192 964 1172 964 q 1251 924 1225 964 q 1276 810 1276 883 q 1172 437 1276 661 q 924 46 1068 213 q 671 -121 781 -121 q 588 -94 625 -121 q 551 -17 551 -67 q 579 108 551 21 q 431 -59 504 3 q 292 -121 357 -121 m 819 1039 q 805 1055 810 1043 q 800 1075 800 1067 q 826 1134 800 1092 q 885 1210 851 1176 q 944 1243 919 1243 q 975 1200 971 1243 q 819 1039 872 1111 z "},"Ŵ":{"ha":1258,"x_min":35,"x_max":1276,"o":"m 292 -121 q 210 -96 249 -121 q 172 -10 172 -71 q 188 87 172 28 q 236 251 203 146 q 319 541 290 424 q 347 767 347 658 q 343 871 347 832 q 321 935 339 910 q 264 961 303 961 q 184 924 217 961 q 136 833 151 888 q 121 728 121 779 q 133 653 121 682 q 58 681 82 653 q 35 753 35 708 q 70 867 35 810 q 165 963 106 925 q 289 1000 224 1000 q 417 934 374 1000 q 460 753 460 868 q 432 540 460 651 q 353 269 404 428 q 299 92 317 160 q 281 -24 281 24 q 290 -65 281 -51 q 322 -78 299 -78 q 479 37 388 -78 q 644 303 571 151 q 731 549 718 456 q 793 527 772 549 q 814 481 814 506 q 803 432 814 463 q 763 332 792 401 q 686 135 713 215 q 660 -19 660 54 q 667 -63 660 -49 q 699 -78 675 -78 q 893 68 775 -78 q 1099 413 1011 214 q 1188 756 1188 611 q 1167 855 1188 821 q 1111 900 1147 889 q 1151 948 1131 932 q 1192 964 1172 964 q 1251 924 1225 964 q 1276 810 1276 883 q 1172 437 1276 661 q 924 46 1068 213 q 671 -121 781 -121 q 588 -94 625 -121 q 551 -17 551 -67 q 579 108 551 21 q 431 -59 504 3 q 292 -121 357 -121 m 947 1033 q 906 1097 929 1069 q 844 1161 882 1125 q 764 1126 797 1144 q 701 1082 731 1108 q 688 1108 688 1090 q 718 1162 688 1133 q 788 1210 749 1190 q 846 1231 826 1231 q 898 1204 868 1231 q 949 1142 928 1178 q 971 1076 971 1106 q 947 1033 971 1046 z "},"Ẅ":{"ha":1258,"x_min":35,"x_max":1276,"o":"m 292 -121 q 210 -96 249 -121 q 172 -10 172 -71 q 188 87 172 28 q 236 251 203 146 q 319 541 290 424 q 347 767 347 658 q 343 871 347 832 q 321 935 339 910 q 264 961 303 961 q 184 924 217 961 q 136 833 151 888 q 121 728 121 779 q 133 653 121 682 q 58 681 82 653 q 35 753 35 708 q 70 867 35 810 q 165 963 106 925 q 289 1000 224 1000 q 417 934 374 1000 q 460 753 460 868 q 432 540 460 651 q 353 269 404 428 q 299 92 317 160 q 281 -24 281 24 q 290 -65 281 -51 q 322 -78 299 -78 q 479 37 388 -78 q 644 303 571 151 q 731 549 718 456 q 793 527 772 549 q 814 481 814 506 q 803 432 814 463 q 763 332 792 401 q 686 135 713 215 q 660 -19 660 54 q 667 -63 660 -49 q 699 -78 675 -78 q 893 68 775 -78 q 1099 413 1011 214 q 1188 756 1188 611 q 1167 855 1188 821 q 1111 900 1147 889 q 1151 948 1131 932 q 1192 964 1172 964 q 1251 924 1225 964 q 1276 810 1276 883 q 1172 437 1276 661 q 924 46 1068 213 q 671 -121 781 -121 q 588 -94 625 -121 q 551 -17 551 -67 q 579 108 551 21 q 431 -59 504 3 q 292 -121 357 -121 m 722 1075 q 685 1085 700 1075 q 671 1117 671 1096 q 701 1162 671 1142 q 763 1182 731 1182 q 804 1143 804 1182 q 778 1097 804 1119 q 722 1075 753 1075 m 922 1046 q 885 1056 900 1046 q 871 1088 871 1067 q 901 1133 871 1113 q 963 1153 931 1153 q 1004 1114 1004 1153 q 978 1068 1004 1090 q 922 1046 953 1046 z "},"Ẁ":{"ha":1258,"x_min":35,"x_max":1276,"o":"m 292 -121 q 210 -96 249 -121 q 172 -10 172 -71 q 188 87 172 28 q 236 251 203 146 q 319 541 290 424 q 347 767 347 658 q 343 871 347 832 q 321 935 339 910 q 264 961 303 961 q 184 924 217 961 q 136 833 151 888 q 121 728 121 779 q 133 653 121 682 q 58 681 82 653 q 35 753 35 708 q 70 867 35 810 q 165 963 106 925 q 289 1000 224 1000 q 417 934 374 1000 q 460 753 460 868 q 432 540 460 651 q 353 269 404 428 q 299 92 317 160 q 281 -24 281 24 q 290 -65 281 -51 q 322 -78 299 -78 q 479 37 388 -78 q 644 303 571 151 q 731 549 718 456 q 793 527 772 549 q 814 481 814 506 q 803 432 814 463 q 763 332 792 401 q 686 135 713 215 q 660 -19 660 54 q 667 -63 660 -49 q 699 -78 675 -78 q 893 68 775 -78 q 1099 413 1011 214 q 1188 756 1188 611 q 1167 855 1188 821 q 1111 900 1147 889 q 1151 948 1131 932 q 1192 964 1172 964 q 1251 924 1225 964 q 1276 810 1276 883 q 1172 437 1276 661 q 924 46 1068 213 q 671 -121 781 -121 q 588 -94 625 -121 q 551 -17 551 -67 q 579 108 551 21 q 431 -59 504 3 q 292 -121 357 -121 m 817 1039 q 661 1200 764 1111 q 692 1243 665 1243 q 751 1210 717 1243 q 810 1134 785 1176 q 836 1075 836 1092 q 831 1055 836 1067 q 817 1039 826 1043 z "},"X":{"ha":919,"x_min":35,"x_max":906,"o":"m 35 -156 q 53 -90 39 -114 q 103 -29 67 -67 q 418 342 260 140 l 414 397 q 404 650 407 486 q 398 838 403 779 q 376 929 393 897 q 322 961 360 961 q 246 923 279 961 q 195 828 213 885 q 178 721 178 772 q 189 653 178 679 q 116 679 139 653 q 93 749 93 706 q 130 865 93 806 q 227 962 167 924 q 354 1000 288 1000 q 466 945 431 1000 q 510 805 501 890 q 519 564 518 719 q 521 478 521 536 q 829 1003 740 782 q 851 974 840 994 q 861 936 861 954 q 766 738 861 883 q 522 401 671 592 q 653 -69 536 -69 q 749 6 692 -69 q 889 225 807 81 l 906 211 q 756 -43 819 35 q 615 -121 693 -121 q 473 -9 513 -121 q 422 275 433 103 q 192 4 301 126 q 35 -156 82 -118 z "},"Y":{"ha":925,"x_min":32,"x_max":985,"o":"m 354 -260 q 217 -225 271 -260 q 163 -129 163 -190 q 246 -25 163 -53 q 235 -100 235 -62 q 265 -192 235 -158 q 356 -225 296 -225 q 545 -105 478 -225 q 646 168 613 15 q 668 278 650 186 q 684 356 675 313 q 704 453 693 400 q 571 274 644 338 q 403 210 497 210 q 288 253 324 210 q 251 375 251 297 q 264 485 251 425 q 301 631 276 544 q 335 764 325 715 q 346 853 346 813 q 327 931 346 901 q 267 961 308 961 q 185 922 219 961 q 134 827 151 883 q 117 721 117 771 q 128 653 117 679 q 55 679 78 653 q 32 749 32 706 q 69 865 32 807 q 167 962 106 924 q 297 1000 228 1000 q 406 958 371 1000 q 442 860 442 917 q 432 785 442 828 q 401 668 422 743 q 362 513 375 574 q 349 399 349 451 q 446 265 349 265 q 608 365 533 265 q 740 611 683 465 q 824 894 783 788 q 907 1000 865 1000 q 943 988 921 1000 q 985 956 965 975 q 906 808 935 876 q 848 632 878 740 q 756 269 818 524 q 675 1 715 108 q 556 -183 635 -106 q 354 -260 478 -260 z "},"Ý":{"ha":925,"x_min":32,"x_max":985,"o":"m 354 -260 q 217 -225 271 -260 q 163 -129 163 -190 q 246 -25 163 -53 q 235 -100 235 -62 q 265 -192 235 -158 q 356 -225 296 -225 q 545 -105 478 -225 q 646 168 613 15 q 668 278 650 186 q 684 356 675 313 q 704 453 693 400 q 571 274 644 338 q 403 210 497 210 q 288 253 324 210 q 251 375 251 297 q 264 485 251 425 q 301 631 276 544 q 335 764 325 715 q 346 853 346 813 q 327 931 346 901 q 267 961 308 961 q 185 922 219 961 q 134 827 151 883 q 117 721 117 771 q 128 653 117 679 q 55 679 78 653 q 32 749 32 706 q 69 865 32 807 q 167 962 106 924 q 297 1000 228 1000 q 406 958 371 1000 q 442 860 442 917 q 432 785 442 828 q 401 668 422 743 q 362 513 375 574 q 349 399 349 451 q 446 265 349 265 q 608 365 533 265 q 740 611 683 465 q 824 894 783 788 q 907 1000 865 1000 q 943 988 921 1000 q 985 956 965 975 q 906 808 935 876 q 848 632 878 740 q 756 269 818 524 q 675 1 715 108 q 556 -183 635 -106 q 354 -260 478 -260 m 647 1039 q 633 1055 638 1043 q 628 1075 628 1067 q 653 1134 628 1092 q 713 1210 679 1176 q 772 1243 747 1243 q 803 1200 799 1243 q 647 1039 700 1111 z "},"Ŷ":{"ha":925,"x_min":32,"x_max":985,"o":"m 354 -260 q 217 -225 271 -260 q 163 -129 163 -190 q 246 -25 163 -53 q 235 -100 235 -62 q 265 -192 235 -158 q 356 -225 296 -225 q 545 -105 478 -225 q 646 168 613 15 q 668 278 650 186 q 684 356 675 313 q 704 453 693 400 q 571 274 644 338 q 403 210 497 210 q 288 253 324 210 q 251 375 251 297 q 264 485 251 425 q 301 631 276 544 q 335 764 325 715 q 346 853 346 813 q 327 931 346 901 q 267 961 308 961 q 185 922 219 961 q 134 827 151 883 q 117 721 117 771 q 128 653 117 679 q 55 679 78 653 q 32 749 32 706 q 69 865 32 807 q 167 962 106 924 q 297 1000 228 1000 q 406 958 371 1000 q 442 860 442 917 q 432 785 442 828 q 401 668 422 743 q 362 513 375 574 q 349 399 349 451 q 446 265 349 265 q 608 365 533 265 q 740 611 683 465 q 824 894 783 788 q 907 1000 865 1000 q 943 988 921 1000 q 985 956 965 975 q 906 808 935 876 q 848 632 878 740 q 756 269 818 524 q 675 1 715 108 q 556 -183 635 -106 q 354 -260 478 -260 m 775 1033 q 733 1097 757 1069 q 672 1161 710 1125 q 592 1126 625 1144 q 529 1082 558 1108 q 515 1108 515 1090 q 546 1162 515 1133 q 615 1210 576 1190 q 674 1231 654 1231 q 726 1204 696 1231 q 777 1142 756 1178 q 799 1076 799 1106 q 775 1033 799 1046 z "},"Ÿ":{"ha":925,"x_min":32,"x_max":985,"o":"m 354 -260 q 217 -225 271 -260 q 163 -129 163 -190 q 246 -25 163 -53 q 235 -100 235 -62 q 265 -192 235 -158 q 356 -225 296 -225 q 545 -105 478 -225 q 646 168 613 15 q 668 278 650 186 q 684 356 675 313 q 704 453 693 400 q 571 274 644 338 q 403 210 497 210 q 288 253 324 210 q 251 375 251 297 q 264 485 251 425 q 301 631 276 544 q 335 764 325 715 q 346 853 346 813 q 327 931 346 901 q 267 961 308 961 q 185 922 219 961 q 134 827 151 883 q 117 721 117 771 q 128 653 117 679 q 55 679 78 653 q 32 749 32 706 q 69 865 32 807 q 167 962 106 924 q 297 1000 228 1000 q 406 958 371 1000 q 442 860 442 917 q 432 785 442 828 q 401 668 422 743 q 362 513 375 574 q 349 399 349 451 q 446 265 349 265 q 608 365 533 265 q 740 611 683 465 q 824 894 783 788 q 907 1000 865 1000 q 943 988 921 1000 q 985 956 965 975 q 906 808 935 876 q 848 632 878 740 q 756 269 818 524 q 675 1 715 108 q 556 -183 635 -106 q 354 -260 478 -260 m 550 1075 q 513 1085 528 1075 q 499 1117 499 1096 q 528 1162 499 1142 q 590 1182 558 1182 q 632 1143 632 1182 q 606 1097 632 1119 q 550 1075 581 1075 m 750 1046 q 713 1056 728 1046 q 699 1088 699 1067 q 728 1133 699 1113 q 790 1153 758 1153 q 832 1114 832 1153 q 806 1068 832 1090 q 750 1046 781 1046 z "},"Ỵ":{"ha":925,"x_min":32,"x_max":985,"o":"m 354 -260 q 217 -225 271 -260 q 163 -129 163 -190 q 246 -25 163 -53 q 235 -100 235 -62 q 265 -192 235 -158 q 356 -225 296 -225 q 545 -105 478 -225 q 646 168 613 15 q 668 278 650 186 q 684 356 675 313 q 704 453 693 400 q 571 274 644 338 q 403 210 497 210 q 288 253 324 210 q 251 375 251 297 q 264 485 251 425 q 301 631 276 544 q 335 764 325 715 q 346 853 346 813 q 327 931 346 901 q 267 961 308 961 q 185 922 219 961 q 134 827 151 883 q 117 721 117 771 q 128 653 117 679 q 55 679 78 653 q 32 749 32 706 q 69 865 32 807 q 167 962 106 924 q 297 1000 228 1000 q 406 958 371 1000 q 442 860 442 917 q 432 785 442 828 q 401 668 422 743 q 362 513 375 574 q 349 399 349 451 q 446 265 349 265 q 608 365 533 265 q 740 611 683 465 q 824 894 783 788 q 907 1000 865 1000 q 943 988 921 1000 q 985 956 965 975 q 906 808 935 876 q 848 632 878 740 q 756 269 818 524 q 675 1 715 108 q 556 -183 635 -106 q 354 -260 478 -260 m 710 -261 q 669 -249 685 -261 q 654 -215 654 -237 q 683 -167 654 -186 q 744 -147 713 -147 q 793 -193 793 -147 q 767 -240 793 -219 q 710 -261 740 -261 z "},"Ỳ":{"ha":925,"x_min":32,"x_max":985,"o":"m 354 -260 q 217 -225 271 -260 q 163 -129 163 -190 q 246 -25 163 -53 q 235 -100 235 -62 q 265 -192 235 -158 q 356 -225 296 -225 q 545 -105 478 -225 q 646 168 613 15 q 668 278 650 186 q 684 356 675 313 q 704 453 693 400 q 571 274 644 338 q 403 210 497 210 q 288 253 324 210 q 251 375 251 297 q 264 485 251 425 q 301 631 276 544 q 335 764 325 715 q 346 853 346 813 q 327 931 346 901 q 267 961 308 961 q 185 922 219 961 q 134 827 151 883 q 117 721 117 771 q 128 653 117 679 q 55 679 78 653 q 32 749 32 706 q 69 865 32 807 q 167 962 106 924 q 297 1000 228 1000 q 406 958 371 1000 q 442 860 442 917 q 432 785 442 828 q 401 668 422 743 q 362 513 375 574 q 349 399 349 451 q 446 265 349 265 q 608 365 533 265 q 740 611 683 465 q 824 894 783 788 q 907 1000 865 1000 q 943 988 921 1000 q 985 956 965 975 q 906 808 935 876 q 848 632 878 740 q 756 269 818 524 q 675 1 715 108 q 556 -183 635 -106 q 354 -260 478 -260 m 644 1039 q 489 1200 592 1111 q 519 1243 493 1243 q 578 1210 544 1243 q 638 1134 613 1176 q 664 1075 664 1092 q 659 1055 664 1067 q 644 1039 654 1043 z "},"Ỷ":{"ha":925,"x_min":32,"x_max":985,"o":"m 354 -260 q 217 -225 271 -260 q 163 -129 163 -190 q 246 -25 163 -53 q 235 -100 235 -62 q 265 -192 235 -158 q 356 -225 296 -225 q 545 -105 478 -225 q 646 168 613 15 q 668 278 650 186 q 684 356 675 313 q 704 453 693 400 q 571 274 644 338 q 403 210 497 210 q 288 253 324 210 q 251 375 251 297 q 264 485 251 425 q 301 631 276 544 q 335 764 325 715 q 346 853 346 813 q 327 931 346 901 q 267 961 308 961 q 185 922 219 961 q 134 827 151 883 q 117 721 117 771 q 128 653 117 679 q 55 679 78 653 q 32 749 32 706 q 69 865 32 807 q 167 962 106 924 q 297 1000 228 1000 q 406 958 371 1000 q 442 860 442 917 q 432 785 442 828 q 401 668 422 743 q 362 513 375 574 q 349 399 349 451 q 446 265 349 265 q 608 365 533 265 q 740 611 683 465 q 824 894 783 788 q 907 1000 865 1000 q 943 988 921 1000 q 985 956 965 975 q 906 808 935 876 q 848 632 878 740 q 756 269 818 524 q 675 1 715 108 q 556 -183 635 -106 q 354 -260 478 -260 m 686 1042 q 639 1057 657 1042 q 708 1076 681 1060 q 735 1124 735 1092 q 703 1169 735 1156 q 606 1183 671 1183 q 624 1228 606 1210 q 672 1247 642 1247 q 750 1217 719 1247 q 781 1140 781 1186 q 754 1069 781 1097 q 686 1042 728 1042 z "},"Ȳ":{"ha":925,"x_min":32,"x_max":985,"o":"m 354 -260 q 217 -225 271 -260 q 163 -129 163 -190 q 246 -25 163 -53 q 235 -100 235 -62 q 265 -192 235 -158 q 356 -225 296 -225 q 545 -105 478 -225 q 646 168 613 15 q 668 278 650 186 q 684 356 675 313 q 704 453 693 400 q 571 274 644 338 q 403 210 497 210 q 288 253 324 210 q 251 375 251 297 q 264 485 251 425 q 301 631 276 544 q 335 764 325 715 q 346 853 346 813 q 327 931 346 901 q 267 961 308 961 q 185 922 219 961 q 134 827 151 883 q 117 721 117 771 q 128 653 117 679 q 55 679 78 653 q 32 749 32 706 q 69 865 32 807 q 167 962 106 924 q 297 1000 228 1000 q 406 958 371 1000 q 442 860 442 917 q 432 785 442 828 q 401 668 422 743 q 362 513 375 574 q 349 399 349 451 q 446 265 349 265 q 608 365 533 265 q 740 611 683 465 q 824 894 783 788 q 907 1000 865 1000 q 943 988 921 1000 q 985 956 965 975 q 906 808 935 876 q 848 632 878 740 q 756 269 818 524 q 675 1 715 108 q 556 -183 635 -106 q 354 -260 478 -260 m 797 1050 q 707 1060 765 1050 q 592 1082 649 1069 q 451 1107 482 1104 q 515 1143 465 1143 q 850 1078 629 1143 q 797 1050 831 1050 z "},"Ỹ":{"ha":925,"x_min":32,"x_max":985,"o":"m 354 -260 q 217 -225 271 -260 q 163 -129 163 -190 q 246 -25 163 -53 q 235 -100 235 -62 q 265 -192 235 -158 q 356 -225 296 -225 q 545 -105 478 -225 q 646 168 613 15 q 668 278 650 186 q 684 356 675 313 q 704 453 693 400 q 571 274 644 338 q 403 210 497 210 q 288 253 324 210 q 251 375 251 297 q 264 485 251 425 q 301 631 276 544 q 335 764 325 715 q 346 853 346 813 q 327 931 346 901 q 267 961 308 961 q 185 922 219 961 q 134 827 151 883 q 117 721 117 771 q 128 653 117 679 q 55 679 78 653 q 32 749 32 706 q 69 865 32 807 q 167 962 106 924 q 297 1000 228 1000 q 406 958 371 1000 q 442 860 442 917 q 432 785 442 828 q 401 668 422 743 q 362 513 375 574 q 349 399 349 451 q 446 265 349 265 q 608 365 533 265 q 740 611 683 465 q 824 894 783 788 q 907 1000 865 1000 q 943 988 921 1000 q 985 956 965 975 q 906 808 935 876 q 848 632 878 740 q 756 269 818 524 q 675 1 715 108 q 556 -183 635 -106 q 354 -260 478 -260 m 767 1057 q 716 1065 742 1057 q 651 1088 690 1072 q 582 1113 611 1104 q 524 1121 553 1121 q 449 1100 481 1121 q 569 1169 499 1169 q 621 1162 594 1169 q 683 1139 647 1154 q 768 1111 738 1119 q 833 1103 799 1103 q 881 1114 856 1103 q 767 1057 835 1057 z "},"Z":{"ha":876,"x_min":-35,"x_max":917,"o":"m 621 -121 q 494 -95 564 -121 q 317 -18 425 -69 l 271 3 q 93 -75 171 -75 q 1 -40 36 -75 q -35 36 -35 -6 q -9 88 -35 68 q 72 108 17 108 q 261 72 139 108 q 532 446 383 201 q 351 431 449 444 l 304 424 q 362 499 307 478 q 511 521 417 521 q 574 518 532 521 q 736 847 688 721 q 621 888 701 856 q 469 942 533 922 q 350 961 404 961 q 193 761 193 961 q 199 713 193 731 q 142 744 160 719 q 124 813 124 769 q 194 952 124 904 q 392 1000 265 1000 q 523 988 461 1000 q 667 951 585 975 q 781 921 736 931 q 872 911 826 911 q 917 914 903 911 q 847 865 879 882 q 667 510 781 706 l 707 506 q 814 497 785 497 q 781 465 799 475 q 732 453 763 456 q 631 449 701 450 q 328 53 475 194 q 528 -6 451 14 q 668 -25 606 -25 q 767 -3 724 -25 q 708 -93 744 -65 q 621 -121 672 -121 m 86 -37 q 214 28 138 -37 q 53 72 106 72 q 1 39 1 72 q 26 -12 1 13 q 86 -37 50 -37 z "},"Ź":{"ha":876,"x_min":-35,"x_max":917,"o":"m 621 -121 q 494 -95 564 -121 q 317 -18 425 -69 l 271 3 q 93 -75 171 -75 q 1 -40 36 -75 q -35 36 -35 -6 q -9 88 -35 68 q 72 108 17 108 q 261 72 139 108 q 532 446 383 201 q 351 431 449 444 l 304 424 q 362 499 307 478 q 511 521 417 521 q 574 518 532 521 q 736 847 688 721 q 621 888 701 856 q 469 942 533 922 q 350 961 404 961 q 193 761 193 961 q 199 713 193 731 q 142 744 160 719 q 124 813 124 769 q 194 952 124 904 q 392 1000 265 1000 q 523 988 461 1000 q 667 951 585 975 q 781 921 736 931 q 872 911 826 911 q 917 914 903 911 q 847 865 879 882 q 667 510 781 706 l 707 506 q 814 497 785 497 q 781 465 799 475 q 732 453 763 456 q 631 449 701 450 q 328 53 475 194 q 528 -6 451 14 q 668 -25 606 -25 q 767 -3 724 -25 q 708 -93 744 -65 q 621 -121 672 -121 m 86 -37 q 214 28 138 -37 q 53 72 106 72 q 1 39 1 72 q 26 -12 1 13 q 86 -37 50 -37 m 613 1039 q 598 1055 603 1043 q 593 1075 593 1067 q 619 1134 593 1092 q 678 1210 644 1176 q 738 1243 713 1243 q 768 1200 764 1243 q 613 1039 665 1111 z "},"Ž":{"ha":876,"x_min":-35,"x_max":917,"o":"m 621 -121 q 494 -95 564 -121 q 317 -18 425 -69 l 271 3 q 93 -75 171 -75 q 1 -40 36 -75 q -35 36 -35 -6 q -9 88 -35 68 q 72 108 17 108 q 261 72 139 108 q 532 446 383 201 q 351 431 449 444 l 304 424 q 362 499 307 478 q 511 521 417 521 q 574 518 532 521 q 736 847 688 721 q 621 888 701 856 q 469 942 533 922 q 350 961 404 961 q 193 761 193 961 q 199 713 193 731 q 142 744 160 719 q 124 813 124 769 q 194 952 124 904 q 392 1000 265 1000 q 523 988 461 1000 q 667 951 585 975 q 781 921 736 931 q 872 911 826 911 q 917 914 903 911 q 847 865 879 882 q 667 510 781 706 l 707 506 q 814 497 785 497 q 781 465 799 475 q 732 453 763 456 q 631 449 701 450 q 328 53 475 194 q 528 -6 451 14 q 668 -25 606 -25 q 767 -3 724 -25 q 708 -93 744 -65 q 621 -121 672 -121 m 86 -37 q 214 28 138 -37 q 53 72 106 72 q 1 39 1 72 q 26 -12 1 13 q 86 -37 50 -37 m 608 1047 q 556 1074 586 1047 q 505 1136 526 1100 q 483 1201 483 1172 q 507 1244 483 1233 q 549 1181 525 1208 q 610 1117 572 1153 q 690 1151 657 1133 q 753 1196 724 1169 q 767 1169 767 1188 q 736 1116 767 1144 q 667 1067 706 1088 q 608 1047 628 1047 z "},"Ż":{"ha":876,"x_min":-35,"x_max":917,"o":"m 621 -121 q 494 -95 564 -121 q 317 -18 425 -69 l 271 3 q 93 -75 171 -75 q 1 -40 36 -75 q -35 36 -35 -6 q -9 88 -35 68 q 72 108 17 108 q 261 72 139 108 q 532 446 383 201 q 351 431 449 444 l 304 424 q 362 499 307 478 q 511 521 417 521 q 574 518 532 521 q 736 847 688 721 q 621 888 701 856 q 469 942 533 922 q 350 961 404 961 q 193 761 193 961 q 199 713 193 731 q 142 744 160 719 q 124 813 124 769 q 194 952 124 904 q 392 1000 265 1000 q 523 988 461 1000 q 667 951 585 975 q 781 921 736 931 q 872 911 826 911 q 917 914 903 911 q 847 865 879 882 q 667 510 781 706 l 707 506 q 814 497 785 497 q 781 465 799 475 q 732 453 763 456 q 631 449 701 450 q 328 53 475 194 q 528 -6 451 14 q 668 -25 606 -25 q 767 -3 724 -25 q 708 -93 744 -65 q 621 -121 672 -121 m 86 -37 q 214 28 138 -37 q 53 72 106 72 q 1 39 1 72 q 26 -12 1 13 q 86 -37 50 -37 m 619 1071 q 579 1083 594 1071 q 564 1117 564 1094 q 593 1165 564 1146 q 654 1185 622 1185 q 703 1139 703 1185 q 676 1092 703 1113 q 619 1071 650 1071 z "},"a":{"ha":606,"x_min":-36,"x_max":647,"o":"m 67 -65 q -8 -35 21 -65 q -36 50 -36 -6 q 23 233 -36 132 q 172 406 82 335 q 349 476 263 476 q 439 447 403 476 q 475 372 475 418 q 457 326 475 340 q 407 313 439 313 q 414 361 414 338 q 397 417 414 396 q 346 439 381 439 q 217 371 285 439 q 105 208 150 303 q 60 46 60 114 q 97 -8 60 -8 q 228 80 153 -8 q 389 294 303 168 q 426 283 407 292 q 444 260 444 274 q 431 224 444 249 q 415 196 418 200 q 378 124 392 156 q 364 67 364 93 q 376 24 364 43 q 411 6 388 6 q 513 63 451 6 q 633 225 574 121 l 647 211 q 572 80 618 138 q 474 -10 526 22 q 372 -42 421 -42 q 298 -13 324 -42 q 272 56 272 15 q 276 96 272 74 q 165 -26 214 13 q 67 -65 115 -65 z "},"á":{"ha":606,"x_min":-36,"x_max":647,"o":"m 67 -65 q -8 -35 21 -65 q -36 50 -36 -6 q 23 233 -36 132 q 172 406 82 335 q 349 476 263 476 q 439 447 403 476 q 475 372 475 418 q 457 326 475 340 q 407 313 439 313 q 414 361 414 338 q 397 417 414 396 q 346 439 381 439 q 217 371 285 439 q 105 208 150 303 q 60 46 60 114 q 97 -8 60 -8 q 228 80 153 -8 q 389 294 303 168 q 426 283 407 292 q 444 260 444 274 q 431 224 444 249 q 415 196 418 200 q 378 124 392 156 q 364 67 364 93 q 376 24 364 43 q 411 6 388 6 q 513 63 451 6 q 633 225 574 121 l 647 211 q 572 80 618 138 q 474 -10 526 22 q 372 -42 421 -42 q 298 -13 324 -42 q 272 56 272 15 q 276 96 272 74 q 165 -26 214 13 q 67 -65 115 -65 m 408 569 q 394 585 399 574 q 389 606 389 597 q 415 665 389 622 q 474 740 440 707 q 533 774 508 774 q 564 731 560 774 q 408 569 461 642 z "},"ă":{"ha":606,"x_min":-36,"x_max":647,"o":"m 67 -65 q -8 -35 21 -65 q -36 50 -36 -6 q 23 233 -36 132 q 172 406 82 335 q 349 476 263 476 q 439 447 403 476 q 475 372 475 418 q 457 326 475 340 q 407 313 439 313 q 414 361 414 338 q 397 417 414 396 q 346 439 381 439 q 217 371 285 439 q 105 208 150 303 q 60 46 60 114 q 97 -8 60 -8 q 228 80 153 -8 q 389 294 303 168 q 426 283 407 292 q 444 260 444 274 q 431 224 444 249 q 415 196 418 200 q 378 124 392 156 q 364 67 364 93 q 376 24 364 43 q 411 6 388 6 q 513 63 451 6 q 633 225 574 121 l 647 211 q 572 80 618 138 q 474 -10 526 22 q 372 -42 421 -42 q 298 -13 324 -42 q 272 56 272 15 q 276 96 272 74 q 165 -26 214 13 q 67 -65 115 -65 m 436 569 q 355 590 388 569 q 308 640 322 610 q 293 697 293 669 q 326 765 293 743 q 358 676 331 713 q 439 639 386 639 q 572 722 525 639 q 586 681 586 708 q 541 602 586 635 q 436 569 496 569 z "},"ắ":{"ha":606,"x_min":-36,"x_max":647,"o":"m 67 -65 q -8 -35 21 -65 q -36 50 -36 -6 q 23 233 -36 132 q 172 406 82 335 q 349 476 263 476 q 439 447 403 476 q 475 372 475 418 q 457 326 475 340 q 407 313 439 313 q 414 361 414 338 q 397 417 414 396 q 346 439 381 439 q 217 371 285 439 q 105 208 150 303 q 60 46 60 114 q 97 -8 60 -8 q 228 80 153 -8 q 389 294 303 168 q 426 283 407 292 q 444 260 444 274 q 431 224 444 249 q 415 196 418 200 q 378 124 392 156 q 364 67 364 93 q 376 24 364 43 q 411 6 388 6 q 513 63 451 6 q 633 225 574 121 l 647 211 q 572 80 618 138 q 474 -10 526 22 q 372 -42 421 -42 q 298 -13 324 -42 q 272 56 272 15 q 276 96 272 74 q 165 -26 214 13 q 67 -65 115 -65 m 451 669 q 431 686 438 675 q 424 710 424 697 q 445 761 424 728 q 497 820 467 794 q 549 846 526 846 q 579 803 575 846 q 451 669 494 726 m 436 522 q 355 542 388 522 q 308 592 322 563 q 293 650 293 622 q 326 718 293 696 q 358 628 331 665 q 439 592 386 592 q 572 675 525 592 q 586 633 586 661 q 541 555 586 588 q 436 522 496 522 z "},"ặ":{"ha":606,"x_min":-36,"x_max":647,"o":"m 67 -65 q -8 -35 21 -65 q -36 50 -36 -6 q 23 233 -36 132 q 172 406 82 335 q 349 476 263 476 q 439 447 403 476 q 475 372 475 418 q 457 326 475 340 q 407 313 439 313 q 414 361 414 338 q 397 417 414 396 q 346 439 381 439 q 217 371 285 439 q 105 208 150 303 q 60 46 60 114 q 97 -8 60 -8 q 228 80 153 -8 q 389 294 303 168 q 426 283 407 292 q 444 260 444 274 q 431 224 444 249 q 415 196 418 200 q 378 124 392 156 q 364 67 364 93 q 376 24 364 43 q 411 6 388 6 q 513 63 451 6 q 633 225 574 121 l 647 211 q 572 80 618 138 q 474 -10 526 22 q 372 -42 421 -42 q 298 -13 324 -42 q 272 56 272 15 q 276 96 272 74 q 165 -26 214 13 q 67 -65 115 -65 m 436 569 q 355 590 388 569 q 308 640 322 610 q 293 697 293 669 q 326 765 293 743 q 358 676 331 713 q 439 639 386 639 q 572 722 525 639 q 586 681 586 708 q 541 602 586 635 q 436 569 496 569 m 126 -290 q 86 -278 101 -290 q 71 -244 71 -267 q 100 -196 71 -215 q 161 -176 129 -176 q 210 -222 210 -176 q 183 -269 210 -249 q 126 -290 157 -290 z "},"ằ":{"ha":606,"x_min":-36,"x_max":647,"o":"m 67 -65 q -8 -35 21 -65 q -36 50 -36 -6 q 23 233 -36 132 q 172 406 82 335 q 349 476 263 476 q 439 447 403 476 q 475 372 475 418 q 457 326 475 340 q 407 313 439 313 q 414 361 414 338 q 397 417 414 396 q 346 439 381 439 q 217 371 285 439 q 105 208 150 303 q 60 46 60 114 q 97 -8 60 -8 q 228 80 153 -8 q 389 294 303 168 q 426 283 407 292 q 444 260 444 274 q 431 224 444 249 q 415 196 418 200 q 378 124 392 156 q 364 67 364 93 q 376 24 364 43 q 411 6 388 6 q 513 63 451 6 q 633 225 574 121 l 647 211 q 572 80 618 138 q 474 -10 526 22 q 372 -42 421 -42 q 298 -13 324 -42 q 272 56 272 15 q 276 96 272 74 q 165 -26 214 13 q 67 -65 115 -65 m 467 665 q 339 799 424 722 q 369 842 343 842 q 422 816 392 842 q 473 757 451 790 q 494 706 494 724 q 488 682 494 693 q 467 665 481 671 m 436 522 q 355 542 388 522 q 308 592 322 563 q 293 650 293 622 q 326 718 293 696 q 358 628 331 665 q 439 592 386 592 q 572 675 525 592 q 586 633 586 661 q 541 555 586 588 q 436 522 496 522 z "},"ẳ":{"ha":606,"x_min":-36,"x_max":647,"o":"m 67 -65 q -8 -35 21 -65 q -36 50 -36 -6 q 23 233 -36 132 q 172 406 82 335 q 349 476 263 476 q 439 447 403 476 q 475 372 475 418 q 457 326 475 340 q 407 313 439 313 q 414 361 414 338 q 397 417 414 396 q 346 439 381 439 q 217 371 285 439 q 105 208 150 303 q 60 46 60 114 q 97 -8 60 -8 q 228 80 153 -8 q 389 294 303 168 q 426 283 407 292 q 444 260 444 274 q 431 224 444 249 q 415 196 418 200 q 378 124 392 156 q 364 67 364 93 q 376 24 364 43 q 411 6 388 6 q 513 63 451 6 q 633 225 574 121 l 647 211 q 572 80 618 138 q 474 -10 526 22 q 372 -42 421 -42 q 298 -13 324 -42 q 272 56 272 15 q 276 96 272 74 q 165 -26 214 13 q 67 -65 115 -65 m 436 522 q 355 542 388 522 q 308 592 322 563 q 293 650 293 622 q 326 718 293 696 q 358 628 331 665 q 439 592 386 592 q 572 675 525 592 q 586 633 586 661 q 541 555 586 588 q 436 522 496 522 m 461 653 q 414 668 432 653 q 483 687 456 671 q 510 735 510 703 q 478 781 510 767 q 381 794 446 794 q 399 840 381 821 q 447 858 417 858 q 525 828 494 858 q 556 751 556 797 q 529 681 556 708 q 461 653 503 653 z "},"ẵ":{"ha":606,"x_min":-36,"x_max":694,"o":"m 67 -65 q -8 -35 21 -65 q -36 50 -36 -6 q 23 233 -36 132 q 172 406 82 335 q 349 476 263 476 q 439 447 403 476 q 475 372 475 418 q 457 326 475 340 q 407 313 439 313 q 414 361 414 338 q 397 417 414 396 q 346 439 381 439 q 217 371 285 439 q 105 208 150 303 q 60 46 60 114 q 97 -8 60 -8 q 228 80 153 -8 q 389 294 303 168 q 426 283 407 292 q 444 260 444 274 q 431 224 444 249 q 415 196 418 200 q 378 124 392 156 q 364 67 364 93 q 376 24 364 43 q 411 6 388 6 q 513 63 451 6 q 633 225 574 121 l 647 211 q 572 80 618 138 q 474 -10 526 22 q 372 -42 421 -42 q 298 -13 324 -42 q 272 56 272 15 q 276 96 272 74 q 165 -26 214 13 q 67 -65 115 -65 m 436 522 q 355 542 388 522 q 308 592 322 563 q 293 650 293 622 q 326 718 293 696 q 358 628 331 665 q 439 592 386 592 q 572 675 525 592 q 586 633 586 661 q 541 555 586 588 q 436 522 496 522 m 581 706 q 530 713 556 706 q 465 736 504 721 q 396 761 425 753 q 338 769 367 769 q 263 749 294 769 q 383 818 313 818 q 435 810 408 818 q 497 788 461 803 q 582 760 551 768 q 647 751 613 751 q 694 763 669 751 q 581 706 649 706 z "},"â":{"ha":606,"x_min":-36,"x_max":647,"o":"m 67 -65 q -8 -35 21 -65 q -36 50 -36 -6 q 23 233 -36 132 q 172 406 82 335 q 349 476 263 476 q 439 447 403 476 q 475 372 475 418 q 457 326 475 340 q 407 313 439 313 q 414 361 414 338 q 397 417 414 396 q 346 439 381 439 q 217 371 285 439 q 105 208 150 303 q 60 46 60 114 q 97 -8 60 -8 q 228 80 153 -8 q 389 294 303 168 q 426 283 407 292 q 444 260 444 274 q 431 224 444 249 q 415 196 418 200 q 378 124 392 156 q 364 67 364 93 q 376 24 364 43 q 411 6 388 6 q 513 63 451 6 q 633 225 574 121 l 647 211 q 572 80 618 138 q 474 -10 526 22 q 372 -42 421 -42 q 298 -13 324 -42 q 272 56 272 15 q 276 96 272 74 q 165 -26 214 13 q 67 -65 115 -65 m 543 558 q 501 622 525 594 q 440 686 478 650 q 360 651 393 669 q 297 607 326 633 q 283 633 283 615 q 314 687 283 658 q 383 735 344 715 q 442 756 422 756 q 494 729 464 756 q 545 667 524 703 q 567 601 567 631 q 543 558 567 571 z "},"ấ":{"ha":606,"x_min":-36,"x_max":697,"o":"m 67 -65 q -8 -35 21 -65 q -36 50 -36 -6 q 23 233 -36 132 q 172 406 82 335 q 349 476 263 476 q 439 447 403 476 q 475 372 475 418 q 457 326 475 340 q 407 313 439 313 q 414 361 414 338 q 397 417 414 396 q 346 439 381 439 q 217 371 285 439 q 105 208 150 303 q 60 46 60 114 q 97 -8 60 -8 q 228 80 153 -8 q 389 294 303 168 q 426 283 407 292 q 444 260 444 274 q 431 224 444 249 q 415 196 418 200 q 378 124 392 156 q 364 67 364 93 q 376 24 364 43 q 411 6 388 6 q 513 63 451 6 q 633 225 574 121 l 647 211 q 572 80 618 138 q 474 -10 526 22 q 372 -42 421 -42 q 298 -13 324 -42 q 272 56 272 15 q 276 96 272 74 q 165 -26 214 13 q 67 -65 115 -65 m 569 635 q 549 651 556 640 q 542 675 542 663 q 563 726 542 693 q 615 785 585 760 q 667 811 644 811 q 697 768 693 811 q 569 635 613 692 m 522 503 q 481 567 504 539 q 419 631 457 594 q 339 596 372 614 q 276 551 306 578 q 263 578 263 560 q 293 631 263 603 q 363 680 324 660 q 421 700 401 700 q 473 674 443 700 q 524 611 503 647 q 546 546 546 575 q 522 503 546 515 z "}}}
